<?xml version="1.0" encoding="UTF-8"?>
<svg width="235px" height="38px" viewBox="0 0 235 38" version="1.1" xmlns="http://www.w3.org/2000/svg" xmlns:xlink="http://www.w3.org/1999/xlink">
    <!-- Generator: Sketch 53.1 (72631) - https://sketchapp.com -->
    <title>logo</title>
    <desc>Created with Sketch.</desc>
    <g id="页面-1" stroke="none" stroke-width="1" fill="none" fill-rule="evenodd">
        <g id="08-01登录" transform="translate(-30.000000, -30.000000)" fill="#FFFFFF" fill-rule="nonzero">
            <g id="logo" transform="translate(30.000000, 30.000000)">
                <path  fill="#ffffff" d="M34.052459,8.51662691 C34.3239344,8.96599309 34.1645902,9.54618741 33.6806557,9.80784367 L19.4045902,17.2081653 C18.7140984,17.5949615 17.8583607,17.5949615 17.1678689,17.2081653 L2.89180328,9.80784367 C2.41967213,9.54618741 2.26032787,8.97168127 2.53180328,8.51662691 L5.38819672,6.29254868 C5.65967213,5.83749431 6.2557377,5.68391347 6.72786885,5.94556973 L15.037377,10.1093172 C17.0498361,11.2298886 19.5344262,11.2298886 21.5468852,10.1093172 L29.8563934,5.94556973 C30.322623,5.68391347 30.9245902,5.83749431 31.1960656,6.29254868 L34.052459,8.51662691 Z M13.5678689,19.8417925 C15.0491803,20.7917185 15.9344262,22.3900969 15.9344262,24.0965508 L15.9344262,27.1852324 C15.9344262,27.6232222 15.4386885,27.901943 15.0432787,27.6744158 L0.289180328,19.2502218 C0.112131148,19.1478346 0,18.9601247 0,18.7610384 L0,12.1855027 C0,11.7304484 0.525245902,11.4631039 0.914754098,11.7133838 L13.5678689,19.8417925 Z M12.387541,30.0805158 C13.8688525,31.0304418 14.7540984,32.6288202 14.7540984,34.3352741 L14.7540984,37.4239556 C14.7540984,37.8619455 14.2583607,38.1406663 13.8629508,37.9131391 L0.289180328,30.626581 C0.112131148,30.5241938 0,30.3364839 0,30.1373976 L0,23.5618619 C0,23.1068076 0.525245902,22.8394631 0.914754098,23.089743 L12.387541,30.0805158 Z M35.0852459,11.7133838 C35.4747541,11.4574158 36,11.7304484 36,12.1911909 L36,18.7667265 C36,18.9658128 35.8878689,19.1535228 35.7108197,19.25591 L20.9567213,27.680104 C20.5613115,27.9076312 20.0655738,27.6289104 20.0655738,27.1909205 L20.0655738,24.102239 C20.0655738,22.3900969 20.9567213,20.7917185 22.4321311,19.8417925 L35.0852459,11.7133838 Z M35.0852459,23.089743 C35.4747541,22.833775 36,23.1068076 36,23.5675501 L36,30.1430857 C36,30.342172 35.8878689,30.529882 35.7108197,30.6322692 L22.1370492,37.9188273 C21.7416393,38.1463544 21.2459016,37.8676336 21.2459016,37.4296438 L21.2459016,34.3409623 C21.2459016,32.6288202 22.1370492,31.0304418 23.612459,30.0805158 L35.0852459,23.089743 Z M11.6734426,4.49508393 C11.3193443,4.26755674 11.3252459,3.76130876 11.6911475,3.53946976 L16.3888525,0.473540952 C17.5809836,-0.157846984 19.0209836,-0.157846984 20.2131148,0.473540952 L24.9108197,3.53946976 C25.2708197,3.76130876 25.2767213,4.26755674 24.922623,4.49508393 L20.2662295,6.55420494 C19.015082,7.10595836 17.5809836,7.10595836 16.3298361,6.55420494 L11.6734426,4.49508393 Z" id="合并形状"></path>
                <path  fill="#ffffff" d="M55.2842588,28.7864078 L55.2842588,22.1413161 L47,22.1413161 L47,11.8176915 L55.2842588,11.8176915 L55.2842588,7.403452 L58.3250127,7.403452 L58.3250127,11.8176915 L66.6811004,11.8176915 L66.6811004,20.0291262 C66.6811004,20.6461735 66.4576351,21.1524612 66.0106979,21.5480043 C65.7074191,21.7536868 65.3802021,21.9039909 65.0290372,21.9989213 C64.5661379,22.1096733 64.1032456,22.1571378 63.6403464,22.1413161 L58.3250127,22.1413161 L58.3250127,27.2912621 C58.3250127,27.7342705 58.1653947,28.1060754 57.8461538,28.4066882 C57.542875,28.6598359 57.1996963,28.7864078 56.8166072,28.7864078 L55.2842588,28.7864078 Z M63.6403464,13.9773463 L58.3250127,13.9773463 L58.3250127,20.0291262 L63.6403464,20.0291262 L63.6403464,13.9773463 Z M50.0407539,13.9773463 L50.0407539,20.0291262 L55.2842588,20.0291262 L55.2842588,13.9773463 L50.0407539,13.9773463 Z M90.8634743,14.0485437 L86.242486,14.0485437 L86.242486,17.7745415 L91.3423332,17.7745415 L91.3423332,19.815534 L86.0988283,19.815534 L86.0988283,19.8629989 C86.5298035,21.5717453 87.29597,23.1222512 88.397351,24.5145631 C89.3710356,25.7011926 90.5522091,26.6267496 91.9409068,27.2912621 L91.3902191,28.596548 C90.0334454,28.2326483 88.8123675,27.6076995 87.7269485,26.7216828 C86.5776815,25.7723793 85.6758396,24.6174106 85.0213958,23.2567422 C84.335028,24.5066585 83.441167,25.5666983 82.339786,26.4368932 C81.1426328,27.370375 79.8417459,28.1298065 78.4370861,28.7152104 L78.0779419,27.9795038 C77.9821697,28.2168297 77.8225516,28.4145983 77.599083,28.5728155 C77.3756144,28.6993893 77.1441683,28.7626753 76.9047376,28.7626753 L75.6118186,28.7626753 L75.6118186,25.1553398 C73.6484874,25.5350612 71.6931665,25.8752232 69.7457972,26.175836 L69.4824249,24.1111111 L70.7753439,23.9687163 L70.7753439,10.6548004 L69.8894549,10.6548004 L69.8894549,8.73247033 L79.2511462,8.73247033 L79.2511462,10.6548004 L78.1737137,10.6548004 L78.1737137,22.9007551 L79.6342333,22.6634304 L79.6581763,24.1111111 C79.1633529,24.3009718 78.668537,24.4591867 78.1737137,24.5857605 L78.1737137,27.3149946 C79.4985633,26.5080866 80.6398322,25.4955113 81.5975548,24.2772384 C82.5712394,22.9482134 83.1777879,21.4609935 83.4172185,19.815534 L78.9398879,19.815534 L78.9398879,17.7745415 L83.5608762,17.7745415 L83.5608762,14.0485437 L79.4905756,14.0485437 L79.4905756,12.0312837 L85.0932247,12.0312837 C86.0509472,10.4807546 86.9527891,8.89069495 87.7987774,7.26105717 L90.2649007,8.11542611 C89.8179635,8.90651241 89.3311285,9.65803312 88.804381,10.3700108 C88.3414818,10.9712364 87.8227232,11.5249885 87.2480897,12.0312837 L90.8634743,12.0312837 L90.8634743,14.0485437 Z M83.6087621,11.9363538 C82.7308497,11.5882759 81.9886259,11.058256 81.3820683,10.3462783 C81.1585997,10.077309 80.9590771,9.78461143 80.7834947,9.46817691 C80.4482918,8.89859478 80.1450175,8.3131997 79.8736628,7.71197411 L82.0045848,7.18985976 C82.7867249,8.56634992 83.592796,9.92699795 84.4228222,11.2718447 L83.6087621,11.9363538 Z M73.1456954,23.6364617 L75.6118186,23.2804746 L75.6118186,20.2901834 L73.1456954,20.2901834 L73.1456954,23.6364617 Z M73.1456954,10.6548004 L73.1456954,13.6688242 L75.6118186,13.6688242 L75.6118186,10.6548004 L73.1456954,10.6548004 Z M73.1456954,15.5199569 L73.1456954,18.4390507 L75.6118186,18.4390507 L75.6118186,15.5199569 L73.1456954,15.5199569 Z M105.229241,18.9137001 C104.479025,18.7871263 103.760744,18.5814469 103.074376,18.2966559 C102.16454,17.9011127 101.294621,17.4264681 100.464595,16.8727077 C100.081506,17.3790029 99.6265946,17.8061831 99.0998472,18.1542611 C98.5571377,18.5181608 97.9825128,18.818769 97.3759552,19.0560949 L112.843097,19.0560949 L112.843097,26.579288 C112.827135,27.0855833 112.60367,27.4890312 112.172695,27.789644 C111.869416,27.963683 111.55018,28.0823442 111.214977,28.1456311 C110.76804,28.2405614 110.313128,28.2880259 109.850229,28.2880259 L96.6576668,28.2880259 L96.6576668,19.3408846 C95.8436027,19.6256756 95.0295507,19.8709087 94.2154865,20.0765912 L93.8084564,18.8425027 C94.4629002,18.5893551 95.1013723,18.2887468 95.723892,17.9406688 C96.2506394,17.6558778 96.7294935,17.3157157 97.1604687,16.9201726 C97.8468365,16.2873036 98.3416524,15.5357828 98.6449312,14.6655879 L94.1436577,14.6655879 L94.1436577,12.9805825 L98.9561895,12.9805825 C98.9721515,12.9014739 98.9801325,12.806545 98.9801325,12.6957929 C98.9960945,12.1262107 99.0040754,11.5487264 99.0040754,10.9633225 L97.5196128,10.9633225 C96.8013209,11.7544088 95.9633262,12.3872684 95.0056037,12.8619202 L94.2873153,12.0787487 C94.8140627,11.4617013 95.276955,10.7971988 95.6760061,10.0852211 C96.2187156,9.10427413 96.6895888,8.09169886 97.0886398,7.04746494 L99.602649,7.33225458 C99.3472563,8.02841053 99.0439821,8.68500231 98.6928171,9.30204962 L104.917983,9.30204962 L104.917983,10.9633225 L101.661742,10.9633225 C101.629818,11.517083 101.613856,12.0708351 101.613856,12.6245955 C101.597894,12.7511693 101.589913,12.8698304 101.589913,12.9805825 L105.157412,12.9805825 L105.157412,14.6655879 L101.39837,14.6655879 L101.302598,15.0927724 L102.691289,15.9471413 C103.696898,16.5800104 104.726434,17.1733162 105.779929,17.7270766 L105.229241,18.9137001 Z M105.947529,9.11218986 L114.710647,9.11218986 L114.710647,15.7098166 C114.710647,16.263577 114.511124,16.7144894 114.112073,17.0625674 C113.856681,17.2366064 113.569368,17.3631783 113.250127,17.4422869 C112.851076,17.5372173 112.452031,17.576771 112.05298,17.5609493 L105.947529,17.5609493 L105.947529,9.11218986 Z M99.6505349,26.5555556 L109.850229,26.5555556 L109.850229,24.3484358 L99.6505349,24.3484358 L99.6505349,26.5555556 Z M99.6505349,20.7648328 L99.6505349,22.6634304 L109.850229,22.6634304 L109.850229,20.7648328 L99.6505349,20.7648328 Z M108.533367,10.9633225 L108.533367,15.7098166 L112.05298,15.7098166 L112.05298,10.9633225 L108.533367,10.9633225 Z M119.618951,21.6666667 L134.846663,21.6666667 L134.846663,20.6936354 L120.433011,20.6936354 L120.433011,19.3408846 L134.846663,19.3408846 L134.846663,18.3678533 L119.954152,18.3678533 L119.954152,17.0151025 L137.528273,17.0151025 L137.528273,21.6666667 C137.512311,22.109675 137.312788,22.4340155 136.929699,22.639698 C136.658345,22.7820935 136.371032,22.8770224 136.067753,22.9244876 C135.65274,23.0035962 135.245714,23.0352392 134.846663,23.0194175 L129.339786,23.0194175 C130.090002,23.8896124 130.86415,24.736062 131.662252,25.5587918 L130.967906,26.3182309 C130.265576,26.1600136 129.611142,25.8910483 129.004585,25.5113269 C128.398027,25.099962 127.863307,24.6094958 127.400408,24.0399137 C127.336559,23.9766268 127.280693,23.9054301 127.232807,23.8263215 L128.501783,23.0194175 L119.618951,23.0194175 L119.618951,21.6666667 Z M129.028528,9.1596548 L132.308711,9.1596548 L132.308711,7.66450917 L134.870606,7.66450917 L134.870606,9.1596548 L138.701477,9.1596548 L138.701477,10.5361381 L134.870606,10.5361381 L134.870606,11.7227616 L138.270504,11.7227616 L138.270504,13.004315 L134.870606,13.004315 L134.870606,14.167206 L139.180336,14.167206 L139.180336,15.5436893 L134.870606,15.5436893 L134.870606,16.4217907 L132.308711,16.4217907 L132.308711,15.5436893 L128.980642,15.5436893 L128.980642,14.167206 L132.308711,14.167206 L132.308711,13.004315 L129.244014,13.004315 L129.244014,11.7227616 L132.308711,11.7227616 L132.308711,10.5361381 L129.028528,10.5361381 L129.028528,9.1596548 Z M118.733062,9.1596548 L122.611819,9.1596548 L122.611819,7.68824164 L125.2216,7.68824164 L125.2216,9.1596548 L128.286296,9.1596548 L128.286296,10.5361381 L125.2216,10.5361381 L125.2216,11.7227616 L128.094753,11.7227616 L128.094753,13.004315 L125.2216,13.004315 L125.2216,14.167206 L128.358125,14.167206 L128.358125,15.5436893 L125.2216,15.5436893 L125.2216,16.4217907 L122.611819,16.4217907 L122.611819,15.5436893 L118.23026,15.5436893 L118.23026,14.167206 L122.611819,14.167206 L122.611819,13.004315 L119.211921,13.004315 L119.211921,11.7227616 L122.611819,11.7227616 L122.611819,10.5361381 L118.733062,10.5361381 L118.733062,9.1596548 Z M123.186449,23.6601942 L125.868059,23.6601942 L125.868059,25.819849 C125.852097,26.0413531 125.87604,26.2470325 125.939888,26.4368932 C126.003736,26.6109322 126.107488,26.7454148 126.251146,26.8403452 C126.378843,26.9194538 126.514518,26.974829 126.658176,27.0064725 C126.929531,27.0539377 127.208863,27.0776699 127.496179,27.0776699 L130.896077,27.0776699 C131.215318,27.0776699 131.534554,27.0618484 131.853795,27.030205 C132.093226,27.0143832 132.324672,26.959008 132.548141,26.8640777 C132.963154,26.6425735 133.266428,26.318233 133.457972,25.8910464 L134.726949,25.8910464 C134.567328,26.318233 134.383767,26.7454132 134.176261,27.1725998 C134.000678,27.504856 133.769232,27.7896428 133.481915,28.0269687 C133.162675,28.2642946 132.811515,28.4145987 132.428426,28.4778857 C132.029375,28.5569943 131.638311,28.596548 131.255222,28.596548 L126.155374,28.596548 C125.644589,28.596548 125.133811,28.5490835 124.623026,28.4541532 C124.287823,28.3908663 123.984549,28.2484729 123.713194,28.0269687 C123.537612,27.837108 123.409917,27.6314287 123.330107,27.4099245 C123.218373,26.9985596 123.170487,26.5792902 123.186449,26.1521036 L123.186449,23.6601942 Z M117.703515,27.6472492 C118.75701,26.4289763 119.666833,25.0999712 120.433011,23.6601942 L123.018849,24.1348436 C122.476139,25.1316123 121.821705,26.0255264 121.055527,26.8166127 C120.305311,27.5602339 119.427412,28.0981645 118.421803,28.4304207 L117.703515,27.6472492 Z M134.224147,24.3721683 L136.139582,23.3279396 C136.794026,24.1032042 137.440479,24.8863679 138.078961,25.6774542 C138.525898,26.2153928 138.980809,26.7533235 139.443709,27.2912621 L138.72542,28.0981661 C137.895394,27.7659099 137.137208,27.3229082 136.450841,26.7691478 C135.700625,26.1362787 135.030229,25.4322225 134.439633,24.6569579 C134.359823,24.5620276 134.287995,24.4670986 134.224147,24.3721683 Z M163.219052,27.3149946 C161.974013,26.8719863 160.768897,26.3577879 159.603668,25.772384 C158.29478,25.0920498 157.081683,24.2535109 155.96434,23.2567422 C154.958732,22.3232603 154.096794,21.2790421 153.378502,20.1240561 C152.612324,18.858318 151.989814,17.5372237 151.510953,16.1607335 C150.904395,17.1100371 150.218037,17.9960405 149.451859,18.8187702 L149.451859,25.6062567 L154.288334,23.7551241 L154.647478,25.2028047 C152.109514,26.5001863 149.555625,27.7659054 146.985736,29 L145.668874,27.030205 C145.956191,26.8719877 146.195618,26.6663083 146.387163,26.4131607 C146.546783,26.1441914 146.618611,25.8435831 146.602649,25.5113269 L146.602649,21.3344121 C144.942597,22.552685 143.186798,23.5889925 141.335201,24.4433657 L140.808456,23.0194175 C142.117344,22.2283312 143.370346,21.3502386 144.567499,20.3851133 C145.333677,19.7364225 146.059939,19.040277 146.746307,18.2966559 C148.406359,16.4613357 149.595513,14.3649884 150.313805,12.0075512 L145.549159,12.0075512 L145.549159,13.9536138 C145.549159,14.3175135 145.437427,14.641854 145.213958,14.9266451 C144.926641,15.2114362 144.575482,15.3459188 144.160469,15.3300971 L142.747835,15.3300971 L142.747835,10.0377562 L150.816607,10.0377562 C150.976228,9.10427437 151.095941,8.16289579 151.175751,7.21359223 L154.408049,7.30852211 C154.280353,8.22618222 154.120735,9.13591782 153.92919,10.0377562 L162.357106,10.0377562 L162.357106,13.5026969 C162.357106,13.9140617 162.21345,14.2621345 161.926133,14.5469256 C161.654779,14.7684297 161.343524,14.8712694 160.992359,14.8554477 L159.603668,14.8554477 L159.603668,12.0075512 L153.402445,12.0075512 L153.11513,12.8144552 C153.578029,14.8712796 154.328234,16.809412 155.365767,18.6289105 C156.754464,17.5055679 158.103237,16.3110455 159.412124,15.0453074 L161.32756,16.8964401 L160.369842,17.6558792 C159.65155,18.2254613 158.917307,18.7633919 158.167091,19.2696872 C157.592458,19.6335869 157.001871,19.9500166 156.395313,20.218986 C157.241302,21.3581502 158.222952,22.3707255 159.340295,23.2567422 C160.744955,24.3326195 162.261327,25.2265337 163.889455,25.9385113 L163.219052,27.3149946 Z M171.790627,21.9514563 C170.625397,20.7964703 169.619804,19.5149297 168.773816,18.1067961 C167.672435,16.2872976 166.754631,14.3808082 166.020377,12.3872708 L168.72593,11.5091694 C169.955007,14.1513976 171.144161,16.801497 172.293428,19.4595469 L172.293428,7.6407767 L175.358125,7.6407767 L175.358125,25.5113269 L177.824249,25.5113269 L177.824249,7.6407767 L180.888945,7.6407767 L180.888945,19.6968716 C182.165909,17.0546434 183.347082,14.3570796 184.432501,11.6040992 L187.449312,12.0312837 C187.27373,12.4584703 187.09815,12.8777398 186.922567,13.2891046 C186.443706,14.5231993 185.908986,15.7335431 185.31839,16.9201726 C184.919339,17.6796154 184.496351,18.4153147 184.049414,19.1272923 C183.586515,19.8076266 183.075737,20.4563076 182.517066,21.0733549 C182.149939,21.4372546 181.766855,21.7774166 181.367804,22.0938511 L180.888945,21.7615965 L180.888945,25.5113269 L187.305655,25.5113269 L187.305655,27.6709817 L165.852776,27.6709817 L165.852776,25.5113269 L172.293428,25.5113269 L172.293428,21.6429342 L171.790627,21.9514563 Z M198.989812,28.6677454 L198.989812,21.3344121 L189.723892,21.3344121 L189.723892,19.2222222 L198.989812,19.2222222 L198.989812,10.583603 L190.705553,10.583603 L190.705553,8.5188781 L210.290881,8.5188781 L210.290881,10.583603 L201.98268,10.583603 L201.98268,19.2222222 L211.248599,19.2222222 L211.248599,21.3344121 L201.98268,21.3344121 L201.98268,27.1725998 C201.98268,27.5523212 201.854985,27.8924832 201.599592,28.193096 C201.296314,28.5095305 200.929192,28.6677454 200.498217,28.6677454 L198.989812,28.6677454 Z M196.882832,18.201726 C195.749527,17.568857 194.71201,16.793604 193.77025,15.8759439 C192.844451,14.9582838 192.03838,13.9457085 191.352012,12.8381877 L193.578706,11.6752967 C194.93548,13.5739038 196.308195,15.4645717 197.696893,17.3473571 L196.882832,18.201726 Z M209.620479,12.8144552 C208.854301,14.0485499 207.936497,15.1639648 206.86704,16.1607335 C206.00509,16.9834633 205.055363,17.6637873 204.01783,18.201726 L203.251656,17.3473571 C204.688239,15.5120369 206.044993,13.6134582 207.321956,11.6515642 L209.620479,12.8144552 Z M215.917473,18.9137001 L232.916964,18.9137001 L232.916964,26.175836 C232.916964,26.8561702 232.637632,27.3782794 232.078961,27.7421791 C231.743758,27.9320398 231.392598,28.0586117 231.025471,28.1218986 C230.674306,28.1851855 230.323147,28.2168285 229.971982,28.2168285 L215.917473,28.2168285 L215.917473,18.9137001 Z M234.257769,17.3473571 C233.25216,16.8568836 232.310414,16.2714885 231.432501,15.5911543 C225.893672,16.0341626 220.362908,16.4771643 214.840041,16.9201726 L214.073867,14.5943905 C214.472918,14.5469253 214.871963,14.4599071 215.271014,14.3333333 C215.606217,14.2067595 215.909491,14.0169017 216.180846,13.763754 C217.346075,12.7353419 218.447439,11.6515699 219.484972,10.5124056 C220.538467,9.42070652 221.504156,8.24991635 222.382068,7 L224.991849,8.13915858 C223.842582,9.64222255 222.565638,11.0107813 221.160978,12.2448759 C220.139407,13.1467143 219.0141,13.8824135 217.785023,14.4519957 L229.612837,14.0485437 C228.495494,12.9726663 227.402111,11.8730729 226.332654,10.7497303 L228.367804,9.46817691 C229.485147,10.6389846 230.594493,11.8176855 231.695874,13.004315 C232.781293,14.1751227 233.882657,15.3221806 235,16.4455232 L234.257769,17.3473571 Z M218.862455,20.9546926 L218.862455,26.175836 L229.971982,26.175836 L229.971982,20.9546926 L218.862455,20.9546926 Z" id="中联智慧农业平台" opacity="0.85"></path>
            </g>
        </g>
    </g>
</svg>