<?xml version="1.0" standalone="no"?><!DOCTYPE svg PUBLIC "-//W3C//DTD SVG 1.1//EN" "http://www.w3.org/Graphics/SVG/1.1/DTD/svg11.dtd"><svg t="1608097893453" class="icon" viewBox="0 0 1024 1024" version="1.1" xmlns="http://www.w3.org/2000/svg" p-id="1453" width="32" height="32" xmlns:xlink="http://www.w3.org/1999/xlink"><defs><style type="text/css"></style></defs><path d="M708.54883555 116.25472001h92.8722489c34.19022222 0 61.88373333 27.82549333 61.88373333 62.14883556h-0.03413333v315.48757333a273.64010667 273.64010667 0 0 1 61.98385777 39.76305778V178.36942223c0-68.64782222-55.45073778-124.26581333-123.86531555-124.26581333h-92.87452445l-433.51153777 0.03413333h-92.87452445c-68.41457778 0-123.86531555 55.58385778-123.86531555 124.26467556v621.56003556c0 68.64782222 55.45073778 124.29767111 123.86531555 124.29767111h362.23203555a273.88586667 273.88586667 0 0 1-41.89525333-62.14769778H182.12864c-34.22435555 0-61.91672889-27.79363555-61.91672889-62.14997333V178.40355557c0-34.32334222 27.69351111-62.14883555 61.91672889-62.14883556h526.42019555z" fill="#333333" p-id="1454"></path><path d="M244.07836445 706.65557335c0 17.19637333 13.79555555 31.12391111 30.9248 31.12391111h199.74826666c0.32085333-21.41411555 3.09816889-42.23089778 8.07139556-62.18069333H275.00316445c-17.12924445 0-30.9248 13.86040889-30.9248 31.05678222zM708.51470222 364.85120001H275.00316445c-17.12924445 0-30.9248 13.86382222-30.9248 31.09205334 0 17.16110222 13.79555555 31.05792 30.9248 31.05792h433.51153777c17.09738667 0 30.95893333-13.89681778 30.95893333-31.05792 0-17.22823111-13.86154667-31.09205333-30.95893333-31.09205334zM529.53543111 226.46897779h-254.53226666c-17.12924445 0-30.9248 13.86382222-30.9248 31.09205334 0 17.16110222 13.79555555 31.05792 30.9248 31.05792h254.53226666c17.09624889 0 30.95779555-13.89681778 30.95779556-31.05792 0-17.22823111-13.86154667-31.09205333-30.95893334-31.09205334zM244.07836445 551.29884446c0 17.19296 13.79555555 31.05564445 30.9248 31.05564444h251.09845333a274.98951111 274.98951111 0 0 1 62.08853333-62.18410667H275.00316445c-17.12924445 0.00227555-30.9248 13.93322667-30.9248 31.12846223z m658.64021333 40.18858667c-85.35722667-83.04412445-223.80885333-83.04412445-309.16608 0-85.35608889 83.08849778-85.35608889 217.76042667 0 300.89898666 85.35836445 83.08849778 223.80999111 83.08849778 309.16608 0 85.35608889-83.13742222 85.35608889-217.81048889 0-300.89898666z m-44.35512889 41.99424c53.6576 52.19669333 60.27377778 132.82872889 19.83943111 192.06485333L660.95786667 614.16334223c60.93596445-39.34776889 143.78894222-32.92387555 197.40444444 19.31946667zM636.67996445 849.2600889c-53.65987555-52.28999111-60.22712889-132.92430222-19.83943112-192.15928889L834.03662222 868.57955557c-60.84152889 39.25560889-143.69450667 32.87836445-197.35552-19.31946667z" fill="#ffffff" p-id="1455"></path></svg>