<?xml version="1.0" standalone="no"?><!DOCTYPE svg PUBLIC "-//W3C//DTD SVG 1.1//EN" "http://www.w3.org/Graphics/SVG/1.1/DTD/svg11.dtd"><svg t="1608097679563" class="icon" viewBox="0 0 1024 1024" version="1.1" xmlns="http://www.w3.org/2000/svg" p-id="895" width="32" height="32" xmlns:xlink="http://www.w3.org/1999/xlink"><defs><style type="text/css"></style></defs><path d="M295.08750638 419.0372183l433.8210143 0c17.0966951 0 30.98891863-13.8750023 30.98891865-30.98626871 0-17.12848766-13.89089923-31.00348996-30.98891865-31.00348996L295.08750638 357.04745963c-17.12716335 0-30.98759434 13.8750023-30.98759433 31.00348996C264.09991205 405.16354032 277.96034303 419.0372183 295.08750638 419.0372183zM419.0365568 202.11213919l185.92291346 0c51.32452649 0 92.9614561-41.59321433 92.9614561-92.94688477 0-51.35234611-41.63692959-92.9614561-92.9614561-92.96145608l-185.92291346 0c-51.32187787 0-92.9614561 41.60911126-92.9614561 92.96145608C326.07509942 160.51892484 367.71467893 202.11213919 419.0365568 202.11213919zM419.0365568 78.1789857l185.92291346 0c17.0966951 0 30.98891863 13.85910538 30.98891865 30.98626872 0 17.11126643-13.89089923 30.98891863-30.98891865 30.98891865l-185.92291346 0c-17.12716335 0-30.98759434-13.87632661-30.98759434-30.98891865C388.04896246 92.03941667 401.90939344 78.1789857 419.0365568 78.1789857zM759.89743804 573.95929173c0-17.11126643-13.89089923-30.9716974-30.98891865-30.97169739L295.08750638 542.98759434c-17.12716335 0-30.98759434 13.86043098-30.98759433 30.97169739 0 17.12716335 13.85910538 30.98759434 30.98759433 30.98759432l433.8210143 0C746.0052145 604.94556045 759.89743804 591.08512948 759.89743804 573.95929173zM852.8575711 78.1789857l-92.96145609 0 0 61.97518737 92.96145609 0c17.12716335 0 30.98759434 13.85910538 30.98759433 30.98626871l0 743.69165389c0 17.11391634-13.86043098 30.98891863-30.98759433 30.98891863L171.13845467 945.8210143c-17.12848766 0-30.98626873-13.8750023-30.98626872-30.98891863l0-743.69165389c0-17.12716335 13.85778106-30.98626873 30.98626872-30.98626871l92.96145609 0 0-61.97518737-92.96145609 0c-51.32320219 0-92.9614561 41.62368258-92.96145609 92.96145608l0 743.69165389c0 51.35499474 41.63825391 92.96543031 92.96145609 92.96543031l681.71911513 0c51.32055226 0 92.9614561-41.61043557 92.9614561-92.96543031l0-743.69165389C945.81902719 119.80266828 904.17944767 78.1789857 852.8575711 78.1789857zM295.08750638 728.90918219c-17.12716335 0-30.98759434 13.86043098-30.98759433 30.98891865 0 17.11391634 13.85910538 30.9716974 30.98759433 30.9716974l247.89942515 0c17.12716335 0 30.98626873-13.85778106 30.98626872-30.9716974 0-17.12848766-13.85910538-30.98891863-30.98626872-30.98891865L295.08750638 728.90918219z" fill="#ffffff" p-id="896"></path></svg>