<?xml version="1.0" standalone="no"?><!DOCTYPE svg PUBLIC "-//W3C//DTD SVG 1.1//EN" "http://www.w3.org/Graphics/SVG/1.1/DTD/svg11.dtd"><svg t="1608097992010" class="icon" viewBox="0 0 1024 1024" version="1.1" xmlns="http://www.w3.org/2000/svg" p-id="1830" width="32" height="32" xmlns:xlink="http://www.w3.org/1999/xlink"><defs><style type="text/css"></style></defs><path d="M921.6 34.13333333v445.98613334h-68.33493333L853.33333333 102.4H170.66666667v819.2h272.9984L443.73333333 989.86666667H102.4V34.13333333h819.2z m-147.72906667 416.9728a36.4544 36.4544 0 1 1 5.9392 70.0416l-13.65333333 77.824c31.60746667 10.37653333 57.00266667 32.768 71.8848 61.2352l75.02506667-27.30666666a36.4544 36.4544 0 0 1 69.97333333-6.28053334 36.4544 36.4544 0 1 1-57.68533333 40.1408l-75.22986667 27.37493334a128.2048 128.2048 0 0 1-16.31573333 92.50133333l61.44 51.4048a36.4544 36.4544 0 0 1 40.41386666 57.48053333 36.4544 36.4544 0 1 1-63.62453333-29.9008l-61.16693333-51.2a125.81546667 125.81546667 0 0 1-88.61013334 32.9728l-13.65333333 77.75573334a36.4544 36.4544 0 0 1-29.55946667 63.76106666 36.4544 36.4544 0 1 1-11.60533333-67.3792l5.59786667-2.6624 13.78986666-77.824a125.81546667 125.81546667 0 0 1-72.02133333-61.2352l-74.9568 27.30666667a36.4544 36.4544 0 0 1-69.97333333 6.28053333 36.4544 36.4544 0 1 1 52.56533333-43.69066666l5.05173333 3.4816 75.29813334-27.30666667a128.2048 128.2048 0 0 1 16.31573333-92.50133333l-61.37173333-51.4048a36.4544 36.4544 0 0 1-40.48213334-57.48053334 36.4544 36.4544 0 1 1 64.17066667 23.62026667l-0.54613333 6.144 61.16693333 51.33653333a125.81546667 125.81546667 0 0 1 88.54186667-32.9728l13.65333333-77.824a36.4544 36.4544 0 0 1 29.62773333-63.6928zM409.6 648.53333333v68.26666667h-136.53333333v-68.26666667h136.53333333z m68.26666667-204.8v68.26666667h-204.8V443.73333333h204.8z m273.06666666-204.8v68.26666667h-477.86666666V238.93333333h477.86666666z" fill="#ffffff" p-id="1831"></path></svg>