<?xml version="1.0" standalone="no"?><!DOCTYPE svg PUBLIC "-//W3C//DTD SVG 1.1//EN" "http://www.w3.org/Graphics/SVG/1.1/DTD/svg11.dtd"><svg t="1608097925354" class="icon" viewBox="0 0 1024 1024" version="1.1" xmlns="http://www.w3.org/2000/svg" p-id="1640" width="32" height="32" xmlns:xlink="http://www.w3.org/1999/xlink"><defs><style type="text/css"></style></defs><path d="M738.61407781 991.98666781a253.31926031 253.31926031 0 1 1 0-506.63852062 253.31926031 253.31926031 0 0 1 0 506.63852062z m0-453.30814968A199.96222406 199.96222406 0 0 0 538.65185281 738.6674075a199.98888938 199.98888938 0 1 0 399.95111438 0c0-110.47386281-89.51502656-199.98888938-199.98888938-199.98888938z m117.78012281 301.07660625h-18.98561156c-10.47941813 0-18.98561156-6.1063275-18.98561249-13.65257439v-81.88878374c0-7.57291219 8.50619437-13.67923969 18.98561249-13.67924062h18.98561157c10.47941813 0 18.98561156 6.1063275 18.98561156 13.67924062v81.88878374c0 7.54624781-8.50619437 13.65257531-18.98561156 13.65257439z m-94.95472499 0h-18.95894625c-10.50608343 0-19.01227689-6.1063275-19.01227688-13.65257439v-191.10938249c0-7.57291219 8.50619437-13.67923969 19.01227688-13.67924062h18.95894625c10.50608343 0 19.01227689 6.1063275 19.01227781 13.67924062v191.10938249c0 7.54624781-8.50619437 13.65257531-19.01227781 13.65257439z m-94.92805969 0h-18.95894625c-10.50608343 0-19.01227689-6.1063275-19.01227688-13.65257439v-129.69946124c0-7.5195825 8.50619437-13.65257531 19.01227688-13.65257531h18.95894625c10.47941813 0 19.01227689 6.13299281 19.01227781 13.65257531v129.69946124c0 7.54624781-8.53285969 13.65257531-19.01227781 13.65257439z m-94.7414025-351.23382l0.26665125 0.05333062a329.68835062 329.68835062 0 0 0-63.62313188 44.82417656 644.63085375 644.63085375 0 0 0-67.59624468-3.62646562c-224.86750781 0-341.34103687 103.35425813-354.27365158 233.64035344l-1.25326311 157.43125406h382.218765a26.69185031 26.69185031 0 0 1 0 53.35703531H31.9600025l1.43992031-213.32148187c11.99933344-129.69946125 94.26142969-237.37347937 276.49130625-272.3582025-60.44997469-42.90428345-100.15443562-116.47352906-100.15443656-207.6417975 0-147.24515344 103.46091844-248.86617375 231.08049563-248.86617469 127.64624156 0 231.10716094 101.62102125 231.10716093 248.86617469 0 91.16826844-39.67779563 164.737515-100.15443562 207.6417975z m-130.95272532-403.17760125c-98.15454656 0-177.75012469 77.75568-177.75012469 195.53580375 0 117.83345344 79.59557813 195.56246906 177.7501247 195.56246812 98.18121188 0 177.77679001-77.72901469 177.77679-195.56246812 0-117.78012375-79.59557813-195.53580375-177.77679001-195.53580375z" fill="#ffffff" p-id="1641"></path></svg>