<?xml version="1.0" standalone="no"?><!DOCTYPE svg PUBLIC "-//W3C//DTD SVG 1.1//EN" "http://www.w3.org/Graphics/SVG/1.1/DTD/svg11.dtd"><svg t="1608097768877" class="icon" viewBox="0 0 1040 1024" version="1.1" xmlns="http://www.w3.org/2000/svg" p-id="1081" width="32.5" height="32" xmlns:xlink="http://www.w3.org/1999/xlink"><defs><style type="text/css"></style></defs><path d="M496.85 452a13746.315 13746.315 0 0 1-139.2 80.04 112.725 112.725 0 0 1-58.275 19.245c-13.095 2.28-24.9 3.6-37.35 4.275-10.245 0.555-17.97 0.66-37.695 0.66-0.255 0-0.81 0.03-3.975 0.3-12 0.96-20.145 0.75-30.405-2.205a59.745 59.745 0 0 1-27.39-16.62l-63.39-63.24A50.13 50.13 0 0 0 92 500.66v382.68C92 910.91 112.805 932 139.58 932H186.05a30 30 0 0 1 54.21-1.47l0.75 1.47h643.425C911.195 932 932 910.91 932 883.34V500.66C932 473.09 911.195 452 884.42 452H496.85zM56.15 431.57l-7.185-7.17C38.81 413.39 32 396.17 32 379.625c0-15.42 5.925-31.44 14.955-42.45 18.24-27.03 56.355-39.45 86.97-23.55 7.77 3.57 17.73 7.455 31.935 12.57 4.5 1.62 33.15 11.685 41.79 14.82 17.07 6.195 31.035 11.685 43.5 17.28l62.595-30.84L157.4 240.68c-34.05-14.085-44.94-54.96-12.48-83.13 5.625-6.075 8.535-9.135 12.48-13.005 6.345-6.225 12.72-11.79 19.8-17.085 7.92-8.46 13.08-13.17 20.94-18.135 13.65-8.625 28.995-12.15 45.165-8.46 45.045 5.64 87.15 11.535 158.73 21.96l15.99 2.34c85.245 12.435 124.425 17.955 171.15 23.835 2.4-1.095 5.49-2.58 9.18-4.38 10.11-4.95 24.09-12.075 40.41-20.625 37.23-19.5 81.93-43.875 125.37-68.55C795.05 38.72 822.275 32 855.605 32c44.25 0 74.835 12.57 115.56 39.06l3.15 2.04 2.55 2.76c29.49 31.95 14.79 82.38-29.175 109.605l-7.8 4.65a37580.73 37580.73 0 0 1-100.725 60.105A48073.845 48073.845 0 0 1 599.48 392h284.94C944.525 392 992 440.135 992 500.66v382.68C992 943.865 944.525 992 884.42 992H139.58C79.475 992 32 943.865 32 883.34V500.66c0-26.37 9-50.4 24.15-69.09z m532.62 68.775A125.355 125.355 0 0 1 654.14 482c63.645 0 116.745 46.905 126.315 108.24l0.51-0.645a30 30 0 0 1 42.18-4.635c4.47 3.6 8.46 7.065 11.85 10.335 13.83 13.335 25.5 28.53 34.275 44.79a30 30 0 0 1-52.8 28.485 124.095 124.095 0 0 0-23.085-30.06 118.92 118.92 0 0 0-7.8-6.75 30.06 30.06 0 0 1-5.25-5.415c-1.08 5.355-2.73 11.34-5.1 18.975-4.725 13.2-11.805 27.285-20.925 42.27a481.98 481.98 0 0 1-27.3 39.69 750.615 750.615 0 0 1-51.225 60.495l-21.84 22.77-21.645-22.98a749.67 749.67 0 0 1-16.005-17.88 770.31 770.31 0 0 1-34.755-43.02 498.27 498.27 0 0 1-26.175-38.325C537.29 658.7 527 633.065 527 610.13c0-17.82 3.66-34.845 10.275-50.325-4.44 0.315-8.88 0.705-13.35 1.17a30 30 0 1 1-6.27-59.67 437.46 437.46 0 0 1 64.365-2.025c2.34 0.105 4.59 0.465 6.75 1.05z m-199.08 98.85a30 30 0 1 1-25.38-54.375 515.43 515.43 0 0 1 59.28-23.4 30 30 0 1 1 18.48 57.09c-17.4 5.625-34.875 12.51-52.38 20.67zM822.5 734.39a30 30 0 0 1 57.9 15.69 224.235 224.235 0 0 1-28.335 63.3 30 30 0 0 1-50.25-32.775 164.25 164.25 0 0 0 20.685-46.215z m-74.4 92.025a30 30 0 0 1 21.03 56.205c-5.1 1.905-10.32 3.54-15.63 4.875l-2.01 0.435c-17.595 3.18-34.23 5.25-50.34 6.27a30 30 0 1 1-3.81-59.88c13.44-0.855 27.45-2.58 42.42-5.25 2.82-0.75 5.61-1.62 8.355-2.655z m-131.535 1.575a30 30 0 0 1-13.815 58.38c-20.67-4.89-40.695-11.775-61.83-20.925a30 30 0 1 1 23.835-55.05c18.075 7.8 34.8 13.56 51.81 17.595z m-130.65-57.09a30 30 0 1 1-27.555 53.295 796.8 796.8 0 0 0-52.2-25.035 30 30 0 1 1 23.73-55.11 853.35 853.35 0 0 1 56.01 26.85z m-244.35-20.4a30 30 0 0 1 24.66-34.53l3.345-0.45c20.325-1.725 42.555-0.555 66.075 2.94a30 30 0 0 1-8.85 59.355c-19.23-2.865-36.93-3.795-50.715-2.655a30 30 0 0 1-34.5-24.66z m-66.84 34.83A30 30 0 1 1 228.5 812c-6.27 12.645-9.495 27.705-9.075 44.7a30 30 0 1 1-59.985 1.455c-0.645-26.58 4.635-51.3 15.3-72.81z m504.42-94.275a423.39 423.39 0 0 0 23.91-34.71c7.17-11.76 12.495-22.35 15.255-29.955 2.76-9.03 3.675-13.23 3.675-16.275C722 572.525 691.4 542 654.14 542 617.36 542 587 572.75 587 610.13c0 9.045 6.81 26.01 19.59 46.95 6.465 10.62 14.25 21.93 23.01 33.675a689.82 689.82 0 0 0 24.735 31.095 670.74 670.74 0 0 0 24.825-30.78z m-85.08-481.8h-6.375c-50.985-6.375-90.195-11.88-178.32-24.75l-15.99-2.325c-72.135-10.5-114.06-16.35-159.255-22.02l-3.375-0.6c-3.15 2.115-5.88 4.695-11.445 10.725l-2.04 2.22-2.43 1.755c-5.52 3.975-10.365 8.145-15.39 13.08-1.725 1.68-3.24 3.225-5.115 5.205l176.865 98.175 1.455 1.05c15.72 11.355 22.83 28.44 18.195 46.005-2.595 9.87-6.45 15.21-13.725 23.085l-3.78 4.095-110.475 54.42h-22.86l-6.15-2.97c-12.525-6.015-27.24-11.955-46.695-19.005-8.25-3-36.795-13.035-41.61-14.76-16.17-5.805-27.705-10.335-37.59-14.91-3.66-1.92-9.495 0.045-11.4 3.165l-1.53 2.49-1.98 2.13S92 378.245 92 379.625c0 1.35 1.035 3.975 0.255 3.24l113.55 113.235c2.175 0.975 4.5 1.035 9.72 0.6 5.505-0.45 6.15-0.48 8.805-0.48 18.6 0 25.665-0.09 34.455-0.57a252.6 252.6 0 0 0 32.355-3.84l2.655-0.48h2.685c8.475 0 20.055-3.6 27.525-8.97l2.79-1.8c59.955-33.9 138.105-79.17 230.1-133.125l11.055-6.495A47949.06 47949.06 0 0 0 887.12 151.775l21.975-13.14 7.38-4.41c8.835-5.475 13.71-11.475 15.165-16.485C903.59 99.47 883.43 92 855.605 92c-23.4 0-40.755 4.26-62.1 15.78-99.585 56.52-185.46 101.49-199.425 101.49z" fill="#ffffff" p-id="1082"></path></svg>