<?xml version="1.0" standalone="no"?><!DOCTYPE svg PUBLIC "-//W3C//DTD SVG 1.1//EN" "http://www.w3.org/Graphics/SVG/1.1/DTD/svg11.dtd"><svg t="1608097822135" class="icon" viewBox="0 0 1024 1024" version="1.1" xmlns="http://www.w3.org/2000/svg" p-id="1267" width="32" height="32" xmlns:xlink="http://www.w3.org/1999/xlink"><defs><style type="text/css"></style></defs><path d="M617.39235555 653.60668445c8.49464889 0 16.40675555-5.43744 19.61187556-14.07886223l85.24458667-224.71566222c2.67036445-6.50467555 1.60199111-14.07772445-2.08668445-20.04878222-3.73873778-5.43744-10.63139555-9.22396445-17.47626666-9.22396445H686.22791111c-8.44686222 0-16.40903111 5.97105778-19.56408889 14.07886222l-53.49717333 143.4988089-50.34097778-143.4988089c-3.15505778-8.10780445-11.11608889-14.07886222-20.09770666-14.07886222h-16.94151112c-6.89493333 0-13.78759111 3.25290667-17.47626666 9.22396445-4.27235555 5.97105778-4.80711111 13.54410667-2.67036445 20.04878222l80.48753778 224.71566222c3.20398222 8.64142222 11.16501333 14.07886222 20.14663111 14.07886223h11.11608889z m-165.78218666 0c12.18446222 0 21.21386667-9.22396445 21.21386666-21.65191112v-14.07772444c0-11.94211555-9.56302222-21.69969778-21.21386666-21.69969778h-66.70108444V407.19132445c0-11.89432889-9.56416-21.65191111-21.21500445-21.65191112h-15.33952c-11.65084445 0-21.21500445 9.75758222-21.21500445 21.65191112v224.76344888c0 11.89432889 9.56416 21.65191111 21.21500445 21.65191112h103.25560889z m-245.20248889-394.77020445v-0.53361778h75.73048889c56.11861333 0 125.00423111-34.12764445 159.95676444-79.03118222l48.73898667-62.28423111c5.29180445-7.03829333 12.1856-10.82481778 18.49571555-10.82481778 6.36017778 0 13.25283555 3.78652445 18.54464 10.82481778l48.73898667 62.28423111c34.95253333 44.90353778 103.79036445 79.03118222 159.95676445 79.03118222h77.86609778c8.98161778 0 15.87427555 3.25290667 20.09770666 8.10666667 4.27235555 5.43744 5.29180445 13.01048889 3.20398222 21.65191111l-17.47626666 77.47811555c-12.18446222 55.72949333 4.75818667 132.09144889 39.71072 177.04391112l48.73898666 62.28309333c5.29066667 7.03943111 7.91324445 14.61248 6.36017778 21.11715555-1.06951111 6.50581333-6.36017778 12.42794667-14.32120889 16.21447112l-69.90506667 34.66126222c-50.34211555 24.90368-97.96494222 86.1184-110.68302222 141.89795556l-17.47626666 77.4291911c-2.13674667 8.64142222-6.36017778 15.14609778-12.1856 17.8642489s-13.25283555 2.18453333-21.21386667-1.64977778l-69.90506667-34.61347556c-50.29319111-24.95146667-126.55729778-24.95146667-177.43303111 0l-69.90506667 34.61347556c-7.96103111 3.83431111-15.33952 4.36906667-21.16494222 1.64977778-5.82542222-2.71815111-10.09777778-9.22282667-12.1856-17.8642489l-17.47626666-77.4291911c-12.71808-55.77841778-59.85621333-116.99427555-110.68302222-141.89795556l-69.95285334-34.66126222c-7.91324445-4.32014222-12.67029333-9.70865778-14.27228444-16.21333334-1.60199111-5.97219555 1.06723555-13.54524445 6.35904-20.58353778l48.6912-62.2842311c35.48615111-44.95246222 52.47658667-121.26549333 39.75850666-177.04391112l-17.47626666-77.42919111c-2.13674667-8.69034667-1.06837333-16.79701333 3.15505778-21.65191111 3.7376-5.43630222 10.58247111-8.15559111 19.61187555-8.15559111z m132.91747555 738.61575111c15.92206222 0 32.33109333-3.78652445 49.27260445-11.40849778l69.90506667-34.61233778c28.05987555-14.12664889 79.95392-14.12664889 108.59633778 0l69.90506666 34.61233778c29.66072889 14.66026667 62.47765333 15.19502222 90.05056 1.64977778 27.52512-13.54296889 47.62282667-40.04977778 55.05024-73.10791111l17.47626667-77.43032889c6.89379555-31.40835555 39.22488889-72.57429333 67.81838222-86.65315556l69.90506667-34.66126222c30.19434667-14.61134222 50.82680889-40.58339555 57.71946666-70.92451555 6.89379555-30.29219555-1.06723555-62.81671111-21.69969778-89.32238223l-48.73898666-62.2842311c-19.61187555-25.43729778-31.26272-76.89557333-24.37006222-108.3039289l17.47626666-77.4291911c7.42741333-33.01148445 0.53475555-66.07075555-18.54350222-90.43968-19.07825778-24.37006222-49.22481778-38.44778667-82.09066666-38.44778667H739.19146667c-31.74855111 0-78.35192889-22.71914667-97.96380445-48.15758223l-48.74012444-62.28309333c-20.63132445-26.55459555-49.75843555-41.69955555-80.48753778-41.69955555s-59.85621333 15.14496-80.48753778 41.69955555l-48.74012444 62.28309333c-19.61187555 25.43843555-66.21525333 48.15758222-97.96380445 48.15758223h-77.86609778c-33.39946667 0-63.06019555 14.07772445-82.09066666 38.44778667-19.07825778 24.90368-25.97091555 57.42819555-18.54350222 90.43968l17.47626666 77.4291911c6.89265778 31.40835555-4.75818667 82.86663111-24.37006222 108.30506667l-48.73898666 62.28195556c-20.63246222 25.97205333-28.59349333 59.03132445-21.69969778 89.32352 6.89265778 30.34112 28.05873778 56.31317333 57.71946666 70.92451555l69.90506667 34.66126222c28.59349333 13.54410667 60.92458667 55.2448 67.81838222 86.65315556l17.47626667 77.43032889c7.37848889 33.05927111 27.52512 59.56494222 55.05024 73.10904889 13.25283555 6.50467555 27.57290667 9.75758222 42.37994666 9.75758222z" fill="#ffffff" p-id="1268"></path></svg>