<?xml version="1.0" encoding="UTF-8"?>
<svg width="158px" height="26px" viewBox="0 0 158 26" version="1.1" xmlns="http://www.w3.org/2000/svg" xmlns:xlink="http://www.w3.org/1999/xlink">
    <!-- Generator: Sketch 53.1 (72631) - https://sketchapp.com -->
    <title>中联logo</title>
    <desc>Created with Sketch.</desc>
    <g id="页面-1" stroke="none" stroke-width="1" fill="none" fill-rule="evenodd">
        <g id="01-01智慧土壤-土壤样本分析" transform="translate(-12.000000, -15.000000)" fill-rule="nonzero">
            <g id="左侧菜单">
                <g id="中联logo" transform="translate(12.000000, 15.000000)">
                    <path d="M22.7016393,5.82716578 C22.882623,6.13462685 22.7763934,6.53160191 22.4537705,6.71062988 L12.9363934,11.7740079 C12.4760656,12.0386579 11.9055738,12.0386579 11.4452459,11.7740079 L1.92786885,6.71062988 C1.61311475,6.53160191 1.50688525,6.13851877 1.68786885,5.82716578 L3.59213115,4.30542805 C3.77311475,3.99407506 4.1704918,3.88899342 4.4852459,4.06802139 L10.024918,6.91690124 C11.3665574,7.68360797 13.0229508,7.68360797 14.3645902,6.91690124 L19.9042623,4.06802139 C20.215082,3.88899342 20.6163934,3.99407506 20.797377,4.30542805 L22.7016393,5.82716578 Z M9.0452459,13.5759633 C10.0327869,14.2259126 10.6229508,15.31954 10.6229508,16.4871137 L10.6229508,18.6004221 C10.6229508,18.9000994 10.292459,19.0908031 10.0288525,18.9351266 L0.192786885,13.1712044 C0.0747540984,13.10115 0,12.9727169 0,12.8364999 L0,8.33744925 C0,8.02609626 0.350163934,7.84317638 0.609836066,8.01442052 L9.0452459,13.5759633 Z M8.25836066,20.5814055 C9.24590164,21.2313549 9.83606557,22.3249823 9.83606557,23.492556 L9.83606557,25.6058644 C9.83606557,25.9055416 9.50557377,26.0962453 9.24196721,25.9405688 L0.192786885,20.9550291 C0.0747540984,20.8849747 0,20.7565416 0,20.6203246 L0,16.121274 C0,15.809921 0.350163934,15.6270011 0.609836066,15.7982452 L8.25836066,20.5814055 Z M23.3901639,8.01442052 C23.6498361,7.83928447 24,8.02609626 24,8.34134116 L24,12.8403918 C24,12.9766088 23.9252459,13.1050419 23.8072131,13.1750963 L13.9711475,18.9390185 C13.707541,19.094695 13.3770492,18.9039913 13.3770492,18.604314 L13.3770492,16.4910056 C13.3770492,15.31954 13.9711475,14.2259126 14.9547541,13.5759633 L23.3901639,8.01442052 Z M23.3901639,15.7982452 C23.6498361,15.6231092 24,15.809921 24,16.1251659 L24,20.6242166 C24,20.7604335 23.9252459,20.8888666 23.8072131,20.958921 L14.7580328,25.9444608 C14.4944262,26.1001372 14.1639344,25.9094335 14.1639344,25.6097563 L14.1639344,23.4964479 C14.1639344,22.3249823 14.7580328,21.2313549 15.7416393,20.5814055 L23.3901639,15.7982452 Z M7.78229508,3.07558374 C7.54622951,2.91990725 7.55016393,2.57352705 7.79409836,2.42174246 L10.9259016,0.324001704 C11.7206557,-0.108000568 12.6806557,-0.108000568 13.4754098,0.324001704 L16.6072131,2.42174246 C16.8472131,2.57352705 16.8511475,2.91990725 16.615082,3.07558374 L13.5108197,4.48445601 C12.6767213,4.86197151 11.7206557,4.86197151 10.8865574,4.48445601 L7.78229508,3.07558374 Z" id="合并形状" fill="#00BB65"></path>
                    <path d="M36.96,19.616 L36.96,15.136 L31.424,15.136 L31.424,8.176 L36.96,8.176 L36.96,5.2 L38.992,5.2 L38.992,8.176 L44.576,8.176 L44.576,13.712 C44.576,14.1280021 44.4266682,14.469332 44.128,14.736 C43.9253323,14.8746674 43.7066678,14.9759997 43.472,15.04 C43.1626651,15.114667 42.8533349,15.1466667 42.544,15.136 L38.992,15.136 L38.992,18.608 C38.992,18.9066682 38.8853344,19.1573323 38.672,19.36 C38.4693323,19.5306675 38.2400013,19.616 37.984,19.616 L36.96,19.616 Z M42.544,9.632 L38.992,9.632 L38.992,13.712 L42.544,13.712 L42.544,9.632 Z M33.456,9.632 L33.456,13.712 L36.96,13.712 L36.96,9.632 L33.456,9.632 Z M60.736,9.68 L57.648,9.68 L57.648,12.192 L61.056,12.192 L61.056,13.568 L57.552,13.568 L57.552,13.6 C57.8400014,14.7520058 58.3519963,15.7973286 59.088,16.736 C59.7386699,17.536004 60.5279954,18.1599978 61.456,18.608 L61.088,19.488 C60.1813288,19.2426654 59.365337,18.8213363 58.64,18.224 C57.8719962,17.5839968 57.2693355,16.8053379 56.832,15.888 C56.373331,16.7306709 55.7760037,17.4453304 55.04,18.032 C54.239996,18.6613365 53.3706714,19.1733314 52.432,19.568 L52.192,19.072 C52.1279997,19.2320008 52.0213341,19.3653328 51.872,19.472 C51.7226659,19.5573338 51.5680008,19.6 51.408,19.6 L50.544,19.6 L50.544,17.168 C49.2319934,17.4240013 47.9253398,17.6533323 46.624,17.856 L46.448,16.464 L47.312,16.368 L47.312,7.392 L46.72,7.392 L46.72,6.096 L52.976,6.096 L52.976,7.392 L52.256,7.392 L52.256,15.648 L53.232,15.488 L53.248,16.464 C52.9173317,16.5920006 52.5866683,16.6986662 52.256,16.784 L52.256,18.624 C53.1413378,18.0799973 53.9039968,17.3973374 54.544,16.576 C55.1946699,15.6799955 55.5999992,14.6773389 55.76,13.568 L52.768,13.568 L52.768,12.192 L55.856,12.192 L55.856,9.68 L53.136,9.68 L53.136,8.32 L56.88,8.32 C57.5200032,7.27466144 58.1226638,6.20267216 58.688,5.104 L60.336,5.68 C60.0373318,6.213336 59.7120018,6.7199976 59.36,7.2 C59.0506651,7.60533536 58.7040019,7.97866496 58.32,8.32 L60.736,8.32 L60.736,9.68 Z M55.888,8.256 C55.3013304,8.02133216 54.8053354,7.6640024 54.4,7.184 C54.2506659,7.00266576 54.1173339,6.8053344 54,6.592 C53.7759989,6.20799808 53.5733342,5.81333536 53.392,5.408 L54.816,5.056 C55.3386693,5.98400464 55.8773306,6.9013288 56.432,7.808 L55.888,8.256 Z M48.896,16.144 L50.544,15.904 L50.544,13.888 L48.896,13.888 L48.896,16.144 Z M48.896,7.392 L48.896,9.424 L50.544,9.424 L50.544,7.392 L48.896,7.392 Z M48.896,10.672 L48.896,12.64 L50.544,12.64 L50.544,10.672 L48.896,10.672 Z M70.336,12.96 C69.8346642,12.8746662 69.354669,12.736001 68.896,12.544 C68.287997,12.277332 67.7066694,11.9573352 67.152,11.584 C66.8959987,11.925335 66.5920018,12.2133322 66.24,12.448 C65.8773315,12.6933346 65.4933354,12.8959992 65.088,13.056 L75.424,13.056 L75.424,18.128 C75.4133333,18.469335 75.2640014,18.7413323 74.976,18.944 C74.7733323,19.0613339 74.5600011,19.1413331 74.336,19.184 C74.0373318,19.2480003 73.7333349,19.28 73.424,19.28 L64.608,19.28 L64.608,13.248 C64.0639973,13.440001 63.5200027,13.6053326 62.976,13.744 L62.704,12.912 C63.1413355,12.7413325 63.5679979,12.5386678 63.984,12.304 C64.3360018,12.111999 64.6559986,11.882668 64.944,11.616 C65.402669,11.1893312 65.7333323,10.6826696 65.936,10.096 L62.928,10.096 L62.928,8.96 L66.144,8.96 C66.1546667,8.9066664 66.16,8.84266704 66.16,8.768 C66.1706667,8.38399808 66.176,7.99466864 66.176,7.6 L65.184,7.6 C64.7039976,8.133336 64.1440032,8.5599984 63.504,8.88 L63.024,8.352 C63.3760018,7.93599792 63.685332,7.4880024 63.952,7.008 C64.3146685,6.34666336 64.629332,5.66400352 64.896,4.96 L66.576,5.152 C66.4053325,5.62133568 66.2026678,6.06399792 65.968,6.48 L70.128,6.48 L70.128,7.6 L67.952,7.6 C67.9306666,7.9733352 67.92,8.3466648 67.92,8.72 C67.9093333,8.80533376 67.904,8.88533296 67.904,8.96 L70.288,8.96 L70.288,10.096 L67.776,10.096 L67.712,10.384 L68.64,10.96 C69.3120034,11.3866688 69.9999965,11.7866648 70.704,12.16 L70.336,12.96 Z M70.816,6.352 L76.672,6.352 L76.672,10.8 C76.672,11.1733352 76.538668,11.4773322 76.272,11.712 C76.1013325,11.8293339 75.9093344,11.9146664 75.696,11.968 C75.429332,12.0320003 75.162668,12.0586667 74.896,12.048 L70.816,12.048 L70.816,6.352 Z M66.608,18.112 L73.424,18.112 L73.424,16.624 L66.608,16.624 L66.608,18.112 Z M66.608,14.208 L66.608,15.488 L73.424,15.488 L73.424,14.208 L66.608,14.208 Z M72.544,7.6 L72.544,10.8 L74.896,10.8 L74.896,7.6 L72.544,7.6 Z M79.952,14.816 L90.128,14.816 L90.128,14.16 L80.496,14.16 L80.496,13.248 L90.128,13.248 L90.128,12.592 L80.176,12.592 L80.176,11.68 L91.92,11.68 L91.92,14.816 C91.9093333,15.1146682 91.7760013,15.3333326 91.52,15.472 C91.3386658,15.5680005 91.1466677,15.6319998 90.944,15.664 C90.6666653,15.7173336 90.394668,15.7386667 90.128,15.728 L86.448,15.728 C86.9493358,16.3146696 87.466664,16.8853306 88,17.44 L87.536,17.952 C87.0666643,17.8453328 86.6293354,17.6640013 86.224,17.408 C85.8186646,17.1306653 85.4613349,16.8000019 85.152,16.416 C85.1093331,16.3733331 85.0720002,16.3253336 85.04,16.272 L85.888,15.728 L79.952,15.728 L79.952,14.816 Z M86.24,6.384 L88.432,6.384 L88.432,5.376 L90.144,5.376 L90.144,6.384 L92.704,6.384 L92.704,7.312 L90.144,7.312 L90.144,8.112 L92.416,8.112 L92.416,8.976 L90.144,8.976 L90.144,9.76 L93.024,9.76 L93.024,10.688 L90.144,10.688 L90.144,11.28 L88.432,11.28 L88.432,10.688 L86.208,10.688 L86.208,9.76 L88.432,9.76 L88.432,8.976 L86.384,8.976 L86.384,8.112 L88.432,8.112 L88.432,7.312 L86.24,7.312 L86.24,6.384 Z M79.36,6.384 L81.952,6.384 L81.952,5.392 L83.696,5.392 L83.696,6.384 L85.744,6.384 L85.744,7.312 L83.696,7.312 L83.696,8.112 L85.616,8.112 L85.616,8.976 L83.696,8.976 L83.696,9.76 L85.792,9.76 L85.792,10.688 L83.696,10.688 L83.696,11.28 L81.952,11.28 L81.952,10.688 L79.024,10.688 L79.024,9.76 L81.952,9.76 L81.952,8.976 L79.68,8.976 L79.68,8.112 L81.952,8.112 L81.952,7.312 L79.36,7.312 L79.36,6.384 Z M82.336,16.16 L84.128,16.16 L84.128,17.616 C84.1173333,17.7653341 84.1333331,17.9039994 84.176,18.032 C84.2186669,18.1493339 84.2879995,18.2399997 84.384,18.304 C84.4693338,18.3573336 84.5599995,18.3946666 84.656,18.416 C84.8373342,18.4480002 85.023999,18.464 85.216,18.464 L87.488,18.464 C87.7013344,18.464 87.9146656,18.4533334 88.128,18.432 C88.2880008,18.4213333 88.4426659,18.3840003 88.592,18.32 C88.8693347,18.1706659 89.0719994,17.9520014 89.2,17.664 L90.048,17.664 C89.9413328,17.9520014 89.8186674,18.2399986 89.68,18.528 C89.5626661,18.7520011 89.408001,18.9439992 89.216,19.104 C89.0026656,19.2640008 88.7680013,19.3653331 88.512,19.408 C88.245332,19.4613336 87.9840013,19.488 87.728,19.488 L84.32,19.488 C83.978665,19.488 83.637335,19.4560003 83.296,19.392 C83.0719989,19.3493331 82.8693342,19.2533341 82.688,19.104 C82.5706661,18.9759994 82.4853336,18.8373341 82.432,18.688 C82.357333,18.4106653 82.3253333,18.1280014 82.336,17.84 L82.336,16.16 Z M78.672,18.848 C79.3760035,18.0266626 79.9839974,17.1306715 80.496,16.16 L82.224,16.48 C81.8613315,17.1520034 81.4240026,17.754664 80.912,18.288 C80.4106642,18.7893358 79.8240034,19.1519989 79.152,19.376 L78.672,18.848 Z M89.712,16.64 L90.992,15.936 C91.4293355,16.4586693 91.8613312,16.986664 92.288,17.52 C92.5866682,17.8826685 92.8906651,18.2453315 93.2,18.608 L92.72,19.152 C92.1653306,18.9279989 91.658669,18.6293352 91.2,18.256 C90.6986642,17.8293312 90.2506686,17.3546693 89.856,16.832 C89.8026664,16.7679997 89.7546669,16.7040003 89.712,16.64 Z M109.088,18.624 C108.255996,18.3253318 107.450671,17.9786686 106.672,17.584 C105.797329,17.125331 104.98667,16.5600034 104.24,15.888 C103.567997,15.2586635 102.992002,14.5546706 102.512,13.776 C101.999997,12.9226624 101.584002,12.0320046 101.264,11.104 C100.858665,11.7440032 100.400003,12.3413306 99.888,12.896 L99.888,17.472 L103.12,16.224 L103.36,17.2 C101.663992,18.074671 99.9573419,18.9279958 98.24,19.76 L97.36,18.432 C97.552001,18.3253328 97.7119994,18.1866675 97.84,18.016 C97.9466672,17.8346658 97.9946667,17.6320011 97.984,17.408 L97.984,14.592 C96.8746611,15.4133374 95.7013395,16.1119971 94.464,16.688 L94.112,15.728 C94.986671,15.194664 95.823996,14.6026699 96.624,13.952 C97.1360026,13.5146645 97.621331,13.0453358 98.08,12.544 C99.1893389,11.3066605 99.9839976,9.89334128 100.464,8.304 L97.28,8.304 L97.28,9.616 C97.28,9.86133456 97.2053341,10.079999 97.056,10.272 C96.863999,10.464001 96.6293347,10.5546667 96.352,10.544 L95.408,10.544 L95.408,6.976 L100.8,6.976 C100.906667,6.34666352 100.986666,5.7120032 101.04,5.072 L103.2,5.136 C103.114666,5.75466976 103.008001,6.36799696 102.88,6.976 L108.512,6.976 L108.512,9.312 C108.512,9.58933472 108.416001,9.82399904 108.224,10.016 C108.042666,10.1653341 107.834668,10.2346667 107.6,10.224 L106.672,10.224 L106.672,8.304 L102.528,8.304 L102.336,8.848 C102.645335,10.2346736 103.146663,11.5413272 103.84,12.768 C104.768005,12.0106629 105.669329,11.2053376 106.544,10.352 L107.824,11.6 L107.184,12.112 C106.703998,12.4960019 106.213336,12.858665 105.712,13.2 C105.327998,13.4453346 104.933335,13.6586658 104.528,13.84 C105.093336,14.6080038 105.74933,15.2906637 106.496,15.888 C107.434671,16.613337 108.447995,17.2159976 109.536,17.696 L109.088,18.624 Z M114.816,15.008 C114.037329,14.2293294 113.365336,13.3653381 112.8,12.416 C112.063996,11.1893272 111.450669,9.90400672 110.96,8.56 L112.768,7.968 C113.589337,9.74934224 114.383996,11.535991 115.152,13.328 L115.152,5.36 L117.2,5.36 L117.2,17.408 L118.848,17.408 L118.848,5.36 L120.896,5.36 L120.896,13.488 C121.749338,11.7066578 122.538663,9.88800928 123.264,8.032 L125.28,8.32 C125.162666,8.60800144 125.045334,8.89066528 124.928,9.168 C124.607998,10.0000042 124.250669,10.815996 123.856,11.616 C123.589332,12.1280026 123.306668,12.6239976 123.008,13.104 C122.698665,13.562669 122.357335,13.9999979 121.984,14.416 C121.738665,14.6613346 121.482668,14.8906656 121.216,15.104 L120.896,14.88 L120.896,17.408 L125.184,17.408 L125.184,18.864 L110.848,18.864 L110.848,17.408 L115.152,17.408 L115.152,14.8 L114.816,15.008 Z M132.992,19.536 L132.992,14.592 L126.8,14.592 L126.8,13.168 L132.992,13.168 L132.992,7.344 L127.456,7.344 L127.456,5.952 L140.544,5.952 L140.544,7.344 L134.992,7.344 L134.992,13.168 L141.184,13.168 L141.184,14.592 L134.992,14.592 L134.992,18.528 C134.992,18.7840013 134.906668,19.0133323 134.736,19.216 C134.533332,19.4293344 134.288001,19.536 134,19.536 L132.992,19.536 Z M131.584,12.48 C130.826663,12.0533312 130.133336,11.5306698 129.504,10.912 C128.88533,10.2933302 128.346669,9.6106704 127.888,8.864 L129.376,8.08 C130.282671,9.3600064 131.199995,10.6346603 132.128,11.904 L131.584,12.48 Z M140.096,8.848 C139.583997,9.68000416 138.97067,10.4319966 138.256,11.104 C137.679997,11.6586694 137.045337,12.1173315 136.352,12.48 L135.84,11.904 C136.800005,10.6666605 137.706662,9.38667328 138.56,8.064 L140.096,8.848 Z M144.304,12.96 L155.664,12.96 L155.664,17.856 C155.664,18.314669 155.477335,18.6666654 155.104,18.912 C154.879999,19.0400006 154.645335,19.1253331 154.4,19.168 C154.165332,19.2106669 153.930668,19.232 153.696,19.232 L144.304,19.232 L144.304,12.96 Z M156.56,11.904 C155.887997,11.5733317 155.25867,11.178669 154.672,10.72 C150.970648,11.0186682 147.274685,11.3173318 143.584,11.616 L143.072,10.048 C143.338668,10.0159998 143.605332,9.95733376 143.872,9.872 C144.096001,9.78666624 144.298666,9.65866752 144.48,9.488 C145.258671,8.7946632 145.994663,8.06400384 146.688,7.296 C147.392004,6.55999632 148.03733,5.77067088 148.624,4.928 L150.368,5.696 C149.599996,6.7093384 148.746671,7.63199584 147.808,8.464 C147.12533,9.07200304 146.373337,9.56799808 145.552,9.952 L153.456,9.68 C152.70933,8.95466304 151.97867,8.21333712 151.264,7.456 L152.624,6.592 C153.37067,7.38133728 154.111996,8.175996 154.848,8.976 C155.573337,9.76533728 156.30933,10.5386629 157.056,11.296 L156.56,11.904 Z M146.272,14.336 L146.272,17.856 L153.696,17.856 L153.696,14.336 L146.272,14.336 Z" id="中联智慧农业平台" fill="#FFFFFF"></path>
                </g>
            </g>
        </g>
    </g>
</svg>