<?xml version="1.0" encoding="UTF-8"?>
<svg width="24px" height="24px" viewBox="0 0 24 24" version="1.1" xmlns="http://www.w3.org/2000/svg" xmlns:xlink="http://www.w3.org/1999/xlink">
    <!-- Generator: Sketch 53.1 (72631) - https://sketchapp.com -->
    <title>储藏icon</title>
    <desc>Created with Sketch.</desc>
    <g id="页面-1" stroke="none" stroke-width="1" fill="none" fill-rule="evenodd">
        <g id="04-07农事管理-农事决策服务" transform="translate(-1344.000000, -167.000000)">
            <g id="决策时间轴" transform="translate(224.000000, 72.000000)">
                <g id="储藏" transform="translate(1111.000000, 86.000000)">
                    <g id="储藏icon" transform="translate(9.000000, 9.000000)">
                        <rect id="矩形" x="0" y="0" width="24" height="24"></rect>
                        <path d="M22.8977686,10.344806 L12.4072541,2.13610763 C12.2719941,2 12.1335885,2 11.9936101,2 C11.8567773,2 11.7183717,2 11.7183717,2.13610763 L1.22785715,10.344806 C0.952618765,10.6185857 0.952618765,10.8923655 1.09102435,11.0300375 L3.02241144,11.0300375 L3.02241144,20.6060701 C3.02241144,21.4274093 3.57288821,21.9749687 4.40174896,21.9749687 L6.47311442,21.9749687 L6.47311442,13.7647059 L17.5141057,13.7647059 L17.5141057,21.9734043 L19.5838984,21.9734043 C20.4127592,21.9734043 20.9648087,21.4258448 20.9648087,20.6045056 L20.9648087,11.0300375 L22.8961958,11.0300375 C23.0346014,10.8923655 23.0346014,10.6185857 22.8961958,10.344806 L22.8977686,10.344806 Z M12.8492083,16.9155194 L11.1395847,16.9155194 L11.1395847,15.221214 L7.72033752,15.221214 L7.72033752,22 L16.2684554,22 L16.2684554,15.221214 L12.8492083,15.221214 L12.8492083,16.9155194 L12.8492083,16.9155194 Z" id="形状" fill="#ffffff" fill-rule="nonzero"></path>
                    </g>
                </g>
            </g>
        </g>
    </g>
</svg>