<?xml version="1.0" encoding="UTF-8"?>
<svg width="16px" height="16px" viewBox="0 0 16 16" version="1.1" xmlns="http://www.w3.org/2000/svg" xmlns:xlink="http://www.w3.org/1999/xlink">
    <!-- Generator: Sketch 53.1 (72631) - https://sketchapp.com -->
    <title>光照强度icon</title>
    <desc>Created with Sketch.</desc>
    <g id="页面-1" stroke="none" stroke-width="1" fill="none" fill-rule="evenodd">
        <g id="02-01植株健康-物联网监测预警" transform="translate(-1088.000000, -666.000000)" fill="#00BB65" fill-rule="nonzero">
            <g id="分组-10" transform="translate(1072.000000, 648.000000)">
                <g id="光照强度icon" transform="translate(16.000000, 18.000000)">
                    <path d="M8,12 C5.77142857,12 4,10.2285714 4,8 C4,5.77142857 5.77142857,4 8,4 C10.2285714,4 12,5.77142857 12,8 C12,10.2285714 10.2285714,12 8,12 Z M8,6 C6.88,6 6,6.88 6,8 C6,9.12 6.88,10 8,10 C9.12,10 10,9.12 10,8 C10,6.88 9.12,6 8,6 Z" id="形状"></path>
                    <path d="M0.8,7.2 L2.4,7.2 C2.88,7.2 3.2,7.52 3.2,8 C3.2,8.48 2.88,8.8 2.4,8.8 L0.8,8.8 C0.32,8.8 0,8.48 0,8 C0,7.52 0.32,7.2 0.8,7.2 Z M13.6,7.2 L15.2,7.2 C15.68,7.2 16,7.52 16,8 C16,8.48 15.68,8.8 15.2,8.8 L13.6,8.8 C13.12,8.8 12.8,8.48 12.8,8 C12.8,7.52 13.12,7.2 13.6,7.2 Z M8.8,0.8 L8.8,2.4 C8.8,2.88 8.48,3.2 8,3.2 C7.52,3.2 7.2,2.88 7.2,2.4 L7.2,0.8 C7.2,0.32 7.52,0 8,0 C8.48,0 8.8,0.32 8.8,0.8 Z M8.8,13.6 L8.8,15.2 C8.8,15.68 8.48,16 8,16 C7.52,16 7.2,15.68 7.2,15.2 L7.2,13.6 C7.2,13.12 7.52,12.8 8,12.8 C8.48,12.8 8.8,13.12 8.8,13.6 Z M2.32,1.2 L3.44,2.32 C3.76,2.64 3.76,3.12 3.44,3.44 C3.12,3.76 2.64,3.76 2.32,3.44 L1.2,2.32 C0.88,2 0.88,1.52 1.2,1.2 C1.52,0.88 2,0.88 2.32,1.2 Z M13.68,1.2 L12.56,2.32 C12.24,2.64 12.24,3.12 12.56,3.44 C12.88,3.76 13.36,3.76 13.68,3.44 L14.8,2.32 C15.12,2 15.12,1.52 14.8,1.2 C14.48,0.88 14,0.88 13.68,1.2 Z M13.68,14.8 L12.56,13.68 C12.24,13.36 12.24,12.88 12.56,12.56 C12.88,12.24 13.36,12.24 13.68,12.56 L14.8,13.68 C15.12,14 15.12,14.48 14.8,14.8 C14.48,15.12 14,15.12 13.68,14.8 Z M2.48,14.8 L3.6,13.68 C3.92,13.36 3.92,12.88 3.6,12.56 C3.28,12.24 2.8,12.24 2.48,12.56 L1.36,13.68 C1.04,14 1.04,14.48 1.36,14.8 C1.68,15.12 2.16,15.12 2.48,14.8 Z" id="形状"></path>
                </g>
            </g>
        </g>
    </g>
</svg>