<?xml version="1.0" encoding="UTF-8"?>
<svg width="17px" height="18px" viewBox="0 0 17 18" version="1.1" xmlns="http://www.w3.org/2000/svg" xmlns:xlink="http://www.w3.org/1999/xlink">
    <!-- Generator: Sketch 53.1 (72631) - https://sketchapp.com -->
    <title>农事管理icon</title>
    <desc>Created with Sketch.</desc>
    <g id="页面-1" stroke="none" stroke-width="1" fill="none" fill-rule="evenodd">
        <g id="01-01智慧土壤-土壤样本分析" transform="translate(-15.000000, -295.000000)">
            <g id="左侧菜单">
                <g id="分组" transform="translate(0.000000, 280.000000)">
                    <g id="农事管理icon" transform="translate(15.000000, 15.000000)">
                        <rect id="矩形" fill="#D8D8D8" opacity="0" x="1" y="1" width="16" height="16"></rect>
                        <g id="农事管理" transform="translate(0.000000, 0.078125)" fill="#FFFFFF" fill-rule="nonzero">
                            <path d="M15.6730945,2.17065549 L15.6730945,15.6730945 L2.17065549,15.6730945 L2.17065549,2.17065549 L15.6730945,2.17065549 L15.6730945,2.17065549 Z M16.921875,0.921875 L0.921875,0.921875 L0.921875,16.921875 L16.921875,16.921875 L16.921875,0.921875 Z" id="形状"></path>
                            <path d="M13.1957316,4.76108911 C12.7957346,4.53302175 12.3348685,4.421875 11.8432904,4.421875 C10.7165644,4.421875 9.42869254,5.00606563 8.34100419,6.10309851 C7.60816976,5.67542065 6.85183875,5.45292094 6.15674687,5.45292094 C5.66516872,5.45292094 5.20448765,5.56406769 4.80430566,5.79213505 C4.0945978,7.33870396 4.64723007,9.69979916 6.24333271,11.4787658 C6.34490456,11.5919747 6.44869656,11.7002345 6.55415368,11.8039577 C6.70530887,11.9526345 6.86016432,12.0916195 7.01779495,12.2207065 C7.97985983,13.0073945 9.04368158,13.421875 9.9929806,13.421875 C10.4845588,13.421875 10.9452398,13.3107282 11.3454218,13.0826609 C11.6614231,12.3941284 11.7269175,11.5441341 11.5618864,10.6559912 C11.6275658,10.5883546 11.6925052,10.5190683 11.7565195,10.4477199 C13.3526222,8.66875322 13.9054395,6.30765802 13.1957316,4.76108911 L13.1957316,4.76108911 Z M10.4238747,12.0553267 C10.2904807,12.0864643 10.146541,12.1021362 9.99316561,12.1021362 C9.85015097,12.1021362 9.70177096,12.0879078 9.55006073,12.0606882 C9.23646458,12.004393 8.90825244,11.890978 8.58096537,11.7245672 C8.04831445,11.4536083 7.52953946,11.0459327 7.08069919,10.5456692 C6.83592768,10.2728545 6.61724293,9.97838777 6.42945527,9.67134229 C6.13972573,9.197886 5.92381617,8.695148 5.80059786,8.19735902 C5.67534441,7.69111546 5.65092276,7.21704054 5.72603783,6.81946923 C5.85943182,6.78833164 6.00337153,6.77265974 6.15674687,6.77265974 C6.57506009,6.77265974 7.03888637,6.89184865 7.50252764,7.1174415 C7.52472914,7.12816438 7.54693063,7.13909347 7.56894712,7.15022876 C7.89826933,7.31767062 8.22222618,7.53769583 8.52768178,7.79937529 C8.71834974,7.96270141 8.89924512,8.13973059 9.0692133,8.3293329 C9.56856198,8.8858915 9.95986337,9.53276972 10.1998246,10.1907832 C10.2590285,10.3528637 10.3089819,10.5155627 10.3491296,10.6776431 C10.4266498,10.9908749 10.4655025,11.2917341 10.4660575,11.5697041 C10.4666125,11.7410639 10.4525516,11.903763 10.4238747,12.0553267 L10.4238747,12.0553267 Z M11.126182,9.27109026 C10.8353424,8.6165823 10.4262798,7.97547793 9.90657977,7.39603012 C9.73636603,7.20627217 9.5572052,7.02675338 9.36985858,6.85823655 C9.70491617,6.55675872 10.0647654,6.30559593 10.4312752,6.11918282 C10.9167479,5.87214422 11.4051808,5.7416138 11.8434754,5.7416138 C11.9968507,5.7416138 12.1407905,5.7572857 12.2741845,5.78842329 C12.3492995,6.1859946 12.3248779,6.66006952 12.1996244,7.16631308 C12.0196073,7.89320047 11.6423668,8.6301921 11.126182,9.27109026 Z" id="形状"></path>
                        </g>
                    </g>
                </g>
            </g>
        </g>
    </g>
</svg>