<?xml version="1.0" encoding="UTF-8"?>
<svg width="36px" height="36px" viewBox="0 0 36 36" version="1.1" xmlns="http://www.w3.org/2000/svg" xmlns:xlink="http://www.w3.org/1999/xlink">
    <!-- Generator: Sketch 53.1 (72631) - https://sketchapp.com -->
    <title>农场icon</title>
    <desc>Created with Sketch.</desc>
    <g id="页面-1" stroke="none" stroke-width="1" fill="none" fill-rule="evenodd">
        <g id="05-01虫害管理-虫害预测" transform="translate(-922.000000, -469.000000)">
            <g id="农场icon" transform="translate(922.000000, 469.000000)">
                <ellipse id="椭圆形" fill="#61C898" cx="18" cy="33" rx="6" ry="1"></ellipse>
                <path d="M17.9507201,3.00011558 C11.8856883,3.02861959 6.9731936,8.23242526 7.00011008,14.6009966 C7.02540233,20.5766027 16.0881441,31.3459955 17.1216452,32.5538826 C17.3650383,32.8392875 17.7131436,33.0016635 18.0780146,32.9999871 C18.4428857,32.9983108 18.7896242,32.8327426 19.030629,32.5451121 C20.0539203,31.3274801 29.0252389,20.4737934 28.9999466,14.4979437 C28.9730301,8.129616 24.0162159,2.97185523 17.9507201,3.00011558 Z" id="路径" fill="#00BB65" fill-rule="nonzero"></path>
                <g id="农场" transform="translate(11.000000, 7.000000)" fill="#FFFFFF" fill-rule="nonzero">
                    <path d="M5.94140626,6.46484375 C5.94136301,6.82209493 6.13195248,7.15222713 6.44137131,7.3308652 C6.75079015,7.50950327 7.13202235,7.50950327 7.44144119,7.3308652 C7.75086002,7.15222713 7.94144949,6.82209493 7.94140624,6.46484375 C7.94144949,6.10759257 7.75086002,5.77746037 7.44144119,5.5988223 C7.13202235,5.42018423 6.75079015,5.42018423 6.44137131,5.5988223 C6.13195248,5.77746037 5.94136301,6.10759257 5.94140626,6.46484375 L5.94140626,6.46484375 Z" id="路径"></path>
                    <path d="M7.21936278,7.85560242 C7.54989719,7.76269256 7.81576865,7.61637531 8.01729105,7.41728274 C8.21849955,7.21819017 8.33778073,6.98307133 8.37513457,6.71255824 L12.9068775,10.2614623 C12.6761626,10.5904391 12.3889461,10.9292125 12.045228,11.2771505 C11.6962723,11.6299647 11.3243136,11.9589354 10.9318324,12.2618686 L7.21936278,7.85560242 Z M7.25389154,4.87079396 C7.58442595,4.96401985 7.85029741,5.11002107 8.05181981,5.30942965 C8.25302831,5.50852223 8.37230948,5.74364107 8.40966332,6.01415415 L12.9414063,2.46525007 C12.7106914,2.1362733 12.4234748,1.7974999 12.0797567,1.44956193 C11.7308011,1.09674767 11.3588424,0.767777038 10.9663611,0.46484375 L7.25389154,4.87079396 Z M6.62923485,7.85560242 C6.29838654,7.76269256 6.03251509,7.61637531 5.83099269,7.41728274 C5.62978419,7.21819017 5.51050302,6.98307133 5.47314916,6.71255824 L0.94140625,10.2614623 C1.17212115,10.5904391 1.45933767,10.9292125 1.80305578,11.2771505 C2.15201144,11.6299647 2.5239701,11.9589354 2.91645137,12.2618686 L6.62892096,7.85560242 L6.62923485,7.85560242 Z M6.66376361,4.87079396 C6.3329153,4.96401985 6.06704385,5.11002107 5.86552145,5.30942965 C5.66431295,5.50852223 5.54503177,5.74364107 5.50767792,6.01415415 L0.975935009,2.46525007 C1.20664991,2.1362733 1.49386643,1.7974999 1.83758454,1.44956193 C2.1865402,1.09674767 2.55849886,0.767777039 2.95098013,0.46484375 L6.66344972,4.87079396 L6.66376361,4.87079396 Z M6.86151924,8.18521123 L4.36885661,11.237964 L3.56527818,13.2668121 C4.66392057,14.0657105 5.77009651,14.4648438 6.8831782,14.4648438 C7.9965738,14.4648438 9.10243584,14.0657105 10.2010782,13.2671281 L9.41539196,11.237964 L6.86151924,8.18521123 L6.86151924,8.18521123 Z" id="形状"></path>
                </g>
            </g>
        </g>
    </g>
</svg>