<?xml version="1.0" encoding="UTF-8"?>
<svg width="24px" height="24px" viewBox="0 0 24 24" version="1.1" xmlns="http://www.w3.org/2000/svg" xmlns:xlink="http://www.w3.org/1999/xlink">
    <!-- Generator: Sketch 53.1 (72631) - https://sketchapp.com -->
    <title>分蘖期icon</title>
    <desc>Created with Sketch.</desc>
    <g id="页面-1" stroke="none" stroke-width="1" fill="none" fill-rule="evenodd">
        <g id="04-07农事管理-农事决策服务" transform="translate(-898.000000, -167.000000)">
            <g id="决策时间轴" transform="translate(224.000000, 72.000000)">
                <g id="分蘖期" transform="translate(665.000000, 86.000000)">
                    <g id="分蘖期icon" transform="translate(9.000000, 9.000000)">
                        <rect id="矩形" x="0" y="0" width="24" height="24"></rect>
                        <path d="M16.7617005,6.23609955 L12.7424435,10.8975523 C20.30115,15.9494933 21,2 21,2 C6.7691879,3.82344039 11.9010419,9.90041285 11.9010419,9.90041285 L16.7617005,6.23609955 Z" id="路径" fill="#FFFFFF" fill-rule="nonzero"></path>
                        <path d="M9.56528189,12.4717912 L6.44213649,9.53714791 L10.1476261,11.7587704 C12.6884273,5.85195648 3,7.11287737 3,7.11287737 C6.01928783,16.817465 9.56528191,12.4717912 9.56528189,12.4717912 Z M11.3716617,16.7499157 C10.8560831,15.7404284 10.5519288,14.0892225 11.5905044,11.63493 C11.5905044,11.63493 9.11646884,13.9766402 10.1031157,16.9338 C7.10608309,17.8682324 5.43694362,22 5.43694362,22 L18,21.9887418 C18,21.9887418 16.5793768,19.669548 14.9658754,18.2997976 C13.7158754,17.237772 12.2692879,16.7611739 11.3716617,16.7499157 Z" id="形状" fill="#FFFFFF" fill-rule="nonzero"></path>
                    </g>
                </g>
            </g>
        </g>
    </g>
</svg>