<?xml version="1.0" encoding="UTF-8"?>
<svg width="24px" height="24px" viewBox="0 0 24 24" version="1.1" xmlns="http://www.w3.org/2000/svg" xmlns:xlink="http://www.w3.org/1999/xlink">
    <!-- Generator: Sketch 53.1 (72631) - https://sketchapp.com -->
    <title>壮秧icon</title>
    <desc>Created with Sketch.</desc>
    <g id="页面-1" stroke="none" stroke-width="1" fill="none" fill-rule="evenodd">
        <g id="04-07农事管理-农事决策服务" transform="translate(-541.000000, -167.000000)">
            <g id="决策时间轴" transform="translate(224.000000, 72.000000)">
                <g id="壮秧" transform="translate(308.000000, 86.000000)">
                    <g id="壮秧icon" transform="translate(9.000000, 9.000000)">
                        <rect id="矩形" x="0" y="0" width="24" height="24"></rect>
                        <path d="M21.2639843,2 C21.6704745,2 22,2.32960632 22,2.73619632 L22,21.2638037 C22,21.6703937 21.6704745,22 21.2639843,22 L2.7360157,22 C2.32952545,22 2,21.6703937 2,21.2638037 L2,2.73619632 C2,2.32960632 2.32952545,2 2.7360157,2 L21.2639843,2 Z M7.24123989,19 L16.7587601,19 C17.1681356,19 17.5,18.6952344 17.5,18.3192869 C17.5,17.9433394 17.1681356,17.6385737 16.7587601,17.6385737 L12.7412399,17.6385737 L12.7412399,15.8233387 C14.4842404,15.4975017 15.7363495,14.0895791 15.7358491,12.4560778 L15.7358491,6.80162074 C15.7359511,6.55073182 15.5857685,6.32012975 15.3450275,6.20152299 C15.1042865,6.08291622 14.8120187,6.09553456 14.5844564,6.23435979 L12.7412399,7.3598055 L12.7412399,5.68071313 C12.7412399,5.30476565 12.4093755,5 12,5 C11.5906245,5 11.2587601,5.30476565 11.2587601,5.68071313 L11.2587601,7.3598055 L9.42048518,6.23435979 C9.19292291,6.09553456 8.9006551,6.08291622 8.65991412,6.20152299 C8.41917314,6.32012975 8.2689905,6.55073182 8.26909253,6.80162074 L8.26909253,12.4560778 C8.27280148,14.0847773 9.52135731,15.4872346 11.2587601,15.8142626 L11.2587601,17.6294976 L7.24123989,17.6294976 C6.8318644,17.6294976 6.5,17.9342632 6.5,18.3102107 C6.5,18.6861582 6.8318644,18.9909238 7.24123989,18.9909238 L7.24123989,19 Z M9.50548847,12.1380738 L9.50548847,8 L11.5472009,9.06236265 C11.8232203,9.20547324 12.1822682,9.20547324 12.4582876,9.06236265 L14.5,8 L14.5,12.1380738 C14.4374217,13.1801941 13.336672,14 12,14 C10.663328,14 9.56257834,13.1801941 9.5,12.1380738 L9.50548847,12.1380738 Z" id="形状" fill="#FFFFFF" fill-rule="nonzero"></path>
                    </g>
                </g>
            </g>
        </g>
    </g>
</svg>