<?xml version="1.0" encoding="UTF-8"?>
<svg width="24px" height="24px" viewBox="0 0 24 24" version="1.1" xmlns="http://www.w3.org/2000/svg" xmlns:xlink="http://www.w3.org/1999/xlink">
    <!-- Generator: Sketch 53.1 (72631) - https://sketchapp.com -->
    <title>孕穗期icon</title>
    <desc>Created with Sketch.</desc>
    <g id="页面-1" stroke="none" stroke-width="1" fill="none" fill-rule="evenodd">
        <g id="04-07农事管理-农事决策服务" transform="translate(-1076.000000, -167.000000)">
            <g id="决策时间轴" transform="translate(224.000000, 72.000000)">
                <g id="孕穗期" transform="translate(843.000000, 86.000000)">
                    <g id="孕穗期icon" transform="translate(9.000000, 9.000000)">
                        <rect id="矩形" x="0" y="0" width="24" height="24"></rect>
                        <path d="M8.59928668,23 L8.52217964,23 C8.24679733,22.9681927 8.0044609,22.798554 7.89430798,22.5440959 C7.89430798,22.5334935 7.28846691,21.1763836 5.50398958,19.2255382 C5.21759199,18.9074656 4.9201791,18.589393 4.62276621,18.2925252 C3.04757943,16.6279451 1.39528561,14.9209554 1.04279626,11.6554098 C0.624215155,7.80673109 3.41108407,4.42455887 3.53225229,4.27612498 C3.73052754,4.03226931 4.0720016,3.93684752 4.36941449,4.04287173 C4.67784267,4.13829351 4.87611793,4.41395645 4.88713322,4.72142665 C4.88713322,4.7426315 4.98627085,7.12817616 5.96663185,8.62311748 C6.26404474,9.07902158 6.56145763,9.4501063 6.86988581,9.85299829 C7.62994097,10.8390234 8.48913376,11.9522776 9.65675473,14.4438465 C11.7937214,18.9816825 9.33731126,22.5334935 9.22715833,22.6819274 C9.09497483,22.8833734 8.8526384,23 8.59928668,23 L8.59928668,23 Z M3.6534205,6.85251322 C3.01453355,8.03998434 2.37564661,9.73637166 2.56290658,11.4963735 C2.87133476,14.2742077 4.20418511,15.6737273 5.7573413,17.2958976 C6.05475419,17.6033678 6.36318237,17.9214405 6.66059526,18.2607179 C7.53080334,19.2149358 8.1476597,20.052527 8.5662408,20.6780699 C9.01786778,19.4693939 9.40340301,17.4337291 8.26882792,15.0481844 C7.1672987,12.694447 6.39622825,11.6872171 5.64718838,10.7223968 C5.3387602,10.3195048 5.01931673,9.90601039 4.68885796,9.40769662 C4.16012394,8.62311748 3.84068047,7.67950204 3.6534205,6.85251322 L3.6534205,6.85251322 Z M11.5844309,22.1412039 C11.4192015,22.1412039 11.2429568,22.0881918 11.099758,21.9821676 C10.8243757,21.7701192 10.7362534,21.4096369 10.8794522,21.1021667 C10.9455439,20.9643352 12.5758072,17.6033678 15.3736914,16.9990299 C16.2328842,16.8081863 16.8387252,16.64915 17.3233981,16.5113185 C18.226652,16.2674628 18.8214778,16.1084265 19.8899611,16.1190289 C20.8813374,16.1296314 21.542255,14.9527627 21.5532703,14.9421602 C21.7405302,14.6028828 22.1701266,14.4650513 22.5336313,14.6134852 C22.8971359,14.7619191 23.0843959,15.1542087 22.9632277,15.5252934 C22.8530747,15.8539684 21.806622,18.7590317 20.2314352,19.8192738 C18.8545237,20.7416844 17.7089333,21.1657812 16.2989759,21.2718054 L16.1447618,21.2824078 C15.285569,21.3460224 12.6749448,21.5368659 12.0470731,22.0033725 C11.9038743,22.0881918 11.7496602,22.1412039 11.5844309,22.1412039 L11.5844309,22.1412039 Z M19.7577776,17.582163 C18.9977225,17.582163 18.5681261,17.6987896 17.7529945,17.9214405 C17.246291,18.0592719 16.6184194,18.2289107 15.7261807,18.4197542 C14.7898809,18.6212002 13.963734,19.3421648 13.3468776,20.0843343 C14.1840398,19.9465028 15.1313549,19.8616835 16.0346089,19.7980689 L16.188823,19.7874665 C17.1361381,19.7132496 18.0393921,19.4799963 19.3722424,18.589393 C19.6916859,18.3773446 20.0111294,17.9956574 20.297527,17.5609582 C20.1653435,17.582163 20.0331599,17.582163 19.8899611,17.582163 L19.7577776,17.582163 L19.7577776,17.582163 Z M11.8267673,17.6033678 C11.7166144,17.6033678 11.6064614,17.582163 11.5073238,17.5397533 C11.1878803,17.4019219 11.0116357,17.0626444 11.0777274,16.7233669 C11.1107733,16.574933 11.8598132,13.1397487 14.756835,12.2597478 C15.0983091,12.1537236 15.4287678,12.0583018 15.7482113,11.9734824 C17.6869027,11.4115541 18.9646766,11.0510718 19.8459,9.74697408 C20.0221447,9.48191356 20.3636187,9.35468452 20.6720469,9.43950388 C20.9914904,9.51372083 21.2228115,9.77878134 21.2448421,10.096854 C21.2558574,10.2664927 21.5312397,14.2105932 18.413912,15.2708353 C17.4665969,15.5889079 16.5633429,15.7585466 15.7702419,15.8963781 C14.2831774,16.1614386 13.2146941,16.3628846 12.4326084,17.3171025 C12.2783943,17.5079461 12.0580884,17.6033678 11.8267673,17.6033678 L11.8267673,17.6033678 Z M19.47138,12.1219163 C18.5350802,12.694447 17.433551,13.0125197 16.1778077,13.373002 C15.8693795,13.4578213 15.5389207,13.5532431 15.208462,13.6592673 C14.492468,13.8819182 13.9527187,14.3484247 13.5561682,14.8785457 C14.1730245,14.6877021 14.8229268,14.5604731 15.4838443,14.4438465 C16.26593,14.306015 17.0700464,14.1575811 17.8961933,13.8713157 C18.7774166,13.5850504 19.2400589,12.8534834 19.47138,12.1219163 L19.47138,12.1219163 Z M10.2515805,13.0019172 C10.1304123,13.0019172 10.0092441,12.9807124 9.91010645,12.9170979 C9.64573944,12.7898688 9.49152535,12.5248083 9.49152535,12.2491454 C9.49152535,12.1431212 9.56863239,9.52432325 12.0470731,8.17781581 C12.8952506,7.7113093 13.5781987,7.53106815 14.1179481,7.38263426 C14.9991714,7.149381 15.4838443,7.01154953 16.3210065,5.81347599 C16.4752206,5.59082515 16.7395876,5.47419853 17.0149699,5.49540337 C17.2903522,5.51660821 17.5326886,5.67564452 17.6428415,5.9195002 C18.1054838,6.88432048 18.336805,9.1426361 15.9685171,10.7860113 C14.5475444,11.7932413 13.6442905,11.9098679 12.8401742,12.0264945 C12.1572261,12.1219163 11.628492,12.1961333 10.7032075,12.8640858 C10.571024,12.9595076 10.4057946,13.0019172 10.2515805,13.0019172 L10.2515805,13.0019172 Z M16.3320218,8.0187795 C15.7041501,8.49588844 15.1203396,8.65492475 14.5255139,8.81396106 C14.0188104,8.95179253 13.4900764,9.10022642 12.796113,9.47131114 C12.1351955,9.83179345 11.7166144,10.3301072 11.4522474,10.8072162 C11.892859,10.6693847 12.267379,10.6163726 12.6308836,10.5633605 C13.3468776,10.4679387 13.963734,10.3831193 15.0762785,9.60914261 C15.8253183,9.07902158 16.188823,8.51709328 16.3320218,8.0187795 L16.3320218,8.0187795 Z" id="形状" fill="#ffffff" fill-rule="nonzero"></path>
                        <path d="M7.76268921,8 C7.53354789,8 7.31531806,7.90384015 7.16255717,7.71152045 C6.95523883,7.45509417 6.94432734,7.10250805 7.14073419,6.83539735 C7.20620314,6.74992193 8.70107749,4.63440519 10.2941553,3.81170424 L10.3596242,3.77965096 C11.6362687,3.11721642 13.0874971,2.36930647 13.4584878,1.46113009 C13.5785142,1.16196611 13.884036,0.980330833 14.2113807,1.00169969 C14.5387255,1.02306854 14.8115128,1.24744153 14.8988047,1.54660551 C14.9315392,1.65344979 15.5644057,4.1001838 13.2075235,6.09817182 C11.5707998,7.48714746 9.94498753,7.67946716 8.87566135,7.8076803 C8.53740511,7.85041801 8.21006037,7.88247129 8.04638799,7.94657786 C7.94818457,7.97863114 7.86089264,8 7.76268921,8 L7.76268921,8 Z M13,4 C12.4458599,4.38095238 11.8248408,4.7047619 11.2420382,5.00952381 L11.1847134,5.03809524 C10.7929936,5.24761905 10.3726115,5.60952381 10,6 C10.6878981,5.86666667 11.4617834,5.6 12.2356688,4.92380952 C12.589172,4.61904762 12.8280255,4.3047619 13,4 L13,4 Z" id="形状" fill="#ffffff" fill-rule="nonzero"></path>
                    </g>
                </g>
            </g>
        </g>
    </g>
</svg>