<?xml version="1.0" encoding="UTF-8"?>
<svg width="32px" height="32px" viewBox="0 0 32 32" version="1.1" xmlns="http://www.w3.org/2000/svg" xmlns:xlink="http://www.w3.org/1999/xlink">
    <!-- Generator: Sketch 53.1 (72631) - https://sketchapp.com -->
    <title>左侧按钮_默认状态</title>
    <desc>Created with Sketch.</desc>
    <g id="页面-1" stroke="none" stroke-width="1" fill="none" fill-rule="evenodd">
        <g id="01-03智慧土壤-土壤养分分布" transform="translate(-295.000000, -733.000000)" fill="#FFFFFF">
            <g id="分组-9" transform="translate(224.000000, 714.000000)">
                <g id="左侧按钮_默认状态" transform="translate(71.000000, 19.000000)">
                    <circle id="椭圆形" opacity="0.200000003" cx="16" cy="16" r="16"></circle>
                    <path d="M15,18 L20,18 C20.5522847,18 21,18.4477153 21,19 C21,19.5522847 20.5522847,20 20,20 L14,20 C13.7238576,20 13.4738576,19.8880712 13.2928932,19.7071068 C13.1119288,19.5261424 13,19.2761424 13,19 L13,13 C13,12.4477153 13.4477153,12 14,12 C14.5522847,12 15,12.4477153 15,13 L15,18 Z" id="合并形状" opacity="0.5" transform="translate(17.000000, 16.000000) rotate(-315.000000) translate(-17.000000, -16.000000) "></path>
                </g>
            </g>
        </g>
    </g>
</svg>