<?xml version="1.0" encoding="UTF-8"?>
<svg width="16px" height="16px" viewBox="0 0 16 16" version="1.1" xmlns="http://www.w3.org/2000/svg" xmlns:xlink="http://www.w3.org/1999/xlink">
    <!-- Generator: Sketch 53.1 (72631) - https://sketchapp.com -->
    <title>建议icon</title>
    <desc>Created with Sketch.</desc>
    <g id="页面-1" stroke="none" stroke-width="1" fill="none" fill-rule="evenodd">
        <g id="01-03智慧土壤-土壤养分分布" transform="translate(-1088.000000, -622.000000)" fill="#00BB65" fill-rule="nonzero">
            <g id="分组-10" transform="translate(1072.000000, 604.000000)">
                <g id="建议icon" transform="translate(16.000000, 18.000000)">
                    <path d="M7.99944,11.6071749 L1.84184,8.32824556 L3.36984,7.51435108 L7.72776,9.83489899 C7.81127995,9.88033173 7.9046511,9.90396217 7.99944,9.90365597 C8.09304,9.90365597 8.18672,9.88119643 8.27104,9.83498007 L12.62904,7.51443216 L14.15704,8.32816447 L7.99944,11.6070938 L7.99944,11.6071749 Z M14.15704,11.2848766 L7.99944,14.5626708 L1.84184,11.2848766 L3.3604,10.4746308 L7.72776,12.8000435 C7.8112872,12.8454481 7.90465795,12.8690506 7.99944,12.8687194 C8.09304,12.8687194 8.18672,12.8461788 8.27104,12.7999625 L12.6384,10.475847 L14.15704,11.2848766 L14.15704,11.2848766 Z M7.99944,2.08538789 L14.15704,5.36318208 L7.99944,8.64211142 L1.84184,5.36318208 L7.99944,2.08546897 L7.99944,2.08538789 Z M16,8.32824556 C15.9997874,8.10812419 15.8788742,7.90636747 15.68624,7.80470335 L13.88656,6.84632193 L15.68624,5.88802159 C15.8789998,5.78583699 15.9998671,5.58365717 16,5.36318208 C15.9994994,5.14314269 15.8786696,4.94152528 15.68624,4.83963988 L8.27104,0.892600314 C8.10114699,0.801424895 7.89773301,0.801424895 7.72784,0.892600314 L0.31368,4.83963988 C0.121306751,4.94153372 0.000514699944,5.14310839 0,5.363101 C0.000162647924,5.58354695 0.121025655,5.78568834 0.31376,5.88785943 L2.11344,6.84624085 L0.31376,7.80454119 C0.121100331,7.90621879 0.000182767243,8.10801396 0,8.32816447 C0.000162647924,8.54861043 0.121025655,8.75075181 0.31376,8.8529229 L2.1052,9.80652052 L0.31376,10.7601181 C0.121025655,10.8622892 0.000162647924,11.0644306 0,11.2848766 C0.000470902092,11.5049451 0.121304955,11.7066009 0.31376,11.8084999 L7.72776,15.7555394 C7.8112872,15.800944 7.90465795,15.8245464 7.99944,15.8242153 C8.09304,15.8242153 8.18672,15.8016747 8.27104,15.7555394 L15.68624,11.8084999 C15.878695,11.7066009 15.9995291,11.5049451 16,11.2848766 C15.9998374,11.0644306 15.8789743,10.8622892 15.68624,10.7601181 L13.8948,9.8066016 L15.68624,8.8529229 C15.8789489,8.75076533 15.9998076,8.54866237 16,8.32824556 Z" id="形状"></path>
                </g>
            </g>
        </g>
    </g>
</svg>