<?xml version="1.0" encoding="UTF-8"?>
<svg width="24px" height="24px" viewBox="0 0 24 24" version="1.1" xmlns="http://www.w3.org/2000/svg" xmlns:xlink="http://www.w3.org/1999/xlink">
    <!-- Generator: Sketch 53.1 (72631) - https://sketchapp.com -->
    <title>成熟期icon</title>
    <desc>Created with Sketch.</desc>
    <g id="页面-1" stroke="none" stroke-width="1" fill="none" fill-rule="evenodd">
        <g id="04-07农事管理-农事决策服务" transform="translate(-1255.000000, -167.000000)">
            <g id="决策时间轴" transform="translate(224.000000, 72.000000)">
                <g id="成熟期" transform="translate(1022.000000, 86.000000)">
                    <g id="成熟期icon" transform="translate(9.000000, 9.000000)">
                        <rect id="矩形" x="0" y="0" width="24" height="24"></rect>
                        <path d="M5.20505219,21.4453556 C5.15965584,21.7964823 4.8543503,22.0421618 4.52313854,21.9939629 C4.1919268,21.9458282 3.96028438,21.6221062 4.00568075,21.2709154 C5.16528498,12.3043809 8.96217476,7.4774318 15.3523459,7.00160409 C15.6857366,6.97676659 15.9750626,7.24330453 15.9984872,7.59687006 C16.0219117,7.95049975 15.770537,8.25727833 15.4370857,8.28205167 C9.68966632,8.71000137 6.29365655,13.0272359 5.20505219,21.4452914 L5.20505219,21.4453556 Z" id="路径" fill="#ffffff" fill-rule="nonzero"></path>
                        <path d="M4.32002176,13.2663575 C3.95834615,12.646073 3.31874122,12.1058132 2.37587032,11.6581323 C2.19922306,12.5715523 2.29450942,13.3040198 2.62962348,13.8787879 C2.98427187,14.4871985 3.65366186,15.0026593 4.67073752,15.4055659 C4.78323733,14.5538652 4.65919743,13.8481756 4.32002176,13.2664193 L4.32002176,13.2663575 Z M5.60896659,17 C1.49630876,15.9766234 0.135995852,13.64329 1.52802789,10 C5.3909297,11.2168831 6.75124261,13.5502783 5.60896659,17 Z" id="形状" fill="#ffffff" fill-rule="nonzero"></path>
                        <path d="M6.81438845,9.05375367 C6.73029524,8.34485198 6.38518692,7.61008388 5.75338131,6.85212302 C5.28323966,7.63980538 5.10462893,8.35703905 5.18254911,9.01389699 C5.26501171,9.70924368 5.64378061,10.431576 6.35344814,11.1746139 C6.74811554,10.4213787 6.89324039,9.71869486 6.81438845,9.05375367 Z M6.57678436,13 C3.49340526,10.5600998 3.17718214,7.89349531 5.62823151,5 C8.43423112,7.5300596 8.75045422,10.1967885 6.57678436,12.9999378 L6.57678436,13 Z" id="形状" fill="#ffffff" fill-rule="nonzero"></path>
                        <path d="M11.3913677,6.38539153 C11.644176,5.67647583 11.6170303,4.82043891 11.2800486,3.80769293 C10.3676778,4.3304883 9.81655427,4.9237671 9.58232319,5.5806624 C9.33441123,6.27597376 9.40533579,7.13609199 9.83700361,8.17144708 C10.6479198,7.64567171 11.1544005,7.05031986 11.3914397,6.38539153 L11.3913677,6.38539153 Z M9.19393017,10 C6.93269648,6.24649769 7.88344574,3.57985262 12.0461779,2 C13.9522847,5.70828408 13.0015355,8.37492915 9.19393017,10 Z" id="形状" fill="#ffffff" fill-rule="nonzero"></path>
                        <path d="M15.4802965,5.58353853 C15.9908644,5.08948273 16.3737904,4.33769842 16.6124177,3.30613183 C15.7254211,3.33164369 15.0592729,3.58669705 14.5861529,4.04447512 C14.0852719,4.52907 13.7312293,5.304735 13.5485376,6.39998335 C14.3656589,6.32449172 15.001329,6.04699314 15.4802375,5.58353853 L15.4802965,5.58353853 Z M12.2377413,7.67851258 C12.4103326,3.38273265 14.3311052,1.5242816 18,2.1030942 C17.5989407,6.19412676 15.6781091,8.05257782 12.2377413,7.67851258 Z M9.55052618,13.76332 C8.90575993,13.9976898 8.28739626,14.5244347 7.70281844,15.371024 C8.52832714,15.7304085 9.23174609,15.7831939 9.82920034,15.5659842 C10.4616218,15.3361165 11.0619112,14.7748555 11.6174284,13.8455321 C10.8386411,13.562357 10.1553046,13.5434352 9.55052618,13.76332 Z M13.2763017,13.2344219 C11.5979366,17.1141823 9.17250272,17.9958749 6,15.8795648 C7.81628455,12.2868291 10.2417184,11.4051366 13.2763607,13.2344219 L13.2763017,13.2344219 Z" id="形状" fill="#ffffff" fill-rule="nonzero"></path>
                        <path d="M13.1060208,10.179965 C12.3969911,10.2178837 11.6431683,10.5170012 10.8451083,11.1031845 C11.5910846,11.628639 12.2888079,11.8557402 12.9457539,11.8206433 C13.6410058,11.7834887 14.3850669,11.4496858 15.1741682,10.7840201 C14.4566742,10.3368723 13.7708752,10.1443977 13.105959,10.179965 L13.1060208,10.179965 Z M17,10.6794935 C14.3533718,13.6236963 11.686664,13.7662591 9,11.1071234 C11.7155788,8.44822279 14.3822248,8.3057187 17,10.6794935 Z" id="形状" fill="#ffffff" fill-rule="nonzero"></path>
                        <path d="M18.6001955,9.37804791 C19.3091057,9.64330843 20.1704838,9.63276969 21.1942336,9.31689462 C20.6829451,8.39851973 20.0950318,7.83846159 19.438117,7.59262962 C18.7428246,7.33238754 17.87669,7.38637165 16.8287018,7.79609161 C17.3446816,8.61345244 17.9353315,9.12920488 18.6001955,9.37804791 Z M15,7.1206093 C18.8103274,4.94203193 21.4769506,5.93998497 23,10.1144684 C19.2407558,11.9404644 16.5741326,10.9425114 15,7.1206093 L15,7.1206093 Z" id="形状" fill="#ffffff" fill-rule="nonzero"></path>
                    </g>
                </g>
            </g>
        </g>
    </g>
</svg>