<?xml version="1.0" encoding="UTF-8"?>
<svg width="24px" height="24px" viewBox="0 0 24 24" version="1.1" xmlns="http://www.w3.org/2000/svg" xmlns:xlink="http://www.w3.org/1999/xlink">
    <!-- Generator: Sketch 53.1 (72631) - https://sketchapp.com -->
    <title>抽穗期icon</title>
    <desc>Created with Sketch.</desc>
    <g id="页面-1" stroke="none" stroke-width="1" fill="none" fill-rule="evenodd">
        <g id="04-07农事管理-农事决策服务" transform="translate(-1166.000000, -167.000000)">
            <g id="决策时间轴" transform="translate(224.000000, 72.000000)">
                <g id="抽穗期" transform="translate(933.000000, 86.000000)">
                    <g id="抽穗期icon" transform="translate(9.000000, 9.000000)">
                        <rect id="矩形" x="0" y="0" width="24" height="24"></rect>
                        <path d="M9.49753101,3.03093126 L10.8869851,3.03093126 L10.8869851,8.03017696 L9.49753101,8.03017696 L9.49753101,3.03093126 Z M7.05727939,11.0240104 C6.44937793,9.56807676 5.16722511,8.53561849 3.07432475,8.57773451 C2.69219428,11.5679228 3.74860062,13.1203046 7.05727939,13.0936065 C10.3660071,13.1203046 11.4214583,11.5679228 11.0393033,8.57773451 C8.94642744,8.53561849 7.66425012,9.56819991 7.05727939,11.0240104 L7.05727939,11.0240104 Z M7.39522557,2 L8.78455715,2 L8.78455715,8.03022622 L7.39522557,8.03022622 L7.39522557,2 Z M7.05727939,15.5625906 C6.44937793,14.1073465 5.16722511,13.0748883 3.07432475,13.116561 C2.69219428,16.1067246 3.74860062,17.6592542 7.05727939,17.632433 C10.3660071,17.6592788 11.4214583,16.1067246 11.0393033,13.1166595 C8.94642744,13.0748883 7.66425012,14.1073465 7.05727939,15.5625906 Z M7.05727939,19.9304407 C6.44937793,18.4744825 5.16722511,17.4422459 3.07432475,17.4837954 C2.69219428,20.4743285 3.74860062,22.0261192 7.05727939,21.9996674 C10.3660071,22.0261192 11.4214583,20.4743285 11.0393033,17.4837954 C8.94642744,17.442369 7.66425012,18.4745071 7.05727939,19.9304407 Z M5.28706644,2 L6.67617759,2 L6.67617759,8.03022622 L5.28706644,8.03022622 L5.28706644,2 Z M3.15345971,3.03093126 L4.54347707,3.03093126 L4.54347707,8.03017696 L3.15345971,8.03017696 L3.15345971,3.03093126 Z M19.3838896,3.03093126 L20.7733437,3.03093126 L20.7733437,8.03017696 L19.3838896,8.03017696 L19.3838896,3.03093126 Z M16.943638,11.0240104 C16.3357365,9.56807676 15.0535837,8.53561849 12.9605609,8.57773451 C12.5785284,11.5679228 13.6348368,13.1203046 16.943638,13.0936065 C20.2523168,13.1203046 21.3076944,11.5679228 20.9256619,8.57773451 C18.8326391,8.53561849 17.5504863,9.56819991 16.943638,11.0240104 L16.943638,11.0240104 Z M17.2814372,2 L18.6708913,2 L18.6708913,8.03022622 L17.2814372,8.03022622 L17.2814372,2 Z M16.943638,15.5625906 C16.3357365,14.1073465 15.0535837,13.0748883 12.9605609,13.116561 C12.5785284,16.1067246 13.6348368,17.6592542 16.943638,17.632433 C20.2523168,17.6592788 21.3076944,16.1067246 20.9256619,13.1166595 C18.8326391,13.0748883 17.5504863,14.1073465 16.943638,15.5625906 Z M16.943638,19.9304407 C16.3357365,18.4744825 15.0535837,17.4422459 12.9605609,17.4837954 C12.5785284,20.4743285 13.6348368,22.0261192 16.943638,21.9996674 C20.2523168,22.0261192 21.3076944,20.4743285 20.9256619,17.4837954 C18.8326391,17.442369 17.5504863,18.4745071 16.943638,19.9304407 Z M15.1733271,2 L16.5625362,2 L16.5625362,8.03022622 L15.1733271,8.03022622 L15.1733271,2 Z M13.0396714,3.03093126 L14.4296887,3.03093126 L14.4296887,8.03017696 L13.0396714,8.03017696 L13.0396714,3.03093126 Z" id="形状" fill="#ffffff" fill-rule="nonzero"></path>
                    </g>
                </g>
            </g>
        </g>
    </g>
</svg>