<?xml version="1.0" encoding="UTF-8"?>
<svg width="24px" height="24px" viewBox="0 0 24 24" version="1.1" xmlns="http://www.w3.org/2000/svg" xmlns:xlink="http://www.w3.org/1999/xlink">
    <!-- Generator: Sketch 53.1 (72631) - https://sketchapp.com -->
    <title>拔节期icon</title>
    <desc>Created with Sketch.</desc>
    <g id="页面-1" stroke="none" stroke-width="1" fill="none" fill-rule="evenodd">
        <g id="04-07农事管理-农事决策服务" transform="translate(-987.000000, -167.000000)">
            <g id="决策时间轴" transform="translate(224.000000, 72.000000)">
                <g id="拔节期" transform="translate(754.000000, 86.000000)">
                    <g id="拔节期icon" transform="translate(9.000000, 9.000000)">
                        <rect id="矩形" x="0" y="0" width="24" height="24"></rect>
                        <path d="M19.3579579,2 L4.64204207,2 C3.45902748,2 2.5,3.00952267 2.5,4.25462715 L2.5,19.745174 C2.5,20.9904773 3.45902748,22 4.64204207,22 L19.3579579,22 C20.5409725,22 21.5,20.9904773 21.5,19.745174 L21.5,4.25462715 C21.5,3.00932387 20.5407837,2 19.3579579,2 Z M16.19702,3.93892765 C16.4512246,4.05681795 16.6285635,4.32440707 16.6285635,4.63553408 C16.6285635,4.94666109 16.4512246,5.21425021 16.19702,5.3321405 C15.9428154,5.21425021 15.7654765,4.94666109 15.7654765,4.63553408 C15.7654765,4.32440707 15.9430042,4.05681795 16.19702,3.93892765 Z M15.342054,5.47090515 C15.6145779,5.35957537 15.9360164,5.41981273 16.1562264,5.65141845 L16.1972089,5.69773961 L16.2378136,5.65141845 C16.4580235,5.41961392 16.7792732,5.35957535 17.0523637,5.47090515 C17.1583138,5.75797699 17.1010894,6.09634004 16.8808795,6.32794578 C16.7399905,6.47645177 16.5573635,6.55438263 16.3726591,6.56213595 L16.0219474,6.56273236 C15.8374319,6.55438263 15.6549938,6.47625296 15.5141048,6.32794578 C15.2933283,6.09634004 15.2362928,5.75817578 15.342054,5.47090515 Z M15.0568765,6.8203813 C15.4206195,6.67187531 15.8491412,6.751993 16.1424397,7.06093318 C16.1617033,7.0810123 16.1796449,7.10168783 16.19702,7.12276097 C16.2140173,7.10168783 16.2325255,7.0810123 16.2512226,7.06093318 C16.5448988,6.751993 16.9734205,6.6716765 17.3367858,6.8203813 C17.4780526,7.20307748 17.4017534,7.65416195 17.1084549,7.96310212 C16.9203511,8.1609113 16.6769114,8.26508419 16.4308278,8.27522316 L15.9630233,8.27601837 C15.716562,8.26508419 15.4735001,8.16091132 15.2853962,7.96310212 C14.9920977,7.65416195 14.9159874,7.20307748 15.0568765,6.8203813 Z M12,3.93892765 C12.2542046,4.05681795 12.4313546,4.32440707 12.4313546,4.63553408 C12.4313546,4.94666109 12.2542046,5.21425021 12,5.3321405 C11.7457954,5.21425021 11.5684565,4.94666109 11.5684565,4.63553408 C11.5684565,4.32440707 11.7459843,4.05681795 12,3.93892765 Z M11.145034,5.47090515 C11.417558,5.35957537 11.7389965,5.41981273 11.9592064,5.65141845 L12,5.69793841 L12.0406048,5.65161726 C12.2610035,5.41981273 12.5822532,5.35977416 12.8551549,5.47110396 C12.9607272,5.7581758 12.9035028,6.09653884 12.6836706,6.32814459 C12.5427816,6.47665058 12.3601547,6.55458144 12.1754503,6.56233476 L11.8245497,6.56293117 C11.6400342,6.55458144 11.4575961,6.47645177 11.3167071,6.32814459 C11.0963083,6.09634004 11.0390839,5.75817578 11.145034,5.47090515 Z M10.8598565,6.8203813 C11.2235995,6.67187531 11.6517435,6.751993 11.9454197,7.06093318 C11.9646833,7.0810123 11.9826249,7.10168783 12,7.12276097 C12.0169973,7.10168783 12.0351278,7.0810123 12.0542026,7.06093318 C12.3478788,6.751993 12.7762117,6.6716765 13.1399547,6.8203813 C13.2812214,7.20307748 13.2049223,7.65416195 12.9112461,7.96310212 C12.7235199,8.1609113 12.4800803,8.26508419 12.2339966,8.27522316 L11.7661922,8.27601837 C11.5197308,8.26508419 11.2766689,8.16091132 11.088565,7.96310212 C10.7948889,7.65416195 10.7189674,7.20307748 10.8598565,6.8203813 Z M7.80297999,3.93892765 C8.05699574,4.05681795 8.23452348,4.32440707 8.23452348,4.63553408 C8.23452348,4.94666109 8.0571846,5.21425021 7.80297999,5.3321405 C7.54877538,5.21425021 7.3714365,4.94666109 7.3714365,4.63553408 C7.3714365,4.32440707 7.5487754,4.05681795 7.80297999,3.93892765 Z M6.94782514,5.47090515 C7.22053796,5.35957537 7.54197646,5.41981273 7.76199754,5.65141845 L7.80279114,5.69773961 L7.84358474,5.65141845 C8.06379467,5.41961392 8.38504433,5.35957535 8.65775715,5.47090515 C8.76370721,5.75797699 8.70648285,6.09634004 8.48627292,6.32794578 C8.34519503,6.47645177 8.16275697,6.55438263 7.97824143,6.56213595 L7.62734088,6.56273236 C7.44263649,6.55438263 7.26019841,6.47625296 7.11930938,6.32794578 C6.8992883,6.09634004 6.84206393,5.75817578 6.94782514,5.47090515 Z M6.66283646,6.8203813 C7.0263906,6.67187531 7.45491233,6.751993 7.74858852,7.06093318 C7.76766331,7.0810123 7.78579381,7.10168783 7.80298001,7.12276097 C7.82016621,7.10168783 7.83829669,7.0810123 7.85737149,7.06093318 C8.15085882,6.751993 8.57938055,6.6716765 8.94312355,6.8203813 C9.08420145,7.20307748 9.00790228,7.65416195 8.71441495,7.96310212 C8.52649997,8.1609113 8.28324919,8.26508419 8.03697668,8.27522316 L7.56917221,8.27601837 C7.32308857,8.26508419 7.07964893,8.16091132 6.89173395,7.96310212 C6.59805773,7.65416195 6.52175857,7.20307748 6.66283646,6.8203813 Z M9.01810066,10.0596807 C8.82300902,10.2650444 8.58315771,10.3946641 8.33178601,10.448341 L8.33178601,20.0608735 L7.27417399,20.0608735 L7.27417399,10.4491362 C7.02261342,10.3948629 6.78295098,10.2650444 6.58785933,10.0596807 C6.19654289,9.64776048 6.09493658,9.04657958 6.28285159,8.53605296 C6.76765339,8.33804497 7.33895273,8.44500109 7.73045804,8.85692134 C7.75576519,8.88356097 7.78012803,8.91119462 7.80298001,8.93942466 C7.82583199,8.9111946 7.85019483,8.88356097 7.87550197,8.85692134 C8.26681842,8.44500111 8.83811778,8.33804497 9.32291956,8.53605296 C9.51083455,9.04657958 9.40941713,9.64776048 9.01810066,10.0596807 Z M13.2151207,10.0596807 C13.020029,10.2650444 12.7801777,10.3946641 12.5286171,10.448341 L12.5286171,20.0608735 L11.4710051,20.0608735 L11.4710051,10.4491362 C11.2194446,10.3948629 10.9795933,10.2650444 10.7845016,10.0596807 C10.3931852,9.64776048 10.2915789,9.04657958 10.4796827,8.53605296 C10.9644845,8.33804497 11.5357839,8.44500109 11.9272892,8.85692134 C11.9527852,8.88356097 11.9767703,8.91119462 12,8.93942466 C12.022852,8.9111946 12.0468371,8.88356097 12.0723331,8.85692134 C12.4638384,8.44500111 13.0351378,8.33804497 13.5199396,8.53605296 C13.7080434,9.04657958 13.606626,9.64776048 13.2151207,10.0596807 Z M17.4121407,10.0596807 C17.217049,10.2650444 16.9771977,10.3946641 16.7256371,10.448341 L16.7256371,20.0608735 L15.6680251,20.0608735 L15.6680251,10.4491362 C15.4164646,10.3948629 15.1766133,10.2650444 14.9818993,10.0596807 C14.5905829,9.64776048 14.4887877,9.04657958 14.6768916,8.53605296 C15.1615045,8.33804497 15.7329927,8.44500109 16.1243092,8.85692134 C16.1498052,8.88356097 16.174168,8.91119462 16.19702,8.93942466 C16.219872,8.9111946 16.2442348,8.88356097 16.2693531,8.85692134 C16.6606695,8.44500111 17.2321577,8.33804497 17.7171484,8.53605296 C17.9052523,9.04657958 17.8034571,9.64776048 17.4121407,10.0596807 Z" id="形状" fill="#ffffff" fill-rule="nonzero"></path>
                    </g>
                </g>
            </g>
        </g>
    </g>
</svg>