<?xml version="1.0" encoding="UTF-8"?>
<svg width="16px" height="16px" viewBox="0 0 16 16" version="1.1" xmlns="http://www.w3.org/2000/svg" xmlns:xlink="http://www.w3.org/1999/xlink">
    <!-- Generator: Sketch 53.1 (72631) - https://sketchapp.com -->
    <title>指标统计icon</title>
    <desc>Created with Sketch.</desc>
    <g id="页面-1" stroke="none" stroke-width="1" fill="none" fill-rule="evenodd">
        <g id="01-03智慧土壤-土壤养分分布" transform="translate(-1088.000000, -156.000000)" fill="#00BB65" fill-rule="nonzero">
            <g id="分组-10" transform="translate(1072.000000, 138.000000)">
                <g id="指标统计icon" transform="translate(16.000000, 18.000000)">
                    <path d="M14.7142333,8 C14.7142333,4.29194793 11.7081109,1.28576021 8.00004018,1.28576021 C4.29188912,1.28576021 1.28576666,4.29194793 1.28576666,8 C1.28576666,11.7081324 4.29188912,14.7142398 8.00004018,14.7142398 C11.7081109,14.7142398 14.7142333,11.7081324 14.7142333,8 Z M16,8 C16,12.4181935 12.4182559,16 8.00004018,16 C3.58182448,16 0,12.4181935 0,8 C-1.60313566e-16,3.58180649 3.58182448,0 8.00004018,0 C12.4182559,0 16,3.58180649 16,8 Z" id="形状"></path>
                    <path d="M7,0.669443618 C7,0.299720117 7.2997229,7.22183164e-16 7.66944984,0 C12.2711644,0 16,3.72930303 16,8.33055638 C16,8.50810387 15.9294689,8.67837947 15.8039227,8.8039245 C15.6783765,8.92946954 15.5080993,9 15.3305502,9 L7.66944984,9 C7.2997229,9 7,8.70027988 7,8.33055638 L7,0.669443618 Z M8.33889968,1.37051845 L8.33889968,7.66111276 L14.6294688,7.66111276 C14.3135722,4.33372694 11.6665675,1.68649583 8.33889968,1.37051845 Z" id="形状"></path>
                </g>
            </g>
        </g>
    </g>
</svg>