<?xml version="1.0" encoding="UTF-8"?>
<svg width="16px" height="16px" viewBox="0 0 16 16" version="1.1" xmlns="http://www.w3.org/2000/svg" xmlns:xlink="http://www.w3.org/1999/xlink">
    <!-- Generator: Sketch 53.1 (72631) - https://sketchapp.com -->
    <title>指标变化趋势icon</title>
    <desc>Created with Sketch.</desc>
    <g id="页面-1" stroke="none" stroke-width="1" fill="none" fill-rule="evenodd">
        <g id="01-03智慧土壤-土壤养分分布" transform="translate(-1088.000000, -374.000000)" fill="#00BB65" fill-rule="nonzero">
            <g id="分组-10" transform="translate(1072.000000, 356.000000)">
                <g id="指标变化趋势icon" transform="translate(16.000000, 18.000000)">
                    <path d="M2.25137297,11.03528 L13.748627,11.03528 L13.748627,2.6044 L2.25137297,2.6044 L2.25137297,11.03528 Z M14.3743135,1.24088 C14.7196973,1.24088 15,1.54624 15,1.92264 L15,11.71704 C15,12.0948 14.7196973,12.39888 14.3743135,12.39888 L8.62568649,12.39888 L8.62568649,12.45336 L11.8779243,14.74552 C12.1682162,14.95008 12.2507784,15.37272 12.0643892,15.68776 C11.9442162,15.88952 11.7427676,16 11.5388216,16 C11.4176502,15.9999924 11.2991992,15.9620201 11.1984324,15.89088 L8.62568649,14.07736 L8.62568649,14.82872 C8.62568649,15.20504 8.34538378,15.51048 8,15.51048 C7.65340541,15.51048 7.37431351,15.20504 7.37431351,14.82872 L7.37431351,14.07736 L4.80035676,15.89096 C4.69995203,15.9618912 4.58193887,15.9998303 4.46117838,16 C4.25602162,16 4.0544973,15.8896 3.93561081,15.68776 C3.74793514,15.3728 3.83178378,14.95008 4.12086486,14.74552 L7.37431351,12.45336 L7.37431351,12.39888 L1.62568649,12.39888 C1.2803027,12.39888 1,12.0948 1,11.71704 L1,1.92264 C1,1.54624 1.2803027,1.2408 1.62568649,1.2408 L7.37431351,1.2408 L7.37431351,0.68176 C7.37431351,0.30408 7.65340541,0 8,0 C8.34538378,0 8.62568649,0.304 8.62568649,0.68176 L8.62568649,1.2408 L14.3743135,1.2408 L14.3743135,1.24088 Z M6.05437838,5.176 C6.26831351,4.97416 6.58115676,4.9524 6.81264865,5.12416 L9.40295135,7.01816 L11.6829081,5.01096 C11.9519351,4.77512 12.3448432,4.82008 12.5625622,5.11328 C12.7803568,5.4064 12.7390378,5.83456 12.4700108,6.07184 L9.8308973,8.394 C9.61696216,8.58216 9.31410811,8.59576 9.0888973,8.42944 L6.51365405,6.54776 L4.33374054,8.61352 C4.22098088,8.72049424 4.07485879,8.77974219 3.92335135,8.77992 C3.74816216,8.77992 3.57547027,8.70072 3.45158919,8.54536 C3.22380541,8.26176 3.25256216,7.8308 3.51288649,7.584 L6.05437838,5.176 L6.05437838,5.176 Z" id="形状"></path>
                </g>
            </g>
        </g>
    </g>
</svg>