<?xml version="1.0" encoding="UTF-8"?>
<svg width="24px" height="24px" viewBox="0 0 24 24" version="1.1" xmlns="http://www.w3.org/2000/svg" xmlns:xlink="http://www.w3.org/1999/xlink">
    <!-- Generator: Sketch 53.1 (72631) - https://sketchapp.com -->
    <title>插秧icon</title>
    <desc>Created with Sketch.</desc>
    <g id="页面-1" stroke="none" stroke-width="1" fill="none" fill-rule="evenodd">
        <g id="04-07农事管理-农事决策服务" transform="translate(-719.000000, -167.000000)">
            <g id="决策时间轴" transform="translate(224.000000, 72.000000)">
                <g id="插秧" transform="translate(486.000000, 86.000000)">
                    <g id="插秧icon" transform="translate(9.000000, 9.000000)">
                        <rect id="矩形" x="0" y="0" width="24" height="24"></rect>
                        <g id="插秧" transform="translate(0.000000, 5.000000)" fill="#FFFFFF" fill-rule="nonzero">
                            <path d="M5.46833525,14.9991469 L5.04664377,14.9991469 L5.03360801,14.8569647 C4.95539349,14.8507087 4.87778528,14.8413247 4.80169285,14.8285283 L4.74985298,14.9627483 L4.34271303,14.8598084 L4.36878454,14.719048 C4.29521842,14.6938344 4.22326914,14.665398 4.1529367,14.6337387 L4.06562748,14.7511812 L3.7003232,14.5521262 L3.76489565,14.4218873 C3.70097098,14.3797366 3.63906637,14.3349528 3.57936353,14.2876673 L3.46295121,14.3800857 L3.16464464,14.0988494 L3.26286754,13.9888004 C3.21274557,13.9319275 3.16535201,13.8737276 3.12068686,13.8142007 L2.98244725,13.8750547 L2.7702373,13.5306895 L2.89544115,13.4482238 C2.86290229,13.3820617 2.83329396,13.3142882 2.80661614,13.2449033 L2.6550376,13.2702117 L2.54984209,12.8860355 L2.69444801,12.8365561 C2.68141225,12.7648963 2.67110493,12.6923834 2.66413231,12.618733 L2.50982536,12.6059366 L2.50982536,12.2078266 L2.66473862,12.1950302 C2.67171123,12.1216642 2.68171542,12.0494357 2.69505433,11.9777758 L2.54984209,11.9285808 L2.65897865,11.5444046 L2.81267928,11.5699974 C2.83935711,11.5011812 2.86916755,11.4339764 2.90211061,11.3683831 L2.77357202,11.2830738 L2.98426618,10.9387085 L3.12765949,11.0018374 C3.17192043,10.9423105 3.21890977,10.8847741 3.26862753,10.8292283 L3.16646359,10.7154825 L3.46446699,10.4345306 L3.58572982,10.5312144 C3.64454229,10.4845787 3.70517371,10.4405022 3.76762407,10.398985 L3.70183898,10.2624902 L4.06562748,10.0634351 L4.15657459,10.1871336 C4.2256944,10.1564223 4.29693631,10.1288389 4.36878454,10.1038149 L4.3408941,9.95537666 L4.7483372,9.85243677 L4.80290548,9.99461895 C4.87808843,9.98239128 4.95448401,9.9727229 5.03118276,9.96618252 L5.04512799,9.81490068 L5.46681947,9.81490068 L5.4807647,9.96618252 C5.5577666,9.97215417 5.63234323,9.98182255 5.70904198,9.99461895 L5.76361026,9.85243677 L6.17075021,9.95537666 L6.14285975,10.1038149 C6.21541535,10.1286493 6.286152,10.1564223 6.3550697,10.1871336 L6.44601683,10.0637195 L6.80980532,10.2627745 L6.74220128,10.3992694 C6.80525795,10.4407866 6.86619252,10.4845787 6.92409554,10.5314988 L7.04535836,10.4348149 L7.34336177,10.7160513 L7.24119783,10.829797 C7.2909156,10.8851533 7.33790495,10.9425949 7.38216588,11.0021218 L7.52525602,10.9392773 L7.73746597,11.2833581 L7.60892736,11.3686674 C7.64189876,11.4345998 7.67173849,11.5018706 7.69835871,11.5702817 L7.85205934,11.5449733 L7.96119588,11.9291495 L7.81477102,11.9791976 C7.82831204,12.0504783 7.83841727,12.1228016 7.84508673,12.1961676 L8,12.208964 L8,12.6070741 L7.84569305,12.6198705 C7.83928725,12.6928892 7.82917051,12.7655795 7.81537734,12.8376936 L7.95998327,12.887173 L7.85114987,13.2713492 L7.69957134,13.2460408 C7.67289352,13.3152361 7.64318412,13.3830096 7.61044315,13.4493613 L7.73564702,13.5321113 L7.52343707,13.8761921 L7.38489429,13.8153382 C7.3403302,13.8756234 7.29394716,13.9339181 7.24301678,13.9899379 L7.34123967,14.1005556 L7.04293311,14.3815076 L6.92621764,14.2890891 C6.86558622,14.3362936 6.8049548,14.3812232 6.7406855,14.4233091 L6.80525795,14.5532636 L6.43995369,14.7523186 L6.35325077,14.6351606 C6.28291833,14.6662511 6.21086799,14.6946875 6.13709976,14.7204699 L6.16347444,14.8609458 L5.75603132,14.9638857 L5.70419147,14.8293814 C5.62779589,14.8421778 5.55079399,14.8518462 5.47227631,14.8578178 L5.4589374,15 L5.46833525,14.9991469 Z M5.25885372,10.5326363 C4.1515176,10.5327933 3.25396438,11.3749193 3.25407599,12.4136115 C3.2541876,13.4523038 4.15192177,14.29426 5.2592579,14.2942077 C6.36659403,14.2941553 7.26423774,13.4521142 7.26423777,12.413422 C7.26423778,11.9145573 7.05294718,11.436129 6.676856,11.0834051 C6.30076482,10.7306812 5.79068676,10.5325608 5.25885372,10.5326363 L5.25885372,10.5326363 Z M5.25885372,12.5976901 C5.12234207,12.598381 4.99886214,12.5217778 4.94611021,12.4036734 C4.89335828,12.285569 4.92174933,12.1492812 5.01801757,12.0584908 C5.11428581,11.9677003 5.25942472,11.9403323 5.3856178,11.9891744 C5.51181088,12.0380165 5.59414346,12.1534258 5.59414544,12.2814769 C5.59454892,12.365411 5.55926436,12.4460331 5.496105,12.5054907 C5.43294563,12.5649483 5.34712296,12.5983353 5.25764109,12.5982588 L5.25885372,12.5976901 Z M1.8068041,10.2033424 C1.74410512,10.2031764 1.68987188,10.1623377 1.6761434,10.1049523 L0.00332266367,3.30693849 C-0.0129465392,3.2390763 0.0320907547,3.1715851 0.104273967,3.15565667 C0.176564804,3.14063007 0.248220158,3.18319434 0.264644056,3.25091872 L1.93776796,10.0489325 C1.95419624,10.1169118 1.90892376,10.1845523 1.83651349,10.2002144 C1.82657033,10.2023483 1.8163977,10.2033979 1.80619778,10.2033424 L1.8068041,10.2033424 Z M6.03069164,6.93087759 L5.63840638,6.93087759 L5.63840638,2.35261178 L3.38231142,2.35261178 L3.38231142,6.93087759 L2.94758418,6.93087759 L2.94758418,2 L6.03069164,2 L6.03069164,6.93087759 L6.03069164,6.93087759 Z" id="形状"></path>
                            <path d="M18.9988141,10.6936332 L18.9988141,11.3072142 L18.772894,11.3269889 C18.7631101,11.4399873 18.7491754,11.5529856 18.7296075,11.6623115 L18.9415928,11.7394329 L18.7829745,12.3326742 L18.5626876,12.2936897 C18.5241448,12.4004732 18.4805618,12.5049966 18.4328281,12.6069777 L18.6160545,12.7352308 L18.3091947,13.2666055 L18.1064003,13.1719693 C18.041767,13.2648163 17.9725877,13.35465 17.8988622,13.4414704 L18.04236,13.6109679 L17.6100878,14.045164 L17.4396101,13.9019386 C17.3527406,13.9751051 17.2634992,14.0431865 17.1704036,14.1090081 L17.2643887,14.3104276 L16.7339807,14.6175006 L16.6073824,14.4364208 C16.5051946,14.4844451 16.4004373,14.5280436 16.2931105,14.5672164 L16.3316533,14.7844557 L15.7386873,14.9432183 L15.6630842,14.7350189 C15.5521995,14.7547936 15.4398325,14.7697659 15.3256865,14.7793707 L15.3067116,15 L14.6923989,15 L14.673424,14.7793707 C14.5595745,14.7694834 14.446911,14.7545111 14.3360264,14.7350189 L14.2604232,14.9429358 L13.6674573,14.7841732 L13.7060001,14.5669339 C13.5986732,14.5279494 13.4940147,14.4838801 13.3917281,14.4358558 L13.2651299,14.6172181 L12.7338324,14.3104276 L12.828114,14.1087256 C12.735216,14.0437515 12.6454805,13.9747284 12.5589074,13.9016561 L12.3881333,14.045164 L11.9543787,13.6112504 L12.0978764,13.4403404 C12.0253369,13.3538967 11.9561576,13.2641572 11.8903383,13.1711219 L11.687544,13.265758 L11.382463,12.7338183 L11.5656895,12.6055652 C11.5179557,12.5033017 11.4743728,12.3990607 11.4361264,12.2922773 L11.2155431,12.3312617 L11.0566282,11.7380204 L11.2692065,11.660899 C11.2502316,11.5507257 11.2354075,11.4388573 11.22592,11.3255765 L11,11.3058017 L11,10.6927858 L11.227106,10.6730111 C11.2369887,10.5600127 11.251714,10.4486152 11.2712819,10.3388185 L11.0572212,10.2597196 L11.2161361,9.66647834 L11.4408702,9.70631024 C11.479413,9.6003743 11.5232924,9.49669832 11.5710262,9.39556482 L11.383056,9.26420425 L11.6896194,8.73424203 L11.8995293,8.83226808 C11.9637673,8.74055109 12.0319584,8.65194156 12.1041026,8.56643949 L11.9558611,8.3887496 L12.3896157,7.95483598 L12.5675055,8.10484127 C12.6528926,8.03308732 12.7418374,7.96519415 12.8343401,7.90116176 L12.7347219,7.68900738 L13.2651299,7.38221688 L13.3988437,7.57374907 C13.4996479,7.52657226 13.6031205,7.48335039 13.7083719,7.44521346 L13.6677538,7.21582682 L14.2607197,7.05678166 L14.3410666,7.27741092 C14.4501723,7.2582012 14.5607605,7.24379391 14.672831,7.23418906 L14.6929919,7 L15.3064151,7 L15.326576,7.23418906 C15.4383501,7.24379392 15.5492347,7.2584837 15.6583404,7.27769341 L15.7383908,7.05706415 L16.3313568,7.21610931 L16.2892562,7.44521346 C16.3945077,7.48335039 16.4967943,7.52657226 16.5987844,7.57374907 L16.7324982,7.38249937 L17.2649816,7.68900738 L17.1662528,7.90059677 C17.2579649,7.96462916 17.3469098,8.03252233 17.4330875,8.10427628 L17.6109773,7.95455347 L18.0450283,8.3884671 L17.8967869,8.56615699 C17.968931,8.65165907 18.0371221,8.74036277 18.1013601,8.83226808 L18.3109736,8.73424203 L18.6178335,9.26561673 L18.4298633,9.39725978 C18.477597,9.4986758 18.52118,9.60206927 18.5600193,9.70800522 L18.7847534,9.6681733 L18.9433718,10.2614146 L18.7287181,10.3393835 C18.7484836,10.4493685 18.7632089,10.5608602 18.772894,10.6738585 L19,10.6936332 L18.9988141,10.6936332 Z M12.0089315,11.1778311 C12.0086659,11.5670512 12.0855158,11.9528209 12.2354445,12.3148769 L13.9328095,11.3216215 C13.9013668,11.2171847 13.8853999,11.1090727 13.8853723,11.0004237 C13.8853723,10.4450369 14.2918504,9.98541614 14.8234444,9.90094989 L14.8661379,8.19749991 C13.2760998,8.27405629 12.009228,9.57692714 12.009228,11.1781136 L12.0089315,11.1778311 Z M14.073046,11.6193721 L12.375681,12.6114976 C12.8859282,13.5372365 13.8744024,14.1652248 15.0105251,14.1652248 C16.109291,14.1652248 17.0672275,13.5765034 17.589927,12.7007663 L15.9079791,11.6416893 C15.7058276,11.9411959 15.3560055,12.1203521 14.982309,12.1157577 C14.6086125,12.1111633 14.2637584,11.9234664 14.0697847,11.6190897 L14.073046,11.6193721 Z M15.1922692,8.19749991 L15.1495757,9.89586497 C15.6930289,9.97016138 16.1125523,10.4351496 16.1125523,10.9990113 C16.112466,11.1167573 16.0936735,11.2338125 16.0568135,11.3461987 L17.7440981,12.4086656 C17.9220841,12.0198888 18.0139335,11.6002917 18.0138976,11.1761362 C18.0138976,9.58681451 16.7660008,8.29128854 15.1925657,8.19721741 L15.1922692,8.19749991 Z" id="形状"></path>
                            <path d="M10.5023284,8.38701646 C10.5023284,8.38701646 9.63800522,9.23655935 9.74226317,10.1501632 L1,10.0849268 L1,10.8689394 C1.10050269,10.9249647 1.20650795,10.9689198 1.31607489,11 L9.74226317,10.9347636 L15,10.9347636 L15,7.01499441 C15,7.01499441 11.7814827,6.75639954 10.5023284,8.38701646 Z" id="路径"></path>
                            <path d="M9.40831393,5.62029152 L8.24792852,8.66729571 L5.60401951,8.66729571 L5.60401951,6.2594294 L5.78098948,6.2594294 L5.78098948,8.49179351 L8.1941655,8.49179351 L8.31793248,8.29304993 L7.20486973,8.29304993 L7.14382629,4.44928364 L7.39080022,3.65550121 L7.57645068,3.65550121 L8.13368208,3.12541901 L8.87684398,3.45675763 L8.93872746,3.19186553 L6.27661742,2 L6.15285044,2.26489212 L6.8335688,2.59623072 L6.95761579,3.45735357 L7.01809921,3.45735357 L6.79688674,4.23057632 L5.99884175,3.87480447 L6.819288,3.87480447 L6.819288,3.47672137 L1,3.47672137 L1,3.87420853 L5.49341327,3.87420853 L4.23334224,5.04670624 L5.78098948,5.11315274 L5.78098948,5.86045241 L5.60401951,5.86045241 L5.60401951,5.2889529 L4.05637227,5.22280436 C4.05637227,5.22280436 3.56998486,5.38906959 3.02031387,5.86194224 L1,5.86194224 L1,6.2594294 L2.61681113,6.2594294 C2.0486591,6.90065305 1.51914926,7.89556279 1.47658686,9.3958235 L10.1178739,9.3958235 C10.1178739,9.3958235 10.1315947,7.44742134 12.568292,6.61371142 C12.568292,6.61371142 13.7163567,6.19357884 15.5989029,6.28267078 L15.4107322,5.44598119 L9.40831393,5.62029152 Z M16.0648491,4.72669035 L22.1949546,14 L22.4388484,13.530405 L22.4427686,13.5363643 L23,13.2714722 L16.7458475,3.66682392 L16.3773467,3.91294416 C16.0665292,3.42427929 15.6313847,2.7392546 15.6313847,2.7392546 L14.6409689,2.2756189 L16.1426935,4.65368857 L16.0648491,4.72669035 Z M16.7410872,4.04941276 L22.5144526,13.1129541 L22.378365,13.211283 L16.560197,4.26305465 L16.3905075,4.4221687 L16.3381445,4.34082388 L16.7410872,4.04941276 Z" id="形状"></path>
                            <path d="M23.6774187,13.3652789 L21.526534,13.3652789 L16.851325,6.82382346 L15.0637791,6.06341499 L15,6 L15,6.63472114 L16.8504592,7.39684353 L17.8074341,8.79368707 L15,7.65107476 L15,8.09555095 L18.3188211,9.49268013 L21.2056184,13.3652789 L19.0195253,13.3652789 L20.4870214,13.936585 L23.8058426,14 C23.8058426,14 24.3186726,13.6409341 23.6774187,13.3652789 L23.6774187,13.3652789 Z" id="路径"></path>
                            <path d="M11.3999873,1.46708258 C11.566597,1.13331975 11.5610855,0.678756365 11.3864891,0.353799048 C11.2118926,0.0288417316 10.9106498,-0.0875230101 10.6487072,0.0688069956 C10.3867646,0.225137001 10.2277918,0.616163035 10.2593626,1.02647949 C10.2909335,1.43679594 10.5053741,1.76666828 10.784555,1.8343788 C10.6657618,2.14116847 10.5569722,2.45373512 10.482987,2.8766731 C10.3443949,2.97822686 10.1939234,3.08951032 10.0382418,3.19562488 C9.45469606,3.59788723 8.24592283,3.42427286 8.29802512,3.58329267 C8.35012741,3.74231249 9.64018023,4.17345989 10.2243512,3.77119754 C10.2849982,3.72923821 10.3437696,3.68363022 10.4006653,3.63619792 C10.3917037,3.80099475 10.3864935,3.97825775 10.3864935,4.17345989 C10.3864935,4.72592452 10.3900365,5.2409906 10.4190053,5.6773069 C10.2208082,5.62348949 9.95216877,5.64690158 9.58911998,5.81960378 C9.56154699,5.83090143 9.5375725,5.85597722 9.521387,5.89044818 L8.41681835,8.72361566 L8,8.34658972 L8.02792682,9 L8.85718695,9 L10.3875355,6.67490537 L10.5578059,6.57395972 C10.6455461,6.85156026 10.7780944,7.01270845 10.9787924,7.01270845 C11.5431644,7.01270845 11.9999974,5.74176618 11.9999974,4.174068 C12.0010394,3.17251684 11.692177,1.99765537 11.3999873,1.46708258 L11.3999873,1.46708258 Z" id="路径"></path>
                        </g>
                    </g>
                </g>
            </g>
        </g>
    </g>
</svg>