<?xml version="1.0" encoding="UTF-8"?>
<svg width="24px" height="24px" viewBox="0 0 24 24" version="1.1" xmlns="http://www.w3.org/2000/svg" xmlns:xlink="http://www.w3.org/1999/xlink">
    <!-- Generator: Sketch 53.1 (72631) - https://sketchapp.com -->
    <title>插秧前icon</title>
    <desc>Created with Sketch.</desc>
    <g id="页面-1" stroke="none" stroke-width="1" fill="none" fill-rule="evenodd">
        <g id="04-07农事管理-农事决策服务" transform="translate(-630.000000, -167.000000)">
            <g id="决策时间轴" transform="translate(224.000000, 72.000000)">
                <g id="插秧前" transform="translate(397.000000, 86.000000)">
                    <g id="插秧前icon" transform="translate(9.000000, 9.000000)">
                        <rect id="矩形" x="0" y="0" width="24" height="24"></rect>
                        <path d="M12.7299426,11.4005275 C14.0247692,10.4773716 15.8844424,10.2122006 17.7441155,10.8480879 C20.3554879,11.7417804 22.0978395,14.1061019 21.9957403,16.416415 C21.9522808,17.0351234 21.2092862,17.0940502 20.3880773,16.9565462 C18.8064857,16.6889519 17.9135801,16.1144387 16.5753152,15.2281121 C15.5955118,14.5799643 14.5613787,13.9465242 13.1579351,13.7206298 C12.5583337,13.6248976 12.2281092,14.1674761 12.8516165,14.4031836 C14.7134553,15.1053637 15.6281012,16.0628777 16.9207198,16.7896027 C17.770187,17.2659123 18.6370211,17.5408965 19.5712206,17.6881897 C20.0470038,17.7618483 20.6661588,17.742222 21.0658931,17.8330597 C21.439556,17.9165314 21.6198907,18.0982067 21.3048887,18.5426056 C20.1447506,20.2685684 17.7006772,20.9879515 15.2544171,20.1507387 C13.0927564,19.409282 11.5285529,17.6587263 11.1114305,15.7682672 C10.7268975,14.0152643 11.354736,12.3801151 12.7299426,11.4005035 L12.7299426,11.4005275 Z M11,11.1591431 C9.68437874,10.3939269 7.91852154,10.2604964 6.17377129,10.941274 C3.54724977,11.9651815 1.84471344,14.4976733 2.01120862,16.9049309 C2.072169,17.5502885 2.82965901,17.5829942 3.65748264,17.4114293 C5.25682175,17.0737282 6.14796626,16.4419691 7.48233398,15.4698478 C8.192912,14.9524387 8.93160972,14.443226 9.82742938,14.0919264 C9.93766225,12.9945177 10.3457072,11.9869498 11,11.1591431 Z M10.4401962,14.5 C9.40196304,15.1590418 8.66066455,15.8718474 7.71658024,16.463028 C6.84009907,17.0117504 5.94429261,17.3398616 4.96880175,17.5350421 C4.47382408,17.6340283 3.82431484,17.6340283 3.40899797,17.7471949 C3.02025043,17.8518477 2.83914953,18.0554867 3.17964282,18.5250422 C4.44244112,20.3522925 7.01876956,21.0396398 9.55165739,20.0411535 C10.4981485,19.6677923 11.3287587,19.1049172 12,18.4203894 C11.323945,17.5520143 10.8120489,16.5252503 10.5681821,15.365528 C10.5054161,15.0741807 10.4619283,14.7856806 10.4401962,14.5 L10.4401962,14.5 Z M16,9.55875704 C15.814212,8.45076514 15.3521629,7.31204512 14.6138059,6.28613691 C12.887016,3.89325338 10.2241872,2.92378867 8.29494387,3.84194795 C7.78287484,4.10611956 8.00911624,4.89863441 8.43068871,5.69881875 C9.24527416,7.24535056 10.0646079,7.96858928 11.3150339,9.04580293 C11.8247288,9.48436791 12.3368211,9.94087852 12.8131849,10.5 C13.7801808,9.89984921 14.8829447,9.60489935 16,9.55873197 L16,9.55875704 Z M11,10.5 C10.4912214,10.0164222 10.0004823,9.58780744 9.52098479,9.05203225 C8.83887345,8.28821564 8.31660927,7.42822048 7.87088076,6.4445787 C7.64351765,5.94454155 7.44316972,5.24664295 7.23155813,4.83728 C7.03345413,4.45535826 6.8263304,4.32346853 6.57646197,4.84001875 C5.8290786,6.31545457 5.80881721,8.39537605 6.51343387,10.3626328 C7.96318997,9.84334379 9.58850075,9.81861447 11,10.5 L11,10.5 Z" id="形状" fill="#FFFFFF" fill-rule="nonzero"></path>
                    </g>
                </g>
            </g>
        </g>
    </g>
</svg>