<?xml version="1.0" encoding="UTF-8"?>
<svg width="24px" height="24px" viewBox="0 0 24 24" version="1.1" xmlns="http://www.w3.org/2000/svg" xmlns:xlink="http://www.w3.org/1999/xlink">
    <!-- Generator: Sketch 53.1 (72631) - https://sketchapp.com -->
    <title>播种前icon</title>
    <desc>Created with Sketch.</desc>
    <g id="页面-1" stroke="none" stroke-width="1" fill="none" fill-rule="evenodd">
        <g id="04-07农事管理-农事决策服务" transform="translate(-273.000000, -167.000000)">
            <g id="决策时间轴" transform="translate(224.000000, 72.000000)">
                <g id="播种前" transform="translate(40.000000, 86.000000)">
                    <g id="播种前icon" transform="translate(9.000000, 9.000000)">
                        <rect id="矩形" x="0" y="0" width="24" height="24"></rect>
                        <path d="M6.85714286,3.87428569 C7.03714288,3.33428569 7.55142858,2.99999996 8.11714284,3 L15.9342857,3 C16.7828571,3 17.4514286,3.82285713 17.1685714,4.72285712 C16.9885714,5.26285712 16.4742857,5.59714285 15.9085714,5.59714285 L8.06571428,5.59714285 C7.21714285,5.59714285 6.54857143,4.77428572 6.85714286,3.87428569 Z M5.54571429,7.24285715 C5.7257143,6.70285715 6.24,6.36857142 6.80571427,6.36857142 L17.22,6.36857142 C18.0685714,6.36857142 18.7371428,7.19142855 18.4542857,8.09142858 C18.2742857,8.63142858 17.76,8.96571431 17.1942857,8.96571427 L6.78000001,8.96571427 C5.93142858,8.96571427 5.26285716,8.14285714 5.54571429,7.24285715 Z M21,11.28 C21,11.5371429 20.7942857,11.7428571 20.5371429,11.7428571 L19.4314286,11.7428571 L18.48,19.9457143 C18.48,20.5371429 18.0171429,21 17.4771429,21 L6.52285714,21 C5.95714284,21 5.51999999,20.5371429 5.51999999,19.9457143 L4.56857141,11.7428571 L3.46285714,11.7428571 C3.20571427,11.7428571 3,11.5371429 3,11.28 L3,10.3542857 C3,10.0971428 3.20571427,9.89142856 3.46285714,9.89142856 L20.5114286,9.89142856 C20.7685715,9.89142856 20.9742857,10.0971428 20.9742857,10.3542857 L20.9742857,11.28 L21,11.28 Z M15.0632912,13 C14.5316456,13 14.1265823,13.4377682 14.1265823,14.0042918 L14.1265823,17.9957082 C14.1265823,18.5364807 14.556962,19 15.0632912,19 C15.5949367,19 16,18.5622318 16,17.9957082 L16,14.0042918 C16,13.4635193 15.5696203,13 15.0632912,13 Z M12,13 C11.4683544,13 11.0632911,13.4377682 11.0632911,14.0042918 L11.0632911,17.9957082 C11.0632911,18.5364807 11.4936709,19 12,19 C12.5316456,19 12.9367089,18.5622318 12.9367089,17.9957082 L12.9367089,14.0042918 C12.9367089,13.4635193 12.5316456,13 12,13 Z M8.93670884,13 C8.40506327,13 7.99999996,13.4377682 8,14.0042918 L8,17.9957082 C8,18.5364807 8.43037974,19 8.93670884,19 C9.46835441,19 9.87341771,18.5622318 9.87341771,17.9957082 L9.87341771,14.0042918 C9.87341771,13.4635193 9.46835441,13 8.93670884,13 Z" id="合并形状" fill="#FFFFFF" fill-rule="nonzero"></path>
                    </g>
                </g>
            </g>
        </g>
    </g>
</svg>