<?xml version="1.0" encoding="UTF-8"?>
<svg width="24px" height="24px" viewBox="0 0 24 24" version="1.1" xmlns="http://www.w3.org/2000/svg" xmlns:xlink="http://www.w3.org/1999/xlink">
    <!-- Generator: Sketch 53.1 (72631) - https://sketchapp.com -->
    <title>播种icon</title>
    <desc>Created with Sketch.</desc>
    <g id="页面-1" stroke="none" stroke-width="1" fill="none" fill-rule="evenodd">
        <g id="04-07农事管理-农事决策服务" transform="translate(-362.000000, -167.000000)">
            <g id="决策时间轴" transform="translate(224.000000, 72.000000)">
                <g id="播种" transform="translate(129.000000, 86.000000)">
                    <g id="播种icon" transform="translate(9.000000, 9.000000)">
                        <rect id="矩形" x="0" y="0" width="24" height="24"></rect>
                        <path d="M21.9993705,19.1099158 C21.9925939,19.0266536 21.9775243,18.9441649 21.9543579,18.863523 C21.8427813,18.4788669 21.5119336,18.1618995 21.1024555,18.0516893 C20.6343038,17.9258918 20.1918165,18.0421092 19.8823734,18.2973557 C19.6360739,18.5005006 19.2850807,18.4872298 19.036221,18.2873044 C18.8135294,18.1085809 18.5246095,18 18.2076328,18 C17.890887,18 17.6028485,18.1085809 17.3807865,18.2873044 C17.1644533,18.4620232 16.8252536,18.4620232 16.6089414,18.2873044 C16.3868584,18.1085809 16.0990298,18 15.7822839,18 C15.4653283,18 15.1761775,18.1082079 14.953465,18.2873044 C14.6998836,18.4908616 14.3486806,18.4908616 14.0951203,18.2873044 C13.8724077,18.1082079 13.583299,18 13.2663433,18 C12.9500172,18 12.6615589,18.1078152 12.4388044,18.2861069 C12.1976461,18.4796521 11.8545852,18.4796521 11.6130073,18.2861069 C11.3906934,18.1078152 11.1020044,18 10.7854894,18 C10.4685337,18 10.179404,18.1082079 9.95667041,18.2873044 C9.70352976,18.4908616 9.35209592,18.4908616 9.09832572,18.2873044 C8.87603285,18.1082079 8.58671426,18 8.26973759,18 C7.95450267,18 7.66732454,18.107403 7.44566122,18.2844971 C7.20773461,18.4748228 6.86765359,18.4748228 6.62949614,18.2844971 C6.4078538,18.107403 6.12065469,18 5.80539878,18 C5.4884431,18 5.19910353,18.1082079 4.97660081,18.2873044 C4.72774107,18.4872298 4.37672692,18.500108 4.13065818,18.2973557 C3.8211941,18.0421092 3.37832912,17.9250476 2.9103872,18.0509237 C2.50069932,18.161075 2.17004051,18.4788669 2.05867373,18.863523 C2.03551048,18.9441639 2.0204548,19.0266535 2.01370313,19.1099158 L2,20.3308074 C2,20.7050983 2.33365965,21 2.73327479,21 L21.2789174,21 C21.6789523,21 22,20.7051179 22,20.3308074 L21.9993705,19.1099158 Z" id="路径" fill="#FFFFFF" fill-rule="nonzero"></path>
                        <path d="M15.1078236,13.6077474 C14.9544632,13.8909926 15.057105,14.245402 15.3366069,14.4003465 C15.6161511,14.555291 15.9668281,14.4514316 16.1197236,14.1685926 C16.2726614,13.8857537 16.4179914,13.0735245 16.1384895,12.91858 C15.8589876,12.7636355 15.260698,13.3253789 15.1078236,13.6077474 L15.1078236,13.6077474 Z M15.6439829,10.3033621 C15.9122422,10.4771669 16.2689843,10.3977487 16.440857,10.1262644 C16.6123283,9.85480141 16.5340102,9.4938487 16.265751,9.31991568 C15.9974495,9.14608958 15.2061332,8.94403731 15.034493,9.21582102 C14.862578,9.48730536 15.3754278,10.129536 15.6439829,10.3033621 Z M15.45569,7.60248213 C15.755902,7.71125977 16.0860803,7.55349264 16.1937094,7.25004003 C16.3011061,6.94639498 16.3192169,6.12092948 16.0194698,6.01213046 C15.719448,5.90345974 15.2149879,6.55257589 15.1075912,6.8559002 C14.999962,7.1593528 15.1558795,7.49379003 15.45569,7.60248213 L15.45569,7.60248213 Z M18.432345,11.7617779 C18.655359,11.5317775 19.0133691,10.7894508 18.7858538,10.5637057 C18.5585076,10.3378537 17.831921,10.7139672 17.6087168,10.9439677 C17.3855126,11.1740964 17.3889783,11.5436453 17.6162612,11.7694118 C17.8439878,11.9952852 18.2091196,11.9917997 18.432345,11.7617779 L18.432345,11.7617779 Z M17.7085691,16 C18.0268918,16 18.285261,15.7385445 18.285261,15.4159965 C18.285261,15.0934484 18.0268918,14.3104505 17.7085691,14.3104505 C17.3897814,14.3104505 17.1314334,15.0934484 17.1314334,15.4159965 C17.1314334,15.7385445 17.3897814,16 17.7085691,16 Z M20.2910135,14.7861896 C20.6008832,14.8599411 20.9116404,14.6652875 20.9845696,14.3515067 C21.0574353,14.0376404 20.8652751,13.7234105 20.5549828,13.649659 C20.2450498,13.5759074 19.432157,13.6505357 19.3593124,13.9643593 C19.2863832,14.2782042 19.9806578,14.7119676 20.2910135,14.7861896 Z" id="形状" fill="#FFFFFF" fill-rule="nonzero"></path>
                        <path d="M6.83441139,14.9049434 L14,11.2892088 L10.8250279,3 L2.99132438,4.87082421 C2.20201277,5.15965461 1.80182665,6.01861337 2.09727416,6.78986008 L4.87103787,14.0313993 C5.16628093,14.8025861 6.04550868,15.193654 6.83441139,14.9049434 L6.83441139,14.9049434 Z" id="路径" fill="#FFFFFF" fill-rule="nonzero"></path>
                        <path d="M4.11066439,8.59800147 C3.81605822,9.21722033 4.20289989,9.57297857 4.20289989,9.57297857 C4.2212992,9.55156132 5.19652775,8.4458493 6.59828573,9.07265936 C6.44509573,9.68126804 6.65526494,10.3835307 7.71916642,10.8212389 C8.91453499,11.3135294 11,10.6329027 11,10.6329027 C11,10.6329027 9.98462751,8.67636367 8.78882448,8.18451072 C7.72713873,7.74759007 7.0640902,8.15996511 6.76587802,8.65971553 C6.41891962,8.515964 5.16946099,7.99698399 4.11066439,8.59800147 Z" id="路径" fill="#FFFFFF" fill-rule="nonzero"></path>
                    </g>
                </g>
            </g>
        </g>
    </g>
</svg>