<?xml version="1.0" encoding="UTF-8"?>
<svg width="16px" height="16px" viewBox="0 0 16 16" version="1.1" xmlns="http://www.w3.org/2000/svg" xmlns:xlink="http://www.w3.org/1999/xlink">
    <!-- Generator: Sketch 53.1 (72631) - https://sketchapp.com -->
    <title>数据资源中心icon</title>
    <desc>Created with Sketch.</desc>
    <g id="页面-1" stroke="none" stroke-width="1" fill="none" fill-rule="evenodd">
        <g id="01-01智慧土壤-土壤样本分析" transform="translate(-16.000000, -488.000000)">
            <g id="左侧菜单">
                <g id="分组" transform="translate(0.000000, 472.000000)">
                    <g id="数据资源中心icon" transform="translate(16.000000, 16.000000)">
                        <rect id="矩形" fill="#D8D8D8" opacity="0" x="0" y="0" width="16" height="16"></rect>
                        <g id="数据资源中心" transform="translate(1.000000, 0.000000)" fill="#FFFFFF" fill-rule="nonzero">
                            <path d="M11.685994,0.647748691 C10.4243072,0.229947644 8.76012048,0 7,0 C5.23987952,0 3.57569277,0.229947644 2.31400602,0.647748691 C0.401445783,1.28104712 0,2.14827225 0,2.76439791 L0,13.2356021 C0,13.8517277 0.401445783,14.7189529 2.31400602,15.3522513 C3.57569277,15.7698429 5.23987952,16 7,16 C8.76012048,16 10.4243072,15.7698429 11.685994,15.3522513 C13.5985542,14.7189529 14,13.8517277 14,13.2356021 L14,2.76439791 C14,2.14827225 13.5985542,1.28104712 11.685994,0.647748691 Z M2.74075301,1.91937173 C3.86834337,1.54596859 5.38114458,1.34031414 7,1.34031414 C8.61885542,1.34031414 10.1316566,1.54596859 11.259247,1.91937173 C12.4030723,2.29801047 12.6506024,2.68816754 12.6506024,2.76439791 C12.6506024,2.84062827 12.4030723,3.23078534 11.259247,3.60942408 C10.9733434,3.70408377 10.6625602,3.7878534 10.331747,3.86031414 C9.3576506,4.0739267 8.20855422,4.18848168 7,4.18848168 C5.79144578,4.18848168 4.6423494,4.0739267 3.66825301,3.86052356 C3.33743976,3.78806283 3.02665663,3.70429319 2.74075301,3.60963351 C1.59692771,3.23078534 1.34939759,2.84062827 1.34939759,2.76439791 C1.34939759,2.68816754 1.59692771,2.29801047 2.74075301,1.91937173 Z M11.259247,14.0806283 C10.1316566,14.4540314 8.61885542,14.6596859 7,14.6596859 C5.38114458,14.6596859 3.86834337,14.4540314 2.74075301,14.0806283 C1.59692771,13.7019895 1.34939759,13.3118325 1.34939759,13.2356021 L1.34939759,11.393089 C1.38966867,11.4140314 1.43078313,11.4347644 1.47337349,11.4554974 C1.71457831,11.5727749 1.99289157,11.6856545 2.31400602,11.7920419 C2.72599398,11.928377 3.18099398,12.0446073 3.66825301,12.1396859 C4.67292169,12.335288 5.81463855,12.4397906 7,12.4397906 C8.18536145,12.4397906 9.32707831,12.335288 10.331747,12.1394764 C10.8187952,12.0446073 11.274006,11.928377 11.685994,11.7918325 C12.0071084,11.685445 12.2854217,11.5725654 12.5266265,11.455288 C12.5692169,11.434555 12.6103313,11.413822 12.6506024,11.3928796 L12.6506024,13.2356021 C12.6506024,13.3118325 12.4030723,13.7019895 11.259247,14.0806283 Z M11.259247,10.5204188 C10.9733434,10.6150785 10.6625602,10.6988482 10.331747,10.7713089 C9.3576506,10.9849215 8.20855422,11.0994764 7,11.0994764 C5.79144578,11.0994764 4.6423494,10.9849215 3.66825301,10.7715183 C3.33743976,10.6990576 3.02665663,10.615288 2.74075301,10.5206283 C1.59692771,10.1417801 1.34939759,9.75162304 1.34939759,9.67539267 L1.34939759,8.04230366 C1.6178012,8.1817801 1.93638554,8.31602094 2.31400602,8.44104712 C2.59358434,8.53361257 2.89319277,8.61696335 3.20903614,8.69068063 C4.31828313,8.9495288 5.62993976,9.08900524 7,9.08900524 C8.37006024,9.08900524 9.68171687,8.9495288 10.7909639,8.69089005 C11.1068072,8.61717277 11.4064157,8.53382199 11.685994,8.44125654 C12.0636145,8.31623037 12.3821988,8.18198953 12.6506024,8.04251309 L12.6506024,9.67539267 C12.6506024,9.75162304 12.4030723,10.1417801 11.259247,10.5204188 Z M11.259247,7.16963351 C11.109759,7.21905759 10.9533133,7.26554974 10.7909639,7.30910995 C9.7285241,7.5939267 8.40421687,7.7486911 7,7.7486911 C5.59578313,7.7486911 4.2714759,7.5939267 3.20903614,7.30910995 C3.04668675,7.26554974 2.89024096,7.21905759 2.74075301,7.16963351 C1.59692771,6.79099476 1.34939759,6.4008377 1.34939759,6.32460733 L1.34939759,4.48209424 C1.38966867,4.50303665 1.43078313,4.52376963 1.47337349,4.54450262 C1.71457831,4.6617801 1.99289157,4.77465969 2.31400602,4.88104712 C2.72599398,5.0173822 3.18099398,5.13361257 3.66825301,5.2286911 C4.67292169,5.42429319 5.81463855,5.52879581 7,5.52879581 C8.18536145,5.52879581 9.32707831,5.42429319 10.331747,5.22848168 C10.8187952,5.13361257 11.274006,5.0173822 11.685994,4.8808377 C12.0071084,4.77445026 12.2854217,4.66157068 12.5266265,4.54429319 C12.5682082,4.52399678 12.6095366,4.50319241 12.6506024,4.48188482 L12.6506024,6.32460733 C12.6506024,6.4008377 12.4030723,6.79099476 11.259247,7.16963351 L11.259247,7.16963351 Z" id="形状"></path>
                        </g>
                    </g>
                </g>
            </g>
        </g>
    </g>
</svg>