<?xml version="1.0" encoding="UTF-8"?>
<svg width="16px" height="16px" viewBox="0 0 16 16" version="1.1" xmlns="http://www.w3.org/2000/svg" xmlns:xlink="http://www.w3.org/1999/xlink">
    <!-- Generator: Sketch 53.1 (72631) - https://sketchapp.com -->
    <title>数据icon</title>
    <desc>Created with Sketch.</desc>
    <g id="页面-1" stroke="none" stroke-width="1" fill="none" fill-rule="evenodd">
        <g id="05-02虫害管理-AI虫情识别" transform="translate(-1088.000000, -478.000000)" fill="#00BB65" fill-rule="nonzero">
            <g id="分组-10" transform="translate(1072.000000, 460.000000)">
                <g id="数据icon" transform="translate(16.000000, 18.000000)">
                    <path d="M14.5454545,1.3682847 L14.5454545,13.6317153 L1.45454545,13.6317153 L1.45454545,1.3682847 L14.5454545,1.3682847 L14.5454545,1.3682847 Z M1.85384163e-15,0.969457322 L1.85384163e-15,14.0305427 C1.85384163e-15,14.5664031 0.460932192,15 1.03057481,15 L14.9694252,15 C15.5390678,15 16,14.5664031 16,14.0305427 L16,0.969457322 C16,0.433596946 15.5390678,0 14.9694252,0 L1.03057481,0 C0.460932192,0 0,0.433596946 1.85384163e-15,0.969457322 Z" id="形状"></path>
                    <path d="M3.7569047,12 C3.33814382,12 3,11.6995772 3,11.3275305 L3,8.66152698 C3,8.28948023 3.33814382,7.98905745 3.7569047,7.98905745 C4.17566559,7.98905745 4.51380941,8.28948023 4.51380941,8.66152698 L4.51380941,11.3275305 C4.51380941,11.6975877 4.17342623,12 3.7569047,12 Z M7.49664096,12 C7.07788007,12 6.73973625,11.6995772 6.73973625,11.3275305 L6.73973625,4.67246953 C6.73973625,4.30042278 7.07788007,4 7.49664096,4 C7.91540184,4 8.25354566,4.30042278 8.25354566,4.67246953 L8.25354566,11.3275305 C8.25354566,11.6975877 7.91540184,12 7.49664096,12 Z M11.2430953,12 C10.8243344,12 10.4861906,11.6995772 10.4861906,11.3275305 L10.4861906,7.33449391 C10.4861906,6.96244715 10.8243344,6.66202437 11.2430953,6.66202437 C11.6618562,6.66202437 12,6.96244715 12,7.33449391 L12,11.3275305 C12,11.6975877 11.6596168,12 11.2430953,12 Z" id="形状"></path>
                </g>
            </g>
        </g>
    </g>
</svg>