<?xml version="1.0" encoding="UTF-8"?>
<svg width="16px" height="16px" viewBox="0 0 16 16" version="1.1" xmlns="http://www.w3.org/2000/svg" xmlns:xlink="http://www.w3.org/1999/xlink">
    <!-- Generator: Sketch 53.1 (72631) - https://sketchapp.com -->
    <title>智慧土壤icon</title>
    <desc>Created with Sketch.</desc>
    <g id="页面-1" stroke="none" stroke-width="1" fill="none" fill-rule="evenodd">
        <g id="01-01智慧土壤-土壤样本分析" transform="translate(-16.000000, -72.000000)">
            <g id="左侧菜单">
                <g id="分组" transform="translate(0.000000, 56.000000)">
                    <g id="智慧土壤icon" transform="translate(16.000000, 16.000000)">
                        <rect id="矩形" fill="#D8D8D8" opacity="0" x="0" y="0" width="16" height="16"></rect>
                        <g id="智慧土壤" transform="translate(0.000000, 1.000000)" fill="#FFFFFF" fill-rule="nonzero">
                            <path d="M15.9824295,11.5535651 L11.3217963,1.89382705 C11.2914948,1.83102616 11.233208,1.79982571 11.1749211,1.79982571 C11.1166342,1.79982571 11.0583474,1.83122616 11.0280459,1.89382705 L9.41956002,5.22767468 L6.96070349,0.13160188 C6.91843587,0.0438006257 6.83679565,0 6.75515544,0 C6.67351523,0 6.59187501,0.0438006257 6.54960739,0.13160188 L0.0245664426,13.6551951 C-0.051862693,13.8135973 0.0593069587,14 0.230114496,14 L13.2800034,14 C13.4508109,14 13.5619806,13.8135973 13.4855514,13.6551951 L12.5905971,11.7999686 L15.8355543,11.7999686 C15.9577252,11.7997686 16.0370493,11.6667667 15.9824295,11.5535651 Z M11.6533752,12.7197817 L1.85693567,12.7197817 L6.75515544,2.56763668 L11.6533752,12.7197817 Z M11.972988,10.5197503 L10.1101243,6.65869512 L11.1749211,4.4518636 L14.1027746,10.5199503 L11.972988,10.5199503 L11.972988,10.5197503 Z" id="形状"></path>
                        </g>
                    </g>
                </g>
            </g>
        </g>
    </g>
</svg>