<?xml version="1.0" encoding="UTF-8"?>
<svg width="16px" height="16px" viewBox="0 0 16 16" version="1.1" xmlns="http://www.w3.org/2000/svg" xmlns:xlink="http://www.w3.org/1999/xlink">
    <!-- Generator: Sketch 53.1 (72631) - https://sketchapp.com -->
    <title>最佳收货时间icon</title>
    <desc>Created with Sketch.</desc>
    <g id="页面-1" stroke="none" stroke-width="1" fill="none" fill-rule="evenodd">
        <g id="02-02植株健康-氮肥模型分析" transform="translate(-16.000000, -520.000000)">
            <g id="左侧菜单">
                <g id="分组" transform="translate(0.000000, 504.000000)">
                    <g id="最佳收货时间icon" transform="translate(16.000000, 16.000000)">
                        <rect id="矩形" fill="#D8D8D8" opacity="0" x="0" y="0" width="16" height="16"></rect>
                        <g id="最佳收获时间" fill="#FFFFFF" fill-rule="nonzero">
                            <path d="M8,0 C3.5818,0 0,3.5818 0,8 C0,12.4182 3.5818,16 8,16 C12.4182,16 16,12.4182 16,8 C16,3.5818 12.4182,0 8,0 Z M12.7518,12.7518 C12.1342,13.3694 11.4154,13.854 10.6154,14.1924 C9.7876,14.5424 8.9078,14.72 8,14.72 C7.0922,14.72 6.2124,14.5424 5.3846,14.1924 C4.5846,13.854 3.8658,13.3692 3.2482,12.7518 C2.6306,12.1344 2.146,11.4154 1.8076,10.6154 C1.4576,9.7876 1.28,8.9078 1.28,8 C1.28,7.0922 1.4576,6.2124 1.8076,5.3846 C2.146,4.5846 2.6308,3.8658 3.2482,3.2482 C3.8656,2.6306 4.5846,2.146 5.3846,1.8076 C6.2124,1.4576 7.0922,1.28 8,1.28 C8.9078,1.28 9.7876,1.4576 10.6154,1.8076 C11.4154,2.146 12.1342,2.6308 12.7518,3.2482 C13.3694,3.8656 13.854,4.5846 14.1924,5.3846 C14.5424,6.2124 14.72,7.0922 14.72,8 C14.72,8.9078 14.5424,9.7876 14.1924,10.6154 C13.854,11.4154 13.3694,12.1342 12.7518,12.7518 Z" id="形状"></path>
                            <polygon id="路径" points="8.37133062 4 7 4 7 9.31233695 7.00535676 9.31233695 7 9.31689039 10.0302121 12 10.886506 11.0561326 8.37133062 8.81392591"></polygon>
                        </g>
                    </g>
                </g>
            </g>
        </g>
    </g>
</svg>