<?xml version="1.0" encoding="UTF-8"?>
<svg width="16px" height="16px" viewBox="0 0 16 16" version="1.1" xmlns="http://www.w3.org/2000/svg" xmlns:xlink="http://www.w3.org/1999/xlink">
    <!-- Generator: Sketch 53.1 (72631) - https://sketchapp.com -->
    <title>植株健康icon</title>
    <desc>Created with Sketch.</desc>
    <g id="页面-1" stroke="none" stroke-width="1" fill="none" fill-rule="evenodd">
        <g id="01-01智慧土壤-土壤样本分析" transform="translate(-16.000000, -200.000000)">
            <g id="左侧菜单">
                <g id="分组" transform="translate(0.000000, 184.000000)">
                    <g id="植株健康icon" transform="translate(16.000000, 16.000000)">
                        <rect id="矩形" fill="#D8D8D8" opacity="0" x="0" y="0" width="16" height="16"></rect>
                        <g id="植株管理" transform="translate(0.000000, 1.000000)" fill="#FFFFFF" fill-rule="nonzero">
                            <path d="M14.3684601,3.85693056 C14.079569,4.46793056 13.6899766,5.18491667 13.197719,5.86525 C12.6872495,6.57086111 12.147498,7.12101389 11.5938198,7.50036111 C10.9760428,7.92376389 10.3575515,8.12941667 9.70263641,8.12941667 C9.42785061,8.12941667 9.14181626,8.09186111 8.85292514,8.01765278 L8.5717116,7.94543056 L8.5717116,6.77254167 L9.44195592,5.73868056 C9.89993226,5.19466667 10.5328859,4.76025 11.3233192,4.44752778 C12.1632103,4.11548611 13.1848635,3.91741667 14.3684601,3.85693056 L14.3684601,3.85693056 Z M1.631897,6.926375 C2.80317372,6.98613889 3.81643522,7.18077778 4.65168408,7.50686111 C5.44122458,7.81525 6.07524953,8.24406944 6.53608264,8.78122222 C6.54090344,8.78681944 6.5455457,8.79223611 6.55018796,8.79783333 L6.55857972,8.80776389 L7.42882405,9.84216667 L7.42882405,11.014875 L7.1476105,11.0870972 C6.85854084,11.1613056 6.57268504,11.1988611 6.29789923,11.1988611 C5.64298414,11.1988611 5.02449289,10.9930278 4.40671584,10.5698056 C3.85285907,10.1902778 3.31328616,9.640125 2.80281663,8.93469444 C2.31038047,8.25454167 1.92078812,7.537375 1.631897,6.926375 L1.631897,6.926375 Z M8.00017855,0 C7.68468374,0 7.42882405,0.258736111 7.42882405,0.577777778 L7.42882405,8.05918056 C7.41900389,8.047625 7.40936229,8.03588889 7.39936358,8.02433333 C6.35039243,6.80143056 4.40832277,5.75095833 0.830929408,5.75095833 C0.617207115,5.75095833 0.398664018,5.75475 0.173157539,5.76233333 C0.0519232561,5.76648611 -0.0303875016,5.88836111 0.0106786031,6.00373611 C0.426160454,7.17156944 2.48535778,12.3545972 6.29772069,12.3545972 C6.65910241,12.3545972 7.03601783,12.3080139 7.4286455,12.2072639 L7.4286455,14.4222222 C7.4286455,14.7412639 7.68450519,15 8,15 C8.31549481,15 8.5713545,14.7412639 8.5713545,14.4222222 L8.5713545,9.13781944 C8.96416072,9.23875 9.34107614,9.28515278 9.70227931,9.28515278 C13.5146422,9.28515278 15.5738395,4.102125 15.9893214,2.93429167 C16.0303875,2.81891667 15.9480767,2.69686111 15.8268425,2.69288889 C15.6016931,2.68530556 15.3833285,2.68151389 15.1699633,2.68151389 C11.5581102,2.68169444 9.61336227,3.75202778 8.57153305,4.98991667 L8.57153305,0.577777778 C8.57153305,0.258736111 8.31567336,0 8.00017855,0 Z" id="形状"></path>
                        </g>
                    </g>
                </g>
            </g>
        </g>
    </g>
</svg>