<?xml version="1.0" encoding="UTF-8"?>
<svg width="50px" height="50px" viewBox="0 0 50 50" version="1.1" xmlns="http://www.w3.org/2000/svg" xmlns:xlink="http://www.w3.org/1999/xlink">
    <!-- Generator: Sketch 53.1 (72631) - https://sketchapp.com -->
    <title>测点icon_默认</title>
    <desc>Created with Sketch.</desc>
    <defs>
        <linearGradient x1="0%" y1="14.8660714%" x2="100%" y2="100%" id="linearGradient-1">
            <stop stop-color="#619BFF" offset="0%"></stop>
            <stop stop-color="#4D82FF" offset="100%"></stop>
        </linearGradient>
        <rect id="path-2" x="6" y="4" width="38" height="38" rx="19"></rect>
        <filter x="-23.7%" y="-18.4%" width="147.4%" height="147.4%" filterUnits="objectBoundingBox" id="filter-3">
            <feMorphology radius="2" operator="dilate" in="SourceAlpha" result="shadowSpreadOuter1"></feMorphology>
            <feOffset dx="0" dy="2" in="shadowSpreadOuter1" result="shadowOffsetOuter1"></feOffset>
            <feGaussianBlur stdDeviation="2" in="shadowOffsetOuter1" result="shadowBlurOuter1"></feGaussianBlur>
            <feComposite in="shadowBlurOuter1" in2="SourceAlpha" operator="out" result="shadowBlurOuter1"></feComposite>
            <feColorMatrix values="0 0 0 0 0.0666666667   0 0 0 0 0.180392157   0 0 0 0 0.431372549  0 0 0 0.4 0" type="matrix" in="shadowBlurOuter1"></feColorMatrix>
        </filter>
    </defs>
    <g id="页面-1" stroke="none" stroke-width="1" fill="none" fill-rule="evenodd">
        <g id="02-01植株健康-物联网监测预警" transform="translate(-630.000000, -173.000000)">
            <g id="测点icon_默认" transform="translate(630.000000, 173.000000)">
                <g id="Rectangle-3">
                    <use fill="black" fill-opacity="1" filter="url(#filter-3)" xlink:href="#path-2"></use>
                    <rect stroke="#FFFFFF" stroke-width="2" fill="url(#linearGradient-1)" fill-rule="evenodd" x="5" y="3" width="40" height="40" rx="20"></rect>
                </g>
                <g id="物-监测设备" transform="translate(14.000000, 12.000000)" fill="#FFFFFF" fill-rule="nonzero">
                    <path d="M14.856938,10 C14.5537484,10.0000001 14.2629876,9.8823093 14.048671,9.67283904 C13.8343543,9.46336878 13.7140531,9.17929301 13.7142534,8.88315515 C13.6967254,7.43117182 12.4866616,6.26310607 11,6.26310607 C9.51333839,6.26310607 8.30327464,7.43117182 8.28574662,8.88315515 C8.27442366,9.49175993 7.7660732,9.97934603 7.14287331,9.97934603 C6.51967343,9.97934603 6.01132297,9.49175993 6,8.88315515 C6,6.18614079 8.23857506,3.99999997 10.9998113,4 C13.7610476,4.00000003 16,6.18614082 16,8.88352375 C15.9998999,9.17963167 15.8793746,9.46357294 15.6649381,9.67288373 C15.4505016,9.88219453 15.1597195,9.99972918 14.8565606,9.9996314 L14.856938,10 Z" id="路径"></path>
                    <path d="M18.7900906,7.99999995 C18.4689949,8.00008309 18.1610258,7.90015132 17.9340144,7.72221487 C17.7070029,7.54427841 17.5795695,7.30293235 17.5797816,7.05133378 C17.5797816,4.20408299 14.6341236,1.89597512 11,1.89597512 C7.366276,1.89597512 4.42021845,4.20408299 4.42021842,7.05164687 C4.40822932,7.56860567 3.86997231,7.98276922 3.21010921,7.98276922 C2.55024612,7.98276922 2.0119891,7.56860567 2,7.05164687 C2.00029455,3.15706225 6.02964553,7.03892004e-16 11,0 C15.9703545,-7.03892004e-16 19.9997055,3.15706225 20,7.05164687 C19.9997794,7.57528554 19.4579702,7.99968688 18.789691,7.99968686 L18.7900906,7.99999995 Z" id="路径"></path>
                    <path d="M20.6248411,13.6034994 L12.1000182,13.6034994 L12.1000182,10.0374445 C12.1000182,9.46447972 11.6075233,9 11,9 C10.3924767,9 9.89998184,9.46447972 9.89998184,10.0374445 L9.89998184,13.6034994 L1.37515892,13.6034994 C1.01047751,13.6034085 0.660699529,13.7399732 0.402796759,13.9831411 C0.144893988,14.226309 -5.10644069e-09,14.5561541 0,14.9000909 L0,20.7030659 C1.58679337e-08,21.4193428 0.615679633,22 1.37515892,22 L20.6248411,22 C21.3843204,22 22,21.4193428 22,20.7030659 L22,14.9000909 C22,14.5561541 21.855106,14.2263091 21.5972033,13.9831411 C21.3393005,13.7399732 20.9895225,13.6034085 20.6248411,13.6034994 L20.6248411,13.6034994 Z M3.39176806,18.8388516 C2.99883429,18.8388517 2.6357485,18.6411485 2.43928161,18.320215 C2.24281472,17.9992816 2.24281472,17.6038752 2.43928161,17.2829418 C2.6357485,16.9620083 2.99883429,16.7643052 3.39176806,16.7643052 C3.99919101,16.7643052 4.4916046,17.2287082 4.4916046,17.8015784 C4.4916046,18.3744486 3.99919101,18.8388516 3.39176806,18.8388516 L3.39176806,18.8388516 Z M6.72505738,18.8388516 C6.33212361,18.8388517 5.96903783,18.6411485 5.77257094,18.320215 C5.57610405,17.9992816 5.57610405,17.6038752 5.77257094,17.2829418 C5.96903783,16.9620083 6.33212361,16.7643052 6.72505738,16.7643052 C7.33248033,16.7643052 7.82489393,17.2287082 7.82489393,17.8015784 C7.82489393,18.3744486 7.33248033,18.8388516 6.72505738,18.8388516 L6.72505738,18.8388516 Z" id="形状"></path>
                </g>
            </g>
        </g>
    </g>
</svg>