<?xml version="1.0" encoding="UTF-8"?>
<svg width="16px" height="16px" viewBox="0 0 16 16" version="1.1" xmlns="http://www.w3.org/2000/svg" xmlns:xlink="http://www.w3.org/1999/xlink">
    <!-- Generator: Sketch 53.1 (72631) - https://sketchapp.com -->
    <title>用户管理icon</title>
    <desc>Created with Sketch.</desc>
    <g id="页面-1" stroke="none" stroke-width="1" fill="none" fill-rule="evenodd">
        <g id="02-02植株健康-氮肥模型分析" transform="translate(-16.000000, -664.000000)">
            <g id="左侧菜单">
                <g id="分组" transform="translate(0.000000, 648.000000)">
                    <g id="用户管理icon" transform="translate(16.000000, 16.000000)">
                        <rect id="矩形" fill="#D8D8D8" opacity="0" x="0" y="0" width="16" height="16"></rect>
                        <path d="M7.9968454,16 C5.18660123,16 1.39536002,15.2909453 0.343121045,14.5682215 L0.120967848,14.4157369 L0.0668552448,14.1579248 C0.0349199314,14.0051336 -0.069587956,13.4296843 0.0732338491,12.9917634 L0.0708893914,12.9911096 C0.259417565,12.1682686 0.697662139,11.5824194 1.33822708,11.2972896 C2.01138208,10.9981843 2.72789897,10.8896082 3.42120363,10.7845873 C4.13267254,10.6766446 4.80481372,10.5745659 5.43494477,10.2829387 C5.73505645,10.1450834 5.80530569,9.98091158 5.8062984,9.93410166 L5.8062984,9.66198713 C5.5397906,9.36386255 5.29714982,8.98770784 5.11263468,8.58685073 C5.05248139,8.56831883 4.99266605,8.54817279 4.93451928,8.52573836 C4.00763485,8.17461295 3.47597102,7.42330469 3.47597102,6.46520329 L3.47966724,6.39724618 C3.51964976,6.0188235 3.6598103,5.75808965 3.81574839,5.58090258 L3.81843079,4.8907067 C3.81843079,4.7398566 3.82816768,4.5825091 3.84935228,4.40174643 C3.82884356,2.35065098 4.66264668,1.53267283 5.29548125,1.20788436 C5.87553382,0.369433256 6.79603965,-0.0766196357 7.81334411,0.0108297047 C8.23745857,0.0452986438 8.44584071,0.116810933 8.61320542,0.174041215 C8.70899025,0.207529408 8.79738262,0.237768893 8.98825525,0.270276339 C9.34516194,0.331061798 9.79147483,0.358379491 9.98203065,0.369760172 C10.170242,0.380813938 10.2952586,0.38829208 10.4663195,0.462419693 L11.4886509,0.920180161 L11.1925733,1.37305736 C11.9900691,1.96376943 12.2199526,3.12962429 12.1416351,4.18197892 C12.1621438,4.35201474 12.1715428,4.50384559 12.1715428,4.65598288 L12.1722186,5.59359091 C12.3170681,5.77468049 12.4397402,6.03281947 12.4800607,6.39888074 L12.4840948,6.46910581 C12.4847707,7.40930871 11.9631817,8.1573887 11.0524128,8.52150892 C11.0120924,8.53777287 10.9717508,8.55270873 10.9324442,8.56670469 C10.7432401,8.93505435 10.4891728,9.35054084 10.1766207,9.68248051 C10.1762827,9.74132492 10.174931,9.80764748 10.1729244,9.88827249 C10.2068663,9.96370774 10.3369309,10.1467384 10.6400629,10.3070077 C11.0252087,10.5108586 11.7790045,10.6379666 12.4441124,10.7501388 C13.2217964,10.8818031 14.01021,11.015429 14.6497611,11.2943678 C15.280568,11.6103705 15.7006694,12.1796289 15.8992724,12.9576214 C15.967832,13.1663352 16.0051321,13.4810506 15.9994293,13.9680494 L15.9957331,14.2782085 L15.7477064,14.4749082 C14.8319106,15.2018614 10.7751754,16 7.9968454,16 Z M1.38762965,13.6133893 C2.42206343,14.0665934 5.46823183,14.6683592 7.9968454,14.6683592 C10.5005993,14.6683592 13.6062451,14.0100169 14.6060612,13.5886869 C14.5976549,13.4875685 14.5872421,13.3981781 14.5798497,13.3448503 L14.5694369,13.3022699 C14.4998636,13.0168336 14.3530076,12.6449084 14.0495376,12.4920968 C13.60257,12.2983393 12.9005,12.1793428 12.2219802,12.0645758 C11.3999416,11.9257602 10.5644699,11.7846562 9.97970729,11.4754779 C9.17078497,11.0479569 8.8017758,10.3970928 8.79505926,9.94129378 C8.80211375,9.67827152 8.80044517,9.57359796 8.79841754,9.47411412 L8.79269369,9.16070634 L9.03801686,8.9006263 C9.28536769,8.69548816 9.56767417,8.27348384 9.81232147,7.74292383 L9.95514329,7.43276476 L10.2982789,7.36253968 C10.3628043,7.34954487 10.4421146,7.32449514 10.5257969,7.29100695 C11.022843,7.0923662 11.1008226,6.7568509 11.1072012,6.5071708 C11.0957746,6.43142905 11.079638,6.40313062 11.0793001,6.4028037 L10.7465772,6.2087193 L10.7956418,5.87677963 L10.794966,4.65633023 C10.794966,4.53733376 10.7858838,4.41901155 10.7674027,4.28213698 L10.7579827,4.21125808 L10.7640233,4.14005226 C10.8349273,3.33508935 10.6490816,2.45892059 10.1567455,2.3418856 L9.99005666,2.30222693 L9.86201971,2.19136243 C9.70137157,2.05221993 9.60829028,1.87080342 9.5874436,1.67833317 C9.34514074,1.65980127 9.0329266,1.63021561 8.74893043,1.58177113 C8.4599074,1.53234591 8.30901726,1.48359496 8.1544098,1.42961339 C8.02871731,1.38637909 7.94537291,1.35808065 7.69533968,1.3376077 C6.91767679,1.26869027 6.51001577,1.81974364 6.36953842,2.05771617 L6.24855596,2.26285432 L6.02103799,2.34836259 C5.49811836,2.54506229 5.20841944,3.30223456 5.22622465,4.42612192 L5.22690053,4.47099078 L5.22119779,4.51553274 C5.20373053,4.65630982 5.19498633,4.77626659 5.19498633,4.89297467 L5.18993836,6.28768933 L4.85622279,6.45739823 C4.85924313,6.46260841 4.85656073,6.47787119 4.8528645,6.50161328 C4.85924311,6.75617665 4.93756067,7.09688169 5.43695124,7.28610323 C5.53206019,7.32218631 5.6348995,7.34983091 5.7269881,7.36380645 L6.13329736,7.42557266 L6.26940262,7.80107354 C6.42567867,8.23184323 6.69957888,8.66812957 6.9671005,8.91261992 L7.18285396,9.1096261 L7.18285396,9.93442858 C7.18285396,10.4272914 6.87938401,11.0931118 6.02743773,11.4851831 C5.21716364,11.8600302 4.37630601,11.9874651 3.63425355,12.0999641 C3.00612903,12.1952185 2.41262223,12.2852832 1.91323166,12.5073187 C1.61749208,12.638983 1.47902123,12.9995276 1.41517174,13.2791203 L1.40710343,13.3129354 C1.39838036,13.368572 1.38596108,13.4817249 1.38762965,13.6133893 Z" id="形状" fill="#FFFFFF" fill-rule="nonzero"></path>
                    </g>
                </g>
            </g>
        </g>
    </g>
</svg>