<?xml version="1.0" encoding="UTF-8"?>
<svg width="16px" height="16px" viewBox="0 0 16 16" version="1.1" xmlns="http://www.w3.org/2000/svg" xmlns:xlink="http://www.w3.org/1999/xlink">
    <!-- Generator: Sketch 53.1 (72631) - https://sketchapp.com -->
    <title>田间监测icon</title>
    <desc>Created with Sketch.</desc>
    <g id="页面-1" stroke="none" stroke-width="1" fill="none" fill-rule="evenodd">
        <g id="05-03虫害管理-田间虫情勘查" transform="translate(-1088.000000, -156.000000)" fill="#00BB65" fill-rule="nonzero">
            <g id="分组-10" transform="translate(1072.000000, 138.000000)">
                <g id="田间监测icon" transform="translate(16.000000, 18.000000)">
                    <path d="M6.83103383,6.60657322 C6.75354374,6.43749927 6.52107352,6.43749927 6.44358345,6.60462985 L5.48346249,8.68210183 C5.44755246,8.75983699 5.37195238,8.80842145 5.2906823,8.80842145 L3.60669061,8.80842145 C3.27216027,8.80842145 3,8.5285749 3,8.18459684 C3,7.84061878 3.27216027,7.56077223 3.60669061,7.56077223 L4.85787187,7.56077223 C4.94292195,7.56077223 5.02041204,7.50830101 5.05443206,7.42862247 L6.44925346,4.13265198 C6.52296353,3.95774789 6.76110377,3.95580451 6.84048385,4.12682184 L9.22566622,9.3720013 C9.29937629,9.53524512 9.52428652,9.54301864 9.60744661,9.38366158 L10.5127575,7.67348821 C10.5505575,7.6015832 10.6223776,7.55882887 10.7017577,7.55882887 L12.3933094,7.55882887 C12.7278397,7.55882887 13,7.83867541 13,8.18265346 C13,8.52663152 12.7278397,8.80647807 12.3933094,8.80647807 L11.5239085,8.80647807 C11.4483084,8.80647807 11.3783784,8.84728903 11.3386883,8.91530728 L9.62634663,11.8847901 C9.53184654,12.048034 9.30126631,12.0344303 9.22377623,11.8653564 L6.83103383,6.60657322 Z" id="路径"></path>
                    <path d="M14.6614405,2.3530415 C14.6653601,2.35702103 14.6673199,2.3649801 14.6673199,2.37492893 L14.6673199,13.6469585 L1.33463989,13.6469585 L1.33463989,2.36100057 L1.33463989,2.3530415 L14.6614405,2.3530415 L14.6614405,2.3530415 Z M14.6771191,1 L1.32288094,1 C0.587947082,1 0,1.6068789 0,2.36100057 L0,13.6389994 C0,14.3951109 0.591866725,15 1.32288094,15 L14.6771191,15 C15.4100931,15 16,14.3951109 16,13.6370097 L16,2.37492893 C16,1.62279703 15.4081333,1 14.6771191,1 Z" id="形状"></path>
                </g>
            </g>
        </g>
    </g>
</svg>