<?xml version="1.0" encoding="UTF-8"?>
<svg width="16px" height="16px" viewBox="0 0 16 16" version="1.1" xmlns="http://www.w3.org/2000/svg" xmlns:xlink="http://www.w3.org/1999/xlink">
    <!-- Generator: Sketch 53.1 (72631) - https://sketchapp.com -->
    <title>电导率icon</title>
    <desc>Created with Sketch.</desc>
    <g id="页面-1" stroke="none" stroke-width="1" fill="none" fill-rule="evenodd">
        <g id="02-01植株健康-物联网监测预警" transform="translate(-1088.000000, -914.000000)" fill="#00BB65" fill-rule="nonzero">
            <g id="分组-10" transform="translate(1072.000000, 896.000000)">
                <g id="电导率icon" transform="translate(16.000000, 18.000000)">
                    <path d="M10.9794205,7.9418909 C10.9418589,7.86035198 10.8601339,7.80803677 10.7701051,7.80790022 L8.45846919,7.80790022 L9.51268518,4.30587122 C9.54836926,4.19989077 9.50348455,4.08358985 9.40573573,4.02875415 C9.30956615,3.97550917 9.1889997,3.99787824 9.11850008,4.08204589 L5.05594887,8.81283028 C4.99712827,8.88185608 4.98344927,8.97846682 5.02080834,9.06101755 C5.05874598,9.14272992 5.14131416,9.19460565 5.23165154,9.19348561 L7.54175962,9.19348561 L6.48754363,12.7031277 C6.45655734,12.8083463 6.50288198,12.9209157 6.59907663,12.9741543 C6.69541953,13.0230153 6.81269492,13.0011405 6.88478445,12.9208626 L10.9412242,8.1855103 C11.0021218,8.11942661 11.0171872,8.02333813 10.9794205,7.9418909 L10.9794205,7.9418909 Z" id="路径"></path>
                    <path d="M8.00009492,1.5 C5.37099945,1.50000006 3.00080838,3.08380493 1.99482993,5.5128275 C0.988851487,7.94185007 1.54521633,10.7376866 3.40447084,12.5965346 C5.26372535,14.4553826 8.05968344,15.011136 10.4884859,14.0046263 C12.9172883,12.9981166 14.5005748,10.6275792 14.4999998,7.99848371 C14.4953,4.41086399 11.5877155,1.50391525 8.00009492,1.5 Z M8,16 C3.581722,16 -2.43279128e-14,12.418278 -2.48689958e-14,8 C-2.54100788e-14,3.581722 3.581722,-6.73560692e-14 8,-6.81676937e-14 C12.418278,-6.89793182e-14 16,3.581722 16,8 C15.9948936,12.4161611 12.4161611,15.9948936 8,16 Z" id="形状"></path>
                </g>
            </g>
        </g>
    </g>
</svg>