<?xml version="1.0" encoding="UTF-8"?>
<svg width="16px" height="16px" viewBox="0 0 16 16" version="1.1" xmlns="http://www.w3.org/2000/svg" xmlns:xlink="http://www.w3.org/1999/xlink">
    <!-- Generator: Sketch 53.1 (72631) - https://sketchapp.com -->
    <title>病害管理icon</title>
    <desc>Created with Sketch.</desc>
    <g id="页面-1" stroke="none" stroke-width="1" fill="none" fill-rule="evenodd">
        <g id="01-01智慧土壤-土壤样本分析" transform="translate(-16.000000, -248.000000)">
            <g id="左侧菜单">
                <g id="分组" transform="translate(0.000000, 232.000000)">
                    <g id="病害管理icon" transform="translate(16.000000, 16.000000)">
                        <rect id="矩形" fill="#D8D8D8" opacity="0" x="0" y="0" width="16" height="16"></rect>
                        <g id="病害管理" fill="#FFFFFF" fill-rule="nonzero">
                            <path d="M9.53115531,1.29510415 C9.80182352,1.29510415 11.2170672,1.32586288 12.4941725,1.93112171 C13.1458119,2.24012546 13.6553661,2.65132103 14.0085019,3.15357861 C14.2124897,3.44356052 14.3709854,3.77381208 14.4798343,4.13522709 C14.6059246,4.55390998 14.6699045,5.02783715 14.6699045,5.54385521 L14.6699045,8.57217297 L14.6688658,8.58755233 L14.6707354,8.61972757 C14.6711508,8.67962614 14.6688658,9.21628492 14.4457671,9.87921636 C14.1510026,10.7552329 13.6146516,11.4537797 12.8512551,11.9552278 L12.2650496,12.340319 L12.2650496,13.0289501 C12.2650496,13.391984 12.2465619,13.7697902 12.0253327,14.0514753 C11.6944237,14.4729913 10.8560378,14.7050982 9.66451601,14.7050982 L6.33569172,14.7050982 C5.14437768,14.7050982 4.30599173,14.4729913 3.97487498,14.0514753 C3.75364579,13.7697902 3.73515809,13.391984 3.73515809,13.0289501 L3.73515809,12.340319 L3.14895265,11.9552278 C2.38555613,11.4537797 1.84899743,10.7552329 1.55444062,9.87921636 C1.33258824,9.2199274 1.32905688,8.68549458 1.32947234,8.62073937 L1.33030324,8.60981193 L1.33030324,5.54365285 C1.33030324,5.02763479 1.39428314,4.55350526 1.5203734,4.13482237 C1.62922232,3.77360972 1.78792571,3.44335816 1.99191357,3.15317389 C2.34504937,2.65111867 2.85460357,2.23972074 3.506243,1.93091935 C4.78314053,1.32566052 6.1983842,1.29490179 6.46905241,1.29490179 C6.49875737,1.29490179 6.51786825,1.29530651 6.52472324,1.29530651 L6.54175685,1.29611595 L9.43020002,1.29611595 L9.44910317,1.29652067 L9.47527676,1.29550887 C9.48192403,1.29550887 9.50103491,1.29510415 9.53115531,1.29510415 L9.53115531,1.29510415 Z M9.53115531,0 C9.4655136,0 9.43020002,0.00121416014 9.43020002,0.00121416014 L6.57021544,0.00121416014 C6.57021544,0.00121416014 6.53469413,0 6.46926014,0 C5.64167599,0 0.000850795968,0.196086863 0.000850795968,5.54365285 L0.000850795968,8.57197061 C0.000850795968,8.57197061 -0.116514928,11.3718239 2.40570564,13.0287478 C2.40570564,13.8924204 2.46428464,16 6.33548399,16 L7.30369928,16 L7.30245292,16 L9.66451601,16 C13.5357154,16 13.5942944,13.8924204 13.5942944,13.0287478 C16.1165149,11.3716215 15.9991492,8.57197061 15.9991492,8.57197061 L15.9991492,5.54365285 C15.9993569,0.196491583 10.3593626,5.7514178e-16 9.53115531,0 Z" id="形状"></path>
                            <path d="M4.87502597,6.23616898 C5.17582783,6.23616898 5.42054094,6.46370133 5.42054094,6.74338456 C5.42054094,7.0230678 5.17582783,7.25060015 4.87502597,7.25060015 C4.57422411,7.25060015 4.32951099,7.0230678 4.32951099,6.74338456 C4.32951099,6.46389448 4.57422411,6.23616898 4.87502597,6.23616898 L4.87502597,6.23616898 Z M4.87502597,5 C3.83946155,5 3,5.78052482 3,6.74338456 C3,7.70624431 3.83946155,8.48676913 4.87502597,8.48676913 C5.91059039,8.48676913 6.75005193,7.70624431 6.75005193,6.74338456 C6.75005193,5.78052482 5.91059039,5 4.87502597,5 Z M11.124974,6.23616898 C11.4257759,6.23616898 11.670489,6.46370133 11.670489,6.74338456 C11.670489,7.0230678 11.4257759,7.25060015 11.124974,7.25060015 C10.8241722,7.25060015 10.5794591,7.0230678 10.5794591,6.74338456 C10.5794591,6.46389448 10.8241722,6.23616898 11.124974,6.23616898 L11.124974,6.23616898 Z M11.124974,5 C10.0894096,5 9.24994807,5.78052482 9.24994807,6.74338456 C9.24994807,7.70624431 10.0894096,8.48676913 11.124974,8.48676913 C12.1605385,8.48676913 13,7.70624431 13,6.74338456 C13,5.78052482 12.1605385,5 11.124974,5 Z M8,9.91435115 C7.92625369,9.91435115 7.85250737,9.94989101 7.81428393,10.0211639 L6.90045286,11.7205099 C6.83148448,11.8489556 6.93182101,12 7.08616893,12 L8.91383107,12 C9.06817899,12 9.16872325,11.8489556 9.09954714,11.7205099 L8.18571607,10.0211639 C8.14749263,9.94969786 8.07374631,9.91435115 8,9.91435115 Z" id="形状"></path>
                        </g>
                    </g>
                </g>
            </g>
        </g>
    </g>
</svg>