<?xml version="1.0" encoding="UTF-8"?>
<svg width="16px" height="16px" viewBox="0 0 16 16" version="1.1" xmlns="http://www.w3.org/2000/svg" xmlns:xlink="http://www.w3.org/1999/xlink">
    <!-- Generator: Sketch 53.1 (72631) - https://sketchapp.com -->
    <title>空气湿度icon</title>
    <desc>Created with Sketch.</desc>
    <g id="页面-1" stroke="none" stroke-width="1" fill="none" fill-rule="evenodd">
        <g id="02-01植株健康-物联网监测预警" transform="translate(-1088.000000, -434.000000)">
            <g id="分组-10" transform="translate(1072.000000, 416.000000)">
                <g id="空气湿度icon" transform="translate(16.000000, 18.000000)">
                    <rect id="矩形" fill="#D8D8D8" opacity="0" x="0" y="0" width="16" height="16"></rect>
                    <path d="M7.98343676,0.345035941 L7.50162431,0 L7.02062437,0.345035941 C1.04793749,4.94218148 1,9.88519637 1,10.1018856 C1,13.3522242 3.93799969,16 7.49999931,16 C11.0619989,16 13.9999986,13.3547245 13.9999986,10.1018856 C14.0032486,4.94384832 8.22474924,0.520887592 7.98343676,0.345035941 Z M7.50162431,14.700698 C4.70824961,14.700698 2.44462485,12.6621523 2.44462485,10.1043859 C2.44462485,10.0602146 2.49256234,5.81060527 7.50162431,1.73434733 C8.80162418,2.86196479 12.5586238,6.33065944 12.5578113,10.1043859 C12.5578113,12.6196479 10.298249,14.700698 7.50162431,14.700698 Z M5.52724952,10.2343994 C5.19006206,8.76257944 6.44212443,7.19824982 6.44212443,7.19824982 L5.28674955,6.41733514 C5.19006206,6.50067715 3.64874972,8.45671424 4.08262468,10.4944265 C4.32637465,11.5778727 5.09337457,12.4896343 6.34624944,13.1397021 L7.11649936,12.012918 C6.20081195,11.5345348 5.67187451,10.9703094 5.52724952,10.2343994 L5.52724952,10.2343994 Z" id="形状" fill="#00BB65" fill-rule="nonzero"></path>
                </g>
            </g>
        </g>
    </g>
</svg>