<?xml version="1.0" encoding="UTF-8"?>
<svg width="16px" height="16px" viewBox="0 0 16 16" version="1.1" xmlns="http://www.w3.org/2000/svg" xmlns:xlink="http://www.w3.org/1999/xlink">
    <!-- Generator: Sketch 53.1 (72631) - https://sketchapp.com -->
    <title>空气温度icon</title>
    <desc>Created with Sketch.</desc>
    <g id="页面-1" stroke="none" stroke-width="1" fill="none" fill-rule="evenodd">
        <g id="02-01植株健康-物联网监测预警" transform="translate(-1088.000000, -202.000000)">
            <g id="分组-10" transform="translate(1072.000000, 184.000000)">
                <g id="空气温度icon" transform="translate(16.000000, 18.000000)">
                    <rect id="矩形" fill="#D8D8D8" opacity="0" x="0" y="0" width="16" height="16"></rect>
                    <path d="M2.40001658,14.7079347 C1.50063412,13.8825795 0.996489016,12.7593331 1.00001841,11.5887079 C1.0024487,10.3749631 1.54445697,9.21532979 2.49934977,8.3808703 L2.49934977,2.43594042 C2.49934977,1.76335907 2.87334927,1.11600722 3.52601509,0.65941496 C4.18018648,0.220660758 4.9707985,-0.0105737615 5.77934546,0.000371395483 C6.58743828,-0.0103068157 7.37753775,0.220914612 8.0313425,0.65941496 C8.6840083,1.11600724 9.05800782,1.76335908 9.05800781,2.43594042 L9.05800781,8.38025494 C10.0133142,9.21475599 10.5555847,10.3746573 10.5580058,11.5887079 C10.5578719,13.3727272 9.39363186,14.9810583 7.60803879,15.6639188 C5.82244571,16.3467793 3.76703697,15.9697315 2.40001658,14.70855 L2.40001658,14.7079347 L2.40001658,14.7079347 Z M3.78268142,2.43594042 L3.78268142,8.92668881 L3.55068173,9.10391062 C2.41563359,9.97058665 1.99155552,11.4013345 2.49052472,12.6806515 C2.98949392,13.9599685 4.30426957,14.8128977 5.77734546,14.8128977 C7.25042134,14.8128977 8.565197,13.9599685 9.0641662,12.6806515 C9.5631354,11.4013345 9.13905732,9.97058665 8.00400919,9.10391062 L7.7720095,8.92668881 L7.7720095,2.43594042 C7.7720095,1.75843624 6.8580107,1.18615752 5.77734546,1.18615752 C4.69734688,1.18615752 3.78334808,1.75843624 3.78334808,2.43532507 L3.78268142,2.43594042 Z M3.34001533,11.5887079 C3.34053614,10.6977726 3.91000445,9.89086286 4.79268009,9.53035057 L4.79268009,4.06785782 C4.79268009,3.68818472 5.23467951,3.37866194 5.77801213,3.37866194 C6.32067809,3.37866194 6.7626775,3.68818474 6.7626775,4.06785782 L6.7626775,9.53035057 C7.87543106,9.98381144 8.45582423,11.1249724 8.12293028,12.2048607 C7.79003633,13.284749 6.64571665,13.9729322 5.4410172,13.8177384 C4.23631775,13.6625446 3.33986148,12.711461 3.34001533,11.5887079 Z M10.3333395,1.84581644 L14.3333342,1.84581644 C14.7015236,1.84581644 15,2.12131958 15,2.46116991 C15,2.80102025 14.7015236,3.07652338 14.3333342,3.07652338 L10.3333395,3.07652338 C9.96515012,3.07652338 9.66667368,2.80102025 9.66667368,2.46116991 C9.66667368,2.12131958 9.96515012,1.84581644 10.3333395,1.84581644 Z M10.3333395,3.69187685 L14.3333342,3.69187685 C14.7015236,3.69187685 15,3.96737998 15,4.30723032 C15,4.64708066 14.7015236,4.92258379 14.3333342,4.92258379 L10.3333395,4.92258379 C9.96515012,4.92258379 9.66667368,4.64708066 9.66667368,4.30723032 C9.66667368,3.96737998 9.96515012,3.69187685 10.3333395,3.69187685 L10.3333395,3.69187685 Z M10.3333395,5.53793725 L14.3333342,5.53793725 C14.7015236,5.53793725 15,5.81344039 15,6.15329073 C15,6.49314106 14.7015236,6.7686442 14.3333342,6.7686442 L10.3333395,6.7686442 C9.96515012,6.7686442 9.66667368,6.49314106 9.66667368,6.15329073 C9.66667368,5.81344039 9.96515012,5.53793725 10.3333395,5.53793725 Z" id="形状" fill="#00BB65" fill-rule="nonzero"></path>
                </g>
            </g>
        </g>
    </g>
</svg>