<?xml version="1.0" encoding="UTF-8"?>
<svg width="16px" height="16px" viewBox="0 0 16 16" version="1.1" xmlns="http://www.w3.org/2000/svg" xmlns:xlink="http://www.w3.org/1999/xlink">
    <!-- Generator: Sketch 53.1 (72631) - https://sketchapp.com -->
    <title>系统日志icon</title>
    <desc>Created with Sketch.</desc>
    <g id="页面-1" stroke="none" stroke-width="1" fill="none" fill-rule="evenodd">
        <g id="02-02植株健康-氮肥模型分析" transform="translate(-16.000000, -616.000000)">
            <g id="左侧菜单">
                <g id="分组" transform="translate(0.000000, 600.000000)">
                    <g id="系统日志icon" transform="translate(16.000000, 16.000000)">
                        <rect id="矩形" fill="#D8D8D8" opacity="0" x="0" y="0" width="16" height="16"></rect>
                        <g id="执行日志" transform="translate(8.000000, 8.000000) scale(-1, 1) translate(-8.000000, -8.000000) translate(0.000000, 0.500000)" fill="#FFFFFF">
                            <path d="M4.18785174,2.02403299 C4.14926136,1.98307736 4.09566361,1.94212173 4.03777804,1.91254266 C3.92415081,1.86248578 3.7933723,1.86248578 3.67974508,1.91254266 C3.62614733,1.94212173 3.56826176,1.97397611 3.52967138,2.02403299 C3.48250536,2.07181456 3.45463453,2.12187144 3.42461979,2.18330489 C3.4053246,2.24246303 3.38602941,2.31299772 3.38602941,2.37215586 C3.38602941,2.51322526 3.44391498,2.63154152 3.52752747,2.7339306 C3.56611785,2.77488623 3.6197156,2.81584187 3.67760117,2.84542093 C3.73548673,2.86589875 3.80194794,2.875 3.8576896,2.875 C3.97989247,2.875 4.10209534,2.82494312 4.18570783,2.7339306 C4.28003986,2.64291809 4.32720588,2.51322526 4.32720588,2.37215586 C4.32720588,2.31299772 4.31863024,2.24246303 4.2886155,2.18330489 C4.27146422,2.12414676 4.23501775,2.07408987 4.18785174,2.02403299 L4.18785174,2.02403299 Z M6.06838235,2.01314667 C5.89725936,1.82895111 5.58923797,1.82895111 5.41169786,2.01314667 C5.36463904,2.06090108 5.32613636,2.11320352 5.30688503,2.17460205 C5.27907754,2.23372655 5.26838235,2.30649517 5.26838235,2.36789369 C5.26838235,2.51115691 5.31544118,2.63167993 5.40955882,2.7340108 C5.49512032,2.82269756 5.61490642,2.875 5.73897059,2.875 C5.85875668,2.875 5.98282086,2.82269756 6.06838235,2.7340108 C6.1625,2.63167993 6.20955882,2.51115691 6.20955882,2.36789369 C6.20955882,2.30876919 6.20100267,2.23600057 6.17105615,2.17460205 C6.15180481,2.11547754 6.11544118,2.0631751 6.06838235,2.01314667 Z M7.95041371,2.02053558 C7.8196352,1.87926413 7.61381984,1.83824984 7.44230705,1.90888557 C7.3887093,1.938507 7.33082373,1.970407 7.28365771,2.02053558 C7.24506733,2.06838559 7.20862086,2.11851417 7.18932567,2.18003561 C7.16145484,2.23927847 7.15073529,2.3099142 7.15073529,2.37143564 C7.15073529,2.51270709 7.19790131,2.63347139 7.28365771,2.73372855 C7.32867982,2.77474284 7.38656539,2.81575713 7.44230705,2.84537857 C7.4959048,2.86588571 7.55379037,2.875 7.62025157,2.875 C7.74459835,2.875 7.86465731,2.82487142 7.95041371,2.73372855 C8.04474575,2.63119282 8.09191176,2.51270709 8.09191176,2.37143564 C8.09191176,2.31219277 8.08333612,2.24155705 8.05332139,2.18003561 C8.0340262,2.12079274 7.99757973,2.07066416 7.95041371,2.02053558 L7.95041371,2.02053558 Z" id="形状" fill-rule="nonzero"></path>
                            <path d="M15.6213235,0 L0.5625,0 L0.5625,15 L15.6213235,15 L15.6213235,0 Z M1.88014706,1.66936678 C1.88014706,1.47261513 2.06155734,1.3125 2.28447675,1.3125 L13.8993468,1.3125 C14.1222662,1.3125 14.3036765,1.47261513 14.3036765,1.66936678 L14.3036765,3.375 L1.88014706,3.375 L1.88014706,1.66936678 Z M14.3036765,13.6875 L1.88014706,13.6875 L1.88014706,4.6875 L14.3036765,4.6875 L14.3036765,13.6875 Z" id="形状" fill-rule="nonzero"></path>
                            <rect id="矩形" x="3.38602941" y="7.125" width="8.47058824" height="1.3125"></rect>
                            <rect id="矩形" x="3.38602941" y="10.03125" width="5.64705882" height="1.3125"></rect>
                        </g>
                    </g>
                </g>
            </g>
        </g>
    </g>
</svg>