<?xml version="1.0" encoding="UTF-8"?>
<svg width="24px" height="24px" viewBox="0 0 24 24" version="1.1" xmlns="http://www.w3.org/2000/svg" xmlns:xlink="http://www.w3.org/1999/xlink">
    <!-- Generator: Sketch 53.1 (72631) - https://sketchapp.com -->
    <title>育秧icon</title>
    <desc>Created with Sketch.</desc>
    <g id="页面-1" stroke="none" stroke-width="1" fill="none" fill-rule="evenodd">
        <g id="04-07农事管理-农事决策服务" transform="translate(-452.000000, -167.000000)">
            <g id="决策时间轴" transform="translate(224.000000, 72.000000)">
                <g id="育秧" transform="translate(219.000000, 86.000000)">
                    <g id="育秧icon" transform="translate(9.000000, 9.000000)">
                        <rect id="矩形" x="0" y="0" width="24" height="24"></rect>
                        <path d="M21.9795491,20.4641338 C21.938023,20.5915165 21.8382688,20.6914013 21.7110527,20.7329819 L16.8552667,20.7329819 C16.6826216,20.6760371 16.565967,20.5145786 16.565967,20.3325699 C16.565967,20.1505612 16.6826216,19.9891026 16.8552667,19.9321578 L21.7110527,19.9321578 C21.9308723,20.0060173 22.0505386,20.2431138 21.9795491,20.4641338 L21.9795491,20.4641338 Z M17.0523545,14.6123981 C17.4364241,13.4583598 18.6813401,12.8338067 19.8344342,13.2166762 C19.8359168,13.218308 19.8379537,13.2193277 19.8401469,13.2195363 L20.7798843,13.5370058 C20.9227788,13.5850387 21.0407221,13.6880151 21.1077023,13.8232239 C21.1746824,13.9584327 21.1851971,14.1147669 21.1369274,14.2577474 L20.859862,15.1014728 C20.5645237,15.9983236 19.7320764,16.6076684 18.7890121,16.6173183 C18.5519644,16.6181879 18.3164268,16.5795246 18.092064,16.5029149 L17.1523266,16.1883054 C16.8515216,16.0990301 16.6783585,15.7841233 16.7638637,15.4818642 C16.766921,15.4720467 16.7707411,15.4624838 16.775289,15.4532633 L17.0523545,14.6123981 Z M17.8092858,9.35842034 C17.5470498,9.35768565 17.2856413,9.32892181 17.0295037,9.27261775 C16.2354399,10.7913233 15.8098445,13.5227054 15.8098445,17.0949526 L15.8098445,21.3564806 C15.7894183,21.6560234 15.541181,21.8887765 15.2413344,21.889529 C14.9414878,21.8902815 14.6920885,21.6587772 14.670163,21.3593407 L14.670163,17.0949526 C14.670163,14.4293526 14.910096,10.9943895 15.9669435,8.85790531 C14.3746104,7.92854738 13.7163422,5.96171388 14.4278541,4.25927417 C15.1393661,2.55683445 17.000447,1.64568928 18.7792264,2.12893596 C20.5580058,2.61218263 21.7039559,4.34025754 21.4585595,6.16932833 C21.213163,7.99839912 19.6523695,9.36237305 17.8092858,9.35842034 L17.8092858,9.35842034 Z M18.0320807,6.54409583 L18.8946968,5.62600827 L17.7921478,5.26277735 L18.0320807,6.54409583 Z M15.2642827,5.66604947 C15.2633183,6.60600237 15.7793503,7.47011383 16.6067647,7.91407696 C16.6696044,7.87897197 16.738342,7.85570631 16.8095652,7.8454349 L17.2408732,7.38782117 C17.100388,7.31119035 16.9994967,7.17788099 16.9638078,7.02173016 L16.5610632,4.85664517 L15.5384918,4.51915502 C15.3578643,4.87438592 15.263893,5.26742604 15.2642827,5.66604947 L15.2642827,5.66604947 Z M17.8092858,3.11771294 L17.8092858,3.11485287 C17.2816575,3.11381246 16.767056,3.2789007 16.3382683,3.58676702 L16.6239028,3.68114986 C16.7720148,3.54746652 16.9796999,3.5022067 17.1699006,3.56216314 C17.3601013,3.62211957 17.5044384,3.77834632 17.5493585,3.97287862 C17.5516674,3.97727004 17.5526594,3.98223619 17.5522148,3.98717904 L19.7516003,4.71364087 L20.0258093,4.41905201 C19.5749601,3.61720538 18.7282724,3.1201081 17.8092858,3.11771294 L17.8092858,3.11771294 Z M18.0492188,8.20294563 C19.3234041,8.08267799 20.3096267,7.03267833 20.3514326,5.75185204 L18.0492188,8.20294563 Z M14.338827,13.8802161 L14.0617616,14.7239414 C13.7600613,15.6235811 12.9186817,16.2301218 11.9709172,16.2312067 C11.73305,16.2306698 11.4967989,16.1920476 11.2711128,16.1168033 L10.3342317,15.7993337 C10.328519,15.7993337 10.3228063,15.7936136 10.3170936,15.7936136 C10.3627951,16.5143552 10.3485134,17.1864754 10.3370881,17.7584926 L10.3370881,21.4308428 C10.3371639,21.5818159 10.2773021,21.7266274 10.1706876,21.8333815 C10.0640731,21.9401356 9.91945108,22.0000758 9.76867546,21.9999999 L9.75725008,21.9999999 C9.44805594,21.9931671 9.20080797,21.7405169 9.20026286,21.4308428 L9.20026286,17.7356119 C9.24882072,15.6534694 9.32022934,12.5045148 6.43817752,10.5682367 C6.17630993,10.3936929 6.10533491,10.0396335 6.27965039,9.77742292 C6.45396587,9.51521234 6.80756211,9.44414436 7.0694297,9.61868815 C7.47444259,9.89047238 7.85228336,10.2008034 8.19768586,10.545356 C8.17652459,10.5101699 8.15928333,10.4727649 8.14627168,10.4338126 L7.90919505,9.5900873 C7.58660456,8.41517284 8.273712,7.20028991 9.44590852,6.8730057 L10.4056403,6.60129754 C10.5503509,6.56036166 10.7053987,6.57903333 10.8362892,6.65315854 C10.9671798,6.72728376 11.0630563,6.85071416 11.1025885,6.9959894 L11.3396651,7.83971474 C11.6626535,9.01309972 10.9766734,10.2269688 9.80580796,10.5539362 L9.8029516,10.5539362 L8.84321978,10.8170641 C8.7947384,10.8364729 8.74378151,10.8489881 8.69183351,10.8542452 C8.584805,10.8527652 8.48054854,10.819956 8.39191731,10.7598624 C9.33163359,11.8102491 9.94767867,13.1105054 10.1657074,14.5037148 L10.2542541,14.2348668 C10.4397478,13.6802967 10.8377147,13.2222576 11.3605614,12.9615646 C11.8834081,12.7008717 12.4882811,12.6588919 13.0420465,12.844865 L13.9817839,13.1594745 C14.2789306,13.2600244 14.4386732,13.5824872 14.338827,13.8802161 L14.338827,13.8802161 Z M5.52700357,9.00376968 L5.52414722,9.00376968 L4.68152552,9.14105382 C4.10411801,9.24108546 3.51087242,9.10255685 3.03722055,8.75709263 C2.56356868,8.41162841 2.24994343,7.88871885 2.16794219,7.30773876 L2.00798688,6.30956878 C1.9560522,6.0009683 2.16280973,5.70831712 2.47071471,5.65460912 L3.31048006,5.51732501 C4.5125509,5.32868341 5.64095336,6.14797451 5.8354888,7.35064004 L5.9954441,8.34881002 C6.04649664,8.65914728 5.83686779,8.95224411 5.52700357,9.00376968 L5.52700357,9.00376968 Z M2.49356547,20.0208205 L8.08343209,19.9321578 C8.18913139,19.9674004 8.27651048,20.0432592 8.32633243,20.1430336 C8.37615437,20.242808 8.38433458,20.3583181 8.34907214,20.4641338 C8.30962136,20.5917712 8.21047332,20.6921166 8.08343209,20.7329819 L2.49356547,20.8216446 C2.32211485,20.7635451 2.20673062,20.6024725 2.20673062,20.4212325 C2.20673062,20.2399926 2.32211485,20.07892 2.49356547,20.0208205 L2.49356547,20.0208205 Z M7.42076011,12.3243294 L6.7180993,13.0307706 C5.85714908,13.8887267 4.4656338,13.8887267 3.60468357,13.0307706 L2.98200042,12.4072719 C2.76205441,12.1835265 2.76205441,11.8244731 2.98200042,11.6007277 L3.68466122,10.8971465 C4.09750859,10.4837087 4.6574796,10.2514375 5.24136909,10.2514375 C5.82525857,10.2514375 6.38522959,10.4837087 6.79807695,10.8971465 L7.42076011,11.5206453 C7.52768634,11.6269591 7.58782045,11.7716039 7.58782045,11.9224873 C7.58782045,12.0733708 7.52768634,12.2180156 7.42076011,12.3243294 L7.42076011,12.3243294 Z M6.60670187,18.9740291 C6.3572533,18.9753647 6.10927263,18.9357517 5.87262127,18.8567655 L4.69866359,18.4649338 C4.40151686,18.3643839 4.24177431,18.0419211 4.3416205,17.7441921 L4.57298443,17.0091501 C4.76604553,16.4257502 5.18271181,15.9430743 5.73127305,15.6673616 C6.2798343,15.3916489 6.91532886,15.3454977 7.49788141,15.5390659 C7.50475926,15.5414001 7.51144442,15.5442689 7.51787582,15.5476462 L8.69183351,15.9394779 C8.98898023,16.0400279 9.14872278,16.3624906 9.04887659,16.6602196 L8.78038019,17.3924016 C8.46660891,18.3296714 7.59389152,18.9646843 6.60670187,18.9740291 L6.60670187,18.9740291 Z M11.5918565,19.9321578 L13.1844759,19.9321578 C13.4226069,19.8812249 13.6876374,19.912289 13.8771304,20.0133435 C14.0666233,20.1143979 14.1508907,20.2696105 14.0973624,20.4189899 C14.043834,20.5683693 13.8608961,20.6885121 13.6192562,20.7329819 C13.478183,20.7615862 13.3255491,20.7615862 13.1844759,20.7329819 L11.5918565,20.7329819 C11.3062121,20.6760371 11.1132049,20.5145786 11.1132049,20.3325699 C11.1132049,20.1505612 11.3062121,19.9891026 11.5918565,19.9321578 L11.5918565,19.9321578 Z" id="形状" fill="#FFFFFF" fill-rule="nonzero"></path>
                    </g>
                </g>
            </g>
        </g>
    </g>
</svg>