<?xml version="1.0" encoding="UTF-8"?>
<svg width="16px" height="16px" viewBox="0 0 16 16" version="1.1" xmlns="http://www.w3.org/2000/svg" xmlns:xlink="http://www.w3.org/1999/xlink">
    <!-- Generator: Sketch 53.1 (72631) - https://sketchapp.com -->
    <title>虫害管理icon</title>
    <desc>Created with Sketch.</desc>
    <g id="页面-1" stroke="none" stroke-width="1" fill="none" fill-rule="evenodd">
        <g id="01-01智慧土壤-土壤样本分析" transform="translate(-16.000000, -392.000000)">
            <g id="左侧菜单">
                <g id="分组" transform="translate(0.000000, 376.000000)">
                    <g id="虫害管理icon" transform="translate(16.000000, 16.000000)">
                        <rect id="矩形" fill="#D8D8D8" opacity="0" x="0" y="0" width="16" height="16"></rect>
                        <g id="虫害管理" transform="translate(1.000000, 0.000000)" fill="#FFFFFF" fill-rule="nonzero">
                            <path d="M12.8833507,7.59632091 C12.5248042,7.2645309 12.153327,7.06726595 11.8760584,6.95371833 C11.8634972,6.62808683 11.8064179,6.30726667 11.7070372,6.00049562 C12.6469058,5.19757919 13.0172746,4.25032255 13.1608041,3.56942169 C13.3298253,2.76785243 13.2298903,2.16297075 13.2180681,2.09657426 C13.1578485,1.76228235 12.8489923,1.54211543 12.5281292,1.6048553 C12.207266,1.66759518 11.9959433,1.9893776 12.0561629,2.32366951 C12.0589337,2.33925826 12.2970412,3.76129794 11.1162943,4.90370253 C11.1109373,4.89696666 11.1055804,4.89003833 11.1002234,4.88330245 C10.6432197,4.3226851 10.0321573,3.93739299 9.35921286,3.77169043 C9.30731588,3.55327296 9.22793663,3.34296025 9.12313737,3.14621622 C10.9797843,2.00169463 10.9614967,0.726304597 10.9526301,0.579270043 C10.9323106,0.239781885 10.6520864,-0.0182983984 10.3258663,0.00306395169 C10.0074045,0.023848941 9.76357065,0.303676482 9.77169844,0.633157052 C9.77022066,0.659330743 9.75488868,0.831961626 9.59916753,1.08946455 C9.43402552,1.36294112 9.07880395,1.77767864 8.32587461,2.20126902 C8.31331347,2.2083898 8.30112178,2.21608795 8.28929953,2.22397855 C7.90803207,1.97128696 7.45564641,1.82482977 6.9701954,1.82482977 C6.49416525,1.82482977 6.04972266,1.96570581 5.67325799,2.20954453 C5.66863992,2.20685018 5.66420658,2.20396337 5.65940379,2.20126902 C4.36228166,1.47186986 4.2220772,0.637968392 4.21043968,0.545205755 C4.1698007,0.223808236 3.90841822,-0.0106002542 3.6027023,0.000369601233 C3.29846417,0.0111470031 3.05167477,0.262683864 3.03264834,0.579270043 C3.02950806,0.632772145 3.03283307,0.684927072 3.04225392,0.735157463 C3.08640262,1.0444304 3.2136765,1.38969217 3.40264772,1.71128214 C3.7203706,2.25188432 4.19954104,2.72628245 4.82889096,3.12466141 C4.71818249,3.3276159 4.63476961,3.54545841 4.58099322,3.77207534 C3.93187799,3.93258165 3.33836426,4.29728123 2.8876411,4.82556637 C2.85937854,4.85866839 2.83222432,4.89234777 2.80525482,4.92641206 C1.59753842,3.78015839 1.83897087,2.33945071 1.84174171,2.32366951 C1.90196127,1.9893776 1.69063861,1.66759518 1.36977545,1.6048553 C1.04891228,1.54211543 0.740056086,1.76228235 0.679836516,2.09657426 C0.667829547,2.16297075 0.56807934,2.76785243 0.737100524,3.56942169 C0.882292492,4.2584056 1.25968078,5.22009626 2.22430222,6.02897876 C2.12806174,6.33497999 2.07319913,6.65483788 2.06303939,6.97931466 C1.79352911,7.09613399 1.44939089,7.28820269 1.11652076,7.59632091 C0.50213337,8.16502131 -0.182633329,9.24006715 0.0445754758,11.1332333 C0.0818894421,11.4448156 0.336621915,11.6728732 0.630330858,11.6726807 C0.654714242,11.6726807 0.679467071,11.6711411 0.704404623,11.6678694 C1.02840807,11.625722 1.25820299,11.3177963 1.21756402,10.9804251 C1.08899709,9.90961324 1.30770865,9.09187787 1.8670487,8.54992852 C1.97197114,8.44831302 2.08040331,8.36498061 2.18458686,8.29685203 C2.22873556,8.61690238 2.27657872,8.92771495 2.32811633,9.2294822 C2.22559528,9.38613943 2.16574516,9.51007955 2.13969927,9.56820054 C2.00171148,9.84437146 0.94454401,12.1299505 2.07818664,15.1901552 C2.16870072,15.4345713 2.39258452,15.5844927 2.62976834,15.5844927 C2.7005171,15.5844927 2.77255891,15.5712134 2.84238406,15.5431151 C3.14699164,15.4207147 3.2986489,15.0640981 3.1809806,14.7467421 C2.77108113,13.6401339 2.64713227,12.5300615 2.812459,11.4471251 C2.81319789,11.4417364 2.8141215,11.4365401 2.81504511,11.4313439 C2.96245375,11.9544328 3.12519437,12.4353743 3.30326696,12.872244 C3.68083997,13.7989081 4.13193257,14.5296545 4.64398363,15.0440829 C5.27518078,15.67841 6.0042809,16 6.8107798,16 C7.60323977,16 8.3323399,15.6886101 8.97776068,15.0744906 C9.50385066,14.5739188 9.97951137,13.8612631 10.3916275,12.9567312 C10.643035,12.4047742 10.8726452,11.7804547 11.0799039,11.0872368 C11.1042873,11.1990524 11.1270082,11.3191434 11.1465888,11.4473175 C11.3119155,12.530254 11.1879667,13.6403264 10.7780672,14.7469346 C10.6605836,15.0642906 10.8122409,15.4207147 11.1166637,15.5433076 C11.1866736,15.5714058 11.2585307,15.5846851 11.3292794,15.5846851 C11.5664633,15.5846851 11.7903471,15.4347638 11.8808612,15.1903477 C13.0649331,11.9935009 11.8585097,9.64210273 11.8066027,9.54356648 L11.5675716,9.12767424 C11.6264981,8.84226555 11.6826538,8.54896625 11.7356692,8.247199 C11.8631278,8.32302572 12.0009308,8.42213933 12.1330075,8.55012098 C12.6925323,9.09207032 12.9110591,9.90980569 12.7824922,10.9806175 C12.7420379,11.3181812 12.9718329,11.6259145 13.2956516,11.6680618 C13.3205891,11.6713335 13.345342,11.6728732 13.3697254,11.6728732 C13.6634343,11.6728732 13.9181668,11.4450081 13.9554807,11.1334257 C14.1825048,9.24006715 13.4979228,8.16502131 12.8833507,7.59632091 Z M6.96982596,3.05634038 C7.42498246,3.05634038 7.8249069,3.3055678 8.05156154,3.67950516 L5.88809038,3.67950516 C6.11474502,3.30537535 6.51466946,3.05634038 6.96982596,3.05634038 L6.96982596,3.05634038 Z M8.18031319,14.1647624 C7.75360397,14.5706471 7.30546693,14.7681045 6.81041035,14.7681045 C6.31350654,14.7681045 5.87331257,14.5683376 5.464152,14.1572567 C5.06718312,13.7584929 4.70623515,13.1640037 4.39109838,12.3907251 C3.88200288,11.1411239 3.48983679,9.39691683 3.25708631,7.34690104 C3.1871707,6.72876481 3.37417737,6.10896813 3.7709846,5.64368664 C3.99521532,5.38092398 4.27710822,5.17854946 4.59263075,5.05381634 C4.82778262,4.9606688 5.07974426,4.91120822 5.33650868,4.91120822 L8.60314324,4.91120822 C8.86083127,4.91120822 9.11242346,4.96047635 9.34720589,5.05343144 C9.6773452,5.18413196 9.97031777,5.39984834 10.1987771,5.68044528 C10.5974085,6.16966234 10.7688311,6.8136121 10.6688961,7.44716937 C10.3489566,9.47563036 9.88382506,11.1980901 9.32337668,12.428446 C8.97720651,13.1882528 8.59261405,13.772542 8.18031319,14.1647624 L8.18031319,14.1647624 Z" id="形状"></path>
                        </g>
                    </g>
                </g>
            </g>
        </g>
    </g>
</svg>