<?xml version="1.0" encoding="UTF-8"?>
<svg width="16px" height="16px" viewBox="0 0 16 16" version="1.1" xmlns="http://www.w3.org/2000/svg" xmlns:xlink="http://www.w3.org/1999/xlink">
    <!-- Generator: Sketch 53.1 (72631) - https://sketchapp.com -->
    <title>虫情识别icon</title>
    <desc>Created with Sketch.</desc>
    <g id="页面-1" stroke="none" stroke-width="1" fill="none" fill-rule="evenodd">
        <g id="05-02虫害管理-AI虫情识别" transform="translate(-1088.000000, -156.000000)" fill="#00BB65" fill-rule="nonzero">
            <g id="分组-10" transform="translate(1072.000000, 138.000000)">
                <g id="虫情识别icon" transform="translate(16.000000, 18.000000)">
                    <path d="M8.47822222,4.02844444 C8.634935,4.04708771 8.77000781,4.14743735 8.83310104,4.29209458 C8.89619426,4.4367518 8.87784391,4.60401799 8.78488889,4.73155556 C8.26989574,5.43904826 8.34635077,6.41610014 8.96512532,7.03487468 C9.58389986,7.65364923 10.5609517,7.73010426 11.2684444,7.21511111 C11.395982,7.12215609 11.5632482,7.10380574 11.7079054,7.16689896 C11.8525626,7.22999219 11.9529123,7.365065 11.9715556,7.52177778 C12.1753593,9.2150166 11.2831615,10.8512512 9.7494134,11.5970464 C8.21566531,12.3428416 6.37773431,12.0341503 5.171792,10.828208 C3.96584969,9.62226569 3.65715838,7.78433469 4.40295358,6.2505866 C5.14874879,4.71683851 6.7849834,3.82464066 8.47822222,4.02844444 L8.47822222,4.02844444 Z M8,16 C3.581722,16 7.89491929e-16,12.418278 0,8 C-7.89491929e-16,3.581722 3.581722,7.89491929e-16 8,0 C12.418278,0 16,3.581722 16,8 C16,12.418278 12.418278,16 8,16 L8,16 Z M8,14.2222222 C11.4364384,14.2222222 14.2222222,11.4364384 14.2222222,8 C14.2222222,4.56356156 11.4364384,1.77777778 8,1.77777778 C4.56356156,1.77777778 1.77777778,4.56356156 1.77777778,8 C1.77777778,11.4364384 4.56356156,14.2222222 8,14.2222222 Z" id="形状"></path>
                </g>
            </g>
        </g>
    </g>
</svg>