<?xml version="1.0" encoding="UTF-8"?>
<svg width="50px" height="50px" viewBox="0 0 50 50" version="1.1" xmlns="http://www.w3.org/2000/svg" xmlns:xlink="http://www.w3.org/1999/xlink">
    <!-- Generator: Sketch 63.1 (92452) - https://sketch.com -->
    <title>虫情灯icon</title>
    <desc>Created with Sketch.</desc>
    <defs>
        <linearGradient x1="0%" y1="14.8660714%" x2="100%" y2="100%" id="linearGradient-1">
            <stop stop-color="#81ABC1" offset="0%"></stop>
            <stop stop-color="#5B748B" offset="100%"></stop>
        </linearGradient>
        <rect id="path-2" x="6" y="6" width="38" height="38" rx="19"></rect>
        <filter x="-23.7%" y="-18.4%" width="147.4%" height="147.4%" filterUnits="objectBoundingBox" id="filter-3">
            <feMorphology radius="2" operator="dilate" in="SourceAlpha" result="shadowSpreadOuter1"></feMorphology>
            <feOffset dx="0" dy="2" in="shadowSpreadOuter1" result="shadowOffsetOuter1"></feOffset>
            <feGaussianBlur stdDeviation="2" in="shadowOffsetOuter1" result="shadowBlurOuter1"></feGaussianBlur>
            <feComposite in="shadowBlurOuter1" in2="SourceAlpha" operator="out" result="shadowBlurOuter1"></feComposite>
            <feColorMatrix values="0 0 0 0 0.0666666667   0 0 0 0 0.180392157   0 0 0 0 0.431372549  0 0 0 0.4 0" type="matrix" in="shadowBlurOuter1"></feColorMatrix>
        </filter>
    </defs>
    <g id="页面-1" stroke="none" stroke-width="1" fill="none" fill-rule="evenodd">
        <g id="02-01植株健康-物联网监测预警" transform="translate(-768.000000, -211.000000)">
            <g id="虫情灯icon" transform="translate(768.000000, 209.000000)">
                <rect id="矩形" x="0" y="0" width="50" height="50"></rect>
                <g id="Rectangle-3">
                    <use fill="black" fill-opacity="1" filter="url(#filter-3)" xlink:href="#path-2"></use>
                    <rect stroke="#FFFFFF" stroke-width="2" fill="url(#linearGradient-1)" fill-rule="evenodd" x="5" y="5" width="40" height="40" rx="20"></rect>
                </g>
                <g id="灯" transform="translate(14.000000, 12.000000)" fill="#FFFFFF" fill-rule="nonzero">
                    <path d="M11.0000018,2.16690752 C6.15095453,2.16690752 2.19986187,6.08526011 2.19986187,10.9450867 C2.18945415,14.2187377 4.02820599,17.2270014 6.97185623,18.7521676 C7.3350774,18.9393868 7.56254141,19.3096605 7.56220055,19.7131503 L7.56220055,21.6278902 C7.56220055,22.8583815 8.55932445,23.8330925 9.76277514,23.8330925 L12.2372284,23.8330925 C13.4414133,23.8330925 14.437803,22.857659 14.437803,21.6286127 L14.437803,19.7131503 C14.4374621,19.3096605 14.6649261,18.9393868 15.0281473,18.7521676 C17.9720819,17.2271972 19.8111404,14.2188946 19.8008747,10.9450867 C19.8008747,6.08526011 15.849049,2.16618496 11.0000018,2.16618496 L11.0000018,2.16690752 Z M3.28265965e-05,10.9450867 C3.28265965e-05,4.9118497 4.91225939,0 11.0000018,0 C17.0870099,0 21.9999689,4.9118497 21.9999689,10.9450867 C22.0091697,14.7864864 19.974952,18.3525409 16.6376433,20.3453757 L16.6376433,21.6286127 C16.6376433,24.0310694 14.6793742,26 12.2372284,26 L9.76277514,26 C7.32062931,26 5.36236022,24.0310694 5.36236024,21.6286127 L5.36236024,20.3460983 C2.02482711,18.3531303 -0.00942368468,14.7867436 3.28265965e-05,10.9450867 Z" id="形状"></path>
                    <path d="M11,9.00071425 C11.5516997,9.00071425 11.9993302,9.47996355 11.9993302,10.0720614 L11.9993302,14.8902669 C12.012696,15.281836 11.825202,15.6499432 11.5105062,15.8499757 C11.1958105,16.0500081 10.8041895,16.0500081 10.4894938,15.8499757 C10.174798,15.6499432 9.98730399,15.281836 10.0006698,14.8902669 L10.0006698,10.0713472 C10.0006698,9.47996355 10.4476332,9 11,9 L11,9.00071425 Z" id="路径"></path>
                    <path d="M7.14868115,7.5324949 C7.45266845,7.02668102 8.12631494,6.85284888 8.65373455,7.14412108 L10.9970549,8.44552638 L13.3403752,7.14553335 C13.6817394,6.95321091 14.1044012,6.95138753 14.4475542,7.14075694 C14.7907072,7.33012635 15.0015945,7.68157463 15,8.0613894 C14.9991754,8.44107091 14.786621,8.7912953 14.4428544,8.97936382 L11.5482945,10.585113 C11.2072269,10.7742145 10.7868828,10.7742145 10.4458153,10.585113 L7.55125533,8.97936382 C7.02397914,8.68664285 6.84348917,8.03945387 7.14794519,7.53320102 L7.14868115,7.53320102 L7.14868115,7.5324949 Z M9,17.9996665 C9,17.4474825 9.39173921,17 9.87455318,17 L12.1245713,17 C12.6080572,17 13,17.4477153 13,18 C13,18.5522847 12.6080572,19 12.1245713,19 L9.87455318,19 C9.64245245,18.9998232 9.41991946,18.8943319 9.25590895,18.7067329 C9.09189844,18.519134 8.9998453,18.2647946 9,17.9996665 Z M9,21 C9,20.448 9.39171062,20 9.87448936,20 L12.1243433,20 C12.6079551,20 13,20.4477153 13,21 C13,21.5522847 12.6079551,22 12.1243433,22 L9.87448936,22 C9.64240557,21.9998233 9.41988882,21.8943671 9.25589027,21.7068307 C9.09189173,21.5192943 8.99984531,21.2650397 9,21 L9,21 Z" id="形状"></path>
                </g>
            </g>
        </g>
    </g>
</svg>