<?xml version="1.0" encoding="UTF-8"?>
<svg width="50px" height="50px" viewBox="0 0 50 50" version="1.1" xmlns="http://www.w3.org/2000/svg" xmlns:xlink="http://www.w3.org/1999/xlink">
    <!-- Generator: Sketch 53.1 (72631) - https://sketchapp.com -->
    <title>虫情灯icon_选中</title>
    <desc>Created with Sketch.</desc>
    <defs>
        <linearGradient x1="95.6760296%" y1="95.6760296%" x2="0%" y2="0%" id="linearGradient-1">
            <stop stop-color="#F7961D" offset="0%"></stop>
            <stop stop-color="#FFD393" offset="100%"></stop>
        </linearGradient>
        <rect id="path-2" x="6" y="4" width="38" height="38" rx="19"></rect>
        <filter x="-23.7%" y="-18.4%" width="147.4%" height="147.4%" filterUnits="objectBoundingBox" id="filter-3">
            <feMorphology radius="2" operator="dilate" in="SourceAlpha" result="shadowSpreadOuter1"></feMorphology>
            <feOffset dx="0" dy="2" in="shadowSpreadOuter1" result="shadowOffsetOuter1"></feOffset>
            <feGaussianBlur stdDeviation="2" in="shadowOffsetOuter1" result="shadowBlurOuter1"></feGaussianBlur>
            <feComposite in="shadowBlurOuter1" in2="SourceAlpha" operator="out" result="shadowBlurOuter1"></feComposite>
            <feColorMatrix values="0 0 0 0 0.521568627   0 0 0 0 0.337254902   0 0 0 0 0.0666666667  0 0 0 0.2 0" type="matrix" in="shadowBlurOuter1"></feColorMatrix>
        </filter>
    </defs>
    <g id="页面-1" stroke="none" stroke-width="1" fill="none" fill-rule="evenodd">
        <g id="05-02虫害管理-AI虫情识别" transform="translate(-714.000000, -231.000000)">
            <g id="虫情灯icon_选中" transform="translate(714.000000, 231.000000)">
                <g id="Rectangle-3">
                    <use fill="black" fill-opacity="1" filter="url(#filter-3)" xlink:href="#path-2"></use>
                    <rect stroke="#FFFFFF" stroke-width="2" fill="url(#linearGradient-1)" fill-rule="evenodd" x="5" y="3" width="40" height="40" rx="20"></rect>
                </g>
                <g id="灯泡-2" transform="translate(17.000000, 11.000000)" fill="#FFFFFF" fill-rule="nonzero">
                    <path d="M6.15657158,24 C6.12544328,23.9905546 6.09431497,23.980823 6.06308544,23.9716898 C5.70597037,23.8676082 5.47002793,23.5080842 5.51623955,23.1384122 C5.56528561,22.7464929 5.87720136,22.4557929 6.26018076,22.4551163 C7.40512035,22.4530347 8.55011056,22.4530347 9.69505016,22.4551163 C10.0896963,22.4557929 10.4066989,22.7510985 10.4488613,23.1475714 C10.490467,23.5392046 10.2368092,23.8926918 9.84889485,23.9839454 C9.83469731,23.9873281 9.82133491,23.9945617 9.80754229,24 L6.15657158,24 Z M8.00005062,21.828623 C7.09059792,21.828623 6.18109462,21.8300281 5.27164192,21.8281806 C4.57234326,21.8267755 4.03220388,21.2577352 4.04528789,20.5406388 C4.05718245,19.8871883 4.59026102,19.3352694 5.22684753,19.3279056 C5.77245335,19.3215827 6.31821101,19.3261102 6.86386744,19.3260842 C8.15204786,19.3260061 9.44025358,19.3250954 10.7284087,19.3265526 C11.3126845,19.3272291 11.7934017,19.722375 11.9249251,20.3040872 C12.0976999,21.0680204 11.5283049,21.8215714 10.7642695,21.8268015 C9.84294757,21.8330464 8.92144848,21.8282847 8.00007592,21.8282847 L8.00005062,21.828623 Z M15.949562,7.31043367 C15.6115542,4.1485898 13.5049524,1.45693469 10.5711728,0.43670051 C9.88678028,0.198691837 9.18459655,0.0557617347 8.46297661,0.0147535714 C8.43374637,0.0130882653 8.40487044,0.00504795918 8.37584266,0 L7.62415734,0 C7.45257204,0.0172255102 7.28080959,0.0325515306 7.10945206,0.0518326531 C4.03678455,0.400011735 1.41608486,2.56615867 0.427141099,5.57359745 C0.194817643,6.28020765 0.0541581913,7.00490204 0.0143746975,7.74997041 C0.0127550133,7.7797898 0.00493497537,7.80919286 0,7.83877806 L0,8.61163622 C0.0167283011,8.78784643 0.031431997,8.9642648 0.0505645169,9.1402148 C0.177709729,10.3086092 0.52632145,11.4033658 1.11672166,12.4096531 C1.40441807,12.9000077 1.72875983,13.3675684 2.03556346,13.8461097 C2.76414298,14.9823429 3.45154708,16.1436857 4.06862147,17.3483265 C4.09911708,17.4078352 4.131612,17.4668755 4.15545172,17.5291944 C4.25642891,17.7930153 4.44793126,17.9053194 4.71796299,17.9050852 C6.55202761,17.9036541 8.38606692,17.9043306 10.2201315,17.9043306 C10.5749942,17.9043306 10.9298822,17.9046949 11.2847449,17.9041745 C11.5394403,17.9038622 11.7058375,17.7830495 11.8228091,17.5447286 C12.0427065,17.0966832 12.27627,16.6551168 12.519906,16.2201337 C13.1492545,15.0966245 13.8247135,14.0034291 14.5511925,12.9426551 C15.4197987,11.6743944 15.8919114,10.2585199 15.9852204,8.70973316 C15.9871944,8.67689541 15.9949385,8.64442194 16,8.61174031 L16,7.83893418 C15.9832464,7.66272398 15.9683402,7.48638367 15.949562,7.31043367 L15.949562,7.31043367 Z M6.71424911,5.11740765 C5.66590849,5.66786939 4.9872608,6.5482699 4.69710956,7.73415 C4.46822793,8.66971378 4.57209018,9.45735153 4.5731531,9.46518367 C4.63647263,9.90001071 4.34472701,10.3036393 3.92178697,10.3687423 C3.88311701,10.374701 3.84464951,10.3775893 3.80668816,10.3775893 C3.42947889,10.3775893 3.09868369,10.0927179 3.04115959,9.69762398 C3.03495924,9.65505459 2.89262949,8.64101327 3.17911114,7.41344847 C3.56672182,5.75259184 4.54556785,4.46830255 6.00991424,3.69939949 C6.39071718,3.49935459 6.85716093,3.65472245 7.05162427,4.04630357 C7.24616353,4.43791071 7.09510267,4.91744082 6.71424911,5.11740765 Z" id="Shape"></path>
                </g>
            </g>
        </g>
    </g>
</svg>