<?xml version="1.0" encoding="UTF-8"?>
<svg width="24px" height="24px" viewBox="0 0 24 24" version="1.1" xmlns="http://www.w3.org/2000/svg" xmlns:xlink="http://www.w3.org/1999/xlink">
    <!-- Generator: Sketch 53.1 (72631) - https://sketchapp.com -->
    <title>返青期icon</title>
    <desc>Created with Sketch.</desc>
    <g id="页面-1" stroke="none" stroke-width="1" fill="none" fill-rule="evenodd">
        <g id="04-07农事管理-农事决策服务" transform="translate(-809.000000, -167.000000)">
            <g id="决策时间轴" transform="translate(224.000000, 72.000000)">
                <g id="返青期" transform="translate(576.000000, 86.000000)">
                    <g id="返青期icon" transform="translate(9.000000, 9.000000)">
                        <rect id="矩形" x="0" y="0" width="24" height="24"></rect>
                        <path d="M13.490566,8.26923077 L16,9.42307692 L15.7358491,10 L13.2264151,8.84615385 L13.490566,8.26923077 Z M9,7.57692308 L9.52830189,7 L12.1698113,8.73076923 L11.6415094,9.30769231 L9,7.57692308 L9,7.57692308 Z" id="形状" fill="#FFFFFF" fill-rule="nonzero"></path>
                        <polygon id="路径" fill="#FFFFFF" fill-rule="nonzero" points="16 7.68571429 5.08 11 3.13 11 3 10.8857143 15.74 7"></polygon>
                        <path d="M21,10.5356112 C21,10.5356112 19.4097611,11.2043311 17.6870023,10.9368431 C15.9642435,10.6693552 14.9040843,9.19817148 15.1691241,8.26196367 C15.5666838,7.32575585 16.4943232,6.65703599 18.6146417,7.99447572 C19.6748009,8.66319558 21,10.5356112 21,10.5356112 Z M20.4699204,6.52329202 C20.4699204,6.52329202 18.0845621,7.5932438 15.8317236,7.19201188 C13.5788852,6.79077996 12.6512459,4.6508764 13.3138454,3.44718064 C14.1089648,2.24348488 15.5666838,1.1735331 18.0845621,2.91220475 C19.2772412,3.84841256 20.4699204,6.52329202 20.4699204,6.52329202 Z M13.9764449,10.6693552 C13.9764449,10.6693552 13.7114051,8.26196367 12.3862061,6.65703599 C11.061007,5.05210831 9.07320839,5.05210831 8.41060885,6.1220601 C7.74800932,7.19201188 7.61548941,8.93068353 10.1333676,10.1343793 C11.4585667,10.8030992 13.9764449,10.6693552 13.9764449,10.6693552 Z" id="形状" fill="#FFFFFF" fill-rule="nonzero"></path>
                        <path d="M22,12 C22,17.5696203 17.443038,22 12,22 C6.55696203,22 2,17.443038 2,12" id="路径" fill="#FFFFFF" fill-rule="nonzero"></path>
                    </g>
                </g>
            </g>
        </g>
    </g>
</svg>