<?xml version="1.0" encoding="UTF-8"?>
<svg width="50px" height="50px" viewBox="0 0 50 50" version="1.1" xmlns="http://www.w3.org/2000/svg" xmlns:xlink="http://www.w3.org/1999/xlink">
    <!-- Generator: Sketch 63.1 (92452) - https://sketch.com -->
    <title>采集样点icon</title>
    <desc>Created with Sketch.</desc>
    <defs>
        <linearGradient x1="0%" y1="14.8660714%" x2="100%" y2="100%" id="linearGradient-1">
            <stop stop-color="#22D9C8" offset="0%"></stop>
            <stop stop-color="#079B6F" offset="100%"></stop>
        </linearGradient>
        <rect id="path-2" x="6" y="6" width="38" height="38" rx="19"></rect>
        <filter x="-23.7%" y="-18.4%" width="147.4%" height="147.4%" filterUnits="objectBoundingBox" id="filter-3">
            <feMorphology radius="2" operator="dilate" in="SourceAlpha" result="shadowSpreadOuter1"></feMorphology>
            <feOffset dx="0" dy="2" in="shadowSpreadOuter1" result="shadowOffsetOuter1"></feOffset>
            <feGaussianBlur stdDeviation="2" in="shadowOffsetOuter1" result="shadowBlurOuter1"></feGaussianBlur>
            <feComposite in="shadowBlurOuter1" in2="SourceAlpha" operator="out" result="shadowBlurOuter1"></feComposite>
            <feColorMatrix values="0 0 0 0 0.0666666667   0 0 0 0 0.180392157   0 0 0 0 0.431372549  0 0 0 0.4 0" type="matrix" in="shadowBlurOuter1"></feColorMatrix>
        </filter>
    </defs>
    <g id="页面-1" stroke="none" stroke-width="1" fill="none" fill-rule="evenodd">
        <g id="02-01植株健康-物联网监测预警" transform="translate(-871.000000, -192.000000)">
            <g id="采集样点icon" transform="translate(871.000000, 190.000000)">
                <rect id="矩形" x="0" y="0" width="50" height="50"></rect>
                <g id="Rectangle-3">
                    <use fill="black" fill-opacity="1" filter="url(#filter-3)" xlink:href="#path-2"></use>
                    <rect stroke="#FFFFFF" stroke-width="2" fill="url(#linearGradient-1)" fill-rule="evenodd" x="5" y="5" width="40" height="40" rx="20"></rect>
                </g>
                <g id="采集-(1)" transform="translate(15.000000, 14.000000)" fill="#FFFFFF" fill-rule="nonzero">
                    <path d="M12.1897559,1.65618694 C12.4535039,1.65274213 12.6956466,1.80768802 12.811936,2.05437505 C12.9319876,2.49024367 12.9087938,2.95541545 12.7460401,3.37597479 C12.61421,3.55739427 12.4086559,3.6642878 12.1902667,3.66499157 L1.94115169,3.66499157 L1.94115169,19.982996 L17.9717402,19.982996 L17.9717402,8.2791471 C17.9717402,8.05453369 18.2782328,7.72187166 18.4902236,7.60903268 C18.722114,7.53764799 18.9660996,7.51948905 19.2053732,7.55580676 C19.5682118,7.60471334 19.8548042,7.90049987 19.9051981,8.27808258 L19.9051981,20.2720127 C19.9353195,20.7116709 19.8153666,21.1482775 19.5665237,21.5047252 C19.2169619,21.8632872 18.7326932,22.0416883 18.2445187,21.9917424 L1.72967174,21.9917424 C1.25993474,22.0317455 0.79717795,21.8538353 0.464951711,21.5055116 C0.132725472,21.1571879 -0.0351443994,20.6739155 0.00616128091,20.1847222 L0.00616128091,3.6059108 C0.00616128091,2.56215039 0.52157979,1.65618694 1.7720699,1.65618694 L12.1897559,1.65618694 Z M14.1431359,16.1134703 C14.3471722,16.1134703 14.5287126,16.2138292 14.6447707,16.3697562 C14.8143727,16.4895793 14.927365,16.6968498 14.927365,16.9326971 C14.927365,17.3012361 14.6514636,17.599998 14.3111221,17.599998 L5.62021223,17.599998 C5.46421201,17.6004054 5.32153174,17.538253 5.21245543,17.4353469 L5.19559307,17.4356051 C4.84438677,17.4364878 4.55875549,17.141012 4.55706666,16.7750694 C4.55847442,16.4088329 4.84410537,16.1128813 5.19559307,16.1134703 L14.1431359,16.1134703 Z M14.2386594,12.5404145 C14.41263,12.5404145 14.570246,12.6133757 14.6848611,12.7315334 C14.8836603,12.8420482 15.0201487,13.0667402 15.0201487,13.3259519 C15.0201487,13.6944909 14.7442474,13.993251 14.4039059,13.993251 L5.7124998,13.993251 C5.57512394,13.9933719 5.44813624,13.9449928 5.34538206,13.8630221 L5.29060579,13.862547 C4.93979794,13.8628441 4.65478884,13.5675394 4.65310103,13.202013 C4.65422747,12.8360704 4.93940082,12.5401194 5.29060579,12.5404145 L14.2386594,12.5404145 Z M16.5828175,1.61259986 L16.651,1.668 L16.680829,1.62780437 L18.687,3.325 L18.8815126,3.48349116 L18.878,3.487 L18.913593,3.51633551 L18.7776425,3.71136732 C17.9882364,4.84341144 15.403688,8.55223945 15.2583102,8.75264403 C15.1274592,8.9318497 14.9725956,9.08885921 14.798857,9.2184638 C14.2427896,9.57904513 13.6555104,9.87991786 13.045393,10.1167921 C12.9732786,10.1383922 12.898915,10.1499473 12.8241013,10.1511779 C12.7250053,10.1558617 12.6282102,10.1212824 12.5514612,10.0547603 L12.612205,10.0563608 C12.4966091,10.0616182 12.3840541,10.0169406 12.3011149,9.93287663 L12.3011149,9.93127984 C12.1914882,9.79175756 12.1416287,9.61146493 12.1631932,9.43255291 C12.2172334,8.78172333 12.3164217,8.13582404 12.4599803,7.49991953 C12.5216743,7.27806166 12.6209769,7.06949913 12.7531916,6.88409558 C12.9851044,6.55036903 15.862049,2.60153758 16.4357011,1.81326159 L16.5828175,1.61259986 Z M19.8230722,2.23224179 C19.6340315,2.50786525 19.4846844,2.71310533 19.4291134,2.78832423 L19.2857203,2.98228147 L18.939,2.69 L16.9618468,1.08193737 L17.1258204,0.874888517 C17.2606772,0.701372007 17.4455944,0.46504888 17.5589967,0.336242143 C17.7561013,0.114583679 18.0353273,-0.00780700752 18.3252284,0.00038655373 L18.3411318,1.71052091e-05 C18.351825,-4.86621129e-05 18.362537,7.51197191e-05 18.3732641,0.00039019838 C18.5269684,0.00114493103 18.6795107,0.0292800809 18.8247786,0.0836682582 C19.2405032,0.279790715 19.5906701,0.609274582 19.8280339,1.02766517 L19.841,1.051 L19.8933754,1.14197144 C19.9549104,1.2695385 19.9897963,1.4071252 19.9980704,1.54603728 L19.9981258,1.56061421 C20.0115204,1.79431726 19.9531134,2.03173666 19.8230722,2.23224179 Z" id="形状结合"></path>
                </g>
            </g>
        </g>
    </g>
</svg>