<?xml version="1.0" encoding="UTF-8"?>
<svg width="16px" height="16px" viewBox="0 0 16 16" version="1.1" xmlns="http://www.w3.org/2000/svg" xmlns:xlink="http://www.w3.org/1999/xlink">
    <!-- Generator: Sketch 53.1 (72631) - https://sketchapp.com -->
    <title>风险评估icon</title>
    <desc>Created with Sketch.</desc>
    <g id="页面-1" stroke="none" stroke-width="1" fill="none" fill-rule="evenodd">
        <g id="05-01虫害管理-虫害预测" transform="translate(-1088.000000, -156.000000)" fill="#00BB65" fill-rule="nonzero">
            <g id="分组-10" transform="translate(1072.000000, 138.000000)">
                <g id="风险评估icon" transform="translate(16.000000, 18.000000)">
                    <path d="M7.41666666,4 L7.41666666,8.57142858 C7.41666666,8.91428572 7.64999999,9.14285716 8,9.14285714 C8.35000001,9.14285713 8.58333334,8.91428572 8.58333334,8.57142858 L8.58333334,4 C8.58333334,3.65714286 8.35000001,3.42857142 8,3.42857142 C7.64999999,3.42857142 7.41666666,3.65714284 7.41666666,4 L7.41666666,4 Z M8,10.2857143 C7.65,10.2857143 7.41666666,10.5142857 7.41666666,10.8571429 C7.41666666,11.2 7.64999999,11.4285714 8,11.4285714 C8.35000001,11.4285714 8.58333334,11.2 8.58333334,10.8571429 C8.58333334,10.5142857 8.35,10.2857143 8,10.2857143 Z M14.7666667,1.25714286 C12.3166667,0.342857141 10.3333333,0 8,0 C5.66666667,0 3.68333334,0.342857141 1.23333334,1.25714286 C1.11666667,1.37142858 1.00000002,1.48571428 1,1.71428572 L1,8.91428572 C1,11.8857143 5.31666666,14.7428571 7.88333333,16 L8.11666667,16 C10.6833333,14.7428571 15,11.8857143 15,8.91428572 L15,1.71428572 C15,1.4857143 14.8833333,1.37142858 14.7666667,1.25714286 Z M13.8333333,8.8 C13.8333333,10.7428571 10.9166667,13.1428571 8,14.7428571 C5.08333333,13.2571429 2.16666666,10.7428571 2.16666666,8.8 L2.16666666,2.17142858 C4.14999999,1.48571428 5.9,1.14285714 8,1.14285714 C10.1,1.14285714 11.85,1.48571428 13.8333333,2.17142858 L13.8333333,8.8 Z" id="形状"></path>
                </g>
            </g>
        </g>
    </g>
</svg>